  0
SECTION
  2
HEADER
  9
$ACADVER
  1
AC1009
  9
$EXTMIN
 10
0.0
 20
0.0
 30
0.0
  9
$EXTMAX
 10
1000.0
 20
1000.0
 30
0.0
  9
$FILLMODE
 70
 0
  9
$SPLFRAME
 70
 1
  0
ENDSEC
  0
SECTION
  2
TABLES
  0
TABLE
  2
LAYER
 70
1
  0
LAYER
  2
0
 70
     0
 62
     7
  6
CONTINUOUS
  0
ENDTAB
  0
ENDSEC
  0
SECTION
  2
ENTITIES
  0
POLYLINE
  8
0
 62
     0
 66
     1
 10
0
 20
0
 30
0.0
 70
     1
 40
4.528
 41
4.528
  0
VERTEX
  8
0
 10
10.9169
 20
-20.1579
 30
0.0
 40
0.0628889
 41
0.0628889
  0
VERTEX
  8
0
 10
10.9325
 20
-20.1329
 30
0.0
 40
0.0628889
 41
0.0628889
  0
VERTEX
  8
0
 10
10.9617
 20
-20.0465
 30
0.0
 40
0.0628889
 41
0.0628889
  0
VERTEX
  8
0
 10
10.9984
 20
-19.8785
 30
0.0
 40
0.0628889
 41
0.0628889
  0
VERTEX
  8
0
 10
11.026
 20
-19.6688
 30
0.0
 40
0.0628889
 41
0.0628889
  0
VERTEX
  8
0
 10
11.0438
 20
-19.4321
 30
0.0
 40
0.0628889
 41
0.0628889
  0
VERTEX
  8
0
 10
11.0512
 20
-19.1835
 30
0.0
 40
0.0628889
 41
0.0628889
  0
VERTEX
  8
0
 10
11.0471
 20
-18.9378
 30
0.0
 40
0.0628889
 41
0.0628889
  0
VERTEX
  8
0
 10
11.031
 20
-18.7097
 30
0.0
 40
0.0628889
 41
0.0628889
  0
VERTEX
  8
0
 10
11.0119
 20
-18.5625
 30
0.0
 40
0.0628889
 41
0.0628889
  0
VERTEX
  8
0
 10
11.002
 20
-18.5143
 30
0.0
 40
0.0628889
 41
0.0628889
  0
VERTEX
  8
0
 10
10.9845
 20
-18.429
 30
0.0
 40
0.0628889
 41
0.0628889
  0
VERTEX
  8
0
 10
10.9331
 20
-18.1731
 30
0.0
 40
0.0628889
 41
0.0628889
  0
VERTEX
  8
0
 10
10.8629
 20
-17.8163
 30
0.0
 40
0.0628889
 41
0.0628889
  0
VERTEX
  8
0
 10
10.7936
 20
-17.4554
 30
0.0
 40
0.0628889
 41
0.0628889
  0
VERTEX
  8
0
 10
10.7274
 20
-17.1024
 30
0.0
 40
0.0628889
 41
0.0628889
  0
VERTEX
  8
0
 10
10.6664
 20
-16.7686
 30
0.0
 40
0.0628889
 41
0.0628889
  0
VERTEX
  8
0
 10
10.6127
 20
-16.4658
 30
0.0
 40
0.0628889
 41
0.0628889
  0
VERTEX
  8
0
 10
10.5686
 20
-16.2057
 30
0.0
 40
0.0628889
 41
0.0628889
  0
VERTEX
  8
0
 10
10.5437
 20
-16.0514
 30
0.0
 40
0.0628889
 41
0.0628889
  0
VERTEX
  8
0
 10
10.5361
 20
-15.9997
 30
0.0
 40
0.0628889
 41
0.0628889
  0
VERTEX
  8
0
 10
10.5259
 20
-15.9307
 30
0.0
 40
0.0628889
 41
0.0628889
  0
VERTEX
  8
0
 10
10.4905
 20
-15.7242
 30
0.0
 40
0.0628889
 41
0.0628889
  0
VERTEX
  8
0
 10
10.4312
 20
-15.4185
 30
0.0
 40
0.0628889
 41
0.0628889
  0
VERTEX
  8
0
 10
10.3592
 20
-15.0875
 30
0.0
 40
0.0628889
 41
0.0628889
  0
VERTEX
  8
0
 10
10.2758
 20
-14.7356
 30
0.0
 40
0.0628889
 41
0.0628889
  0
VERTEX
  8
0
 10
10.182
 20
-14.3671
 30
0.0
 40
0.0628889
 41
0.0628889
  0
VERTEX
  8
0
 10
10.079
 20
-13.9868
 30
0.0
 40
0.0628889
 41
0.0628889
  0
VERTEX
  8
0
 10
9.96783
 20
-13.5993
 30
0.0
 40
0.0628889
 41
0.0628889
  0
VERTEX
  8
0
 10
9.87989
 20
-13.3062
 30
0.0
 40
0.0628889
 41
0.0628889
  0
VERTEX
  8
0
 10
9.84967
 20
-13.2089
 30
0.0
 40
0.0628889
 41
0.0628889
  0
VERTEX
  8
0
 10
9.83236
 20
-13.1533
 30
0.0
 40
0.0628889
 41
0.0628889
  0
VERTEX
  8
0
 10
9.78103
 20
-12.9862
 30
0.0
 40
0.0628889
 41
0.0628889
  0
VERTEX
  8
0
 10
9.71496
 20
-12.7682
 30
0.0
 40
0.0628889
 41
0.0628889
  0
VERTEX
  8
0
 10
9.65186
 20
-12.5562
 30
0.0
 40
0.0628889
 41
0.0628889
  0
VERTEX
  8
0
 10
9.59201
 20
-12.3517
 30
0.0
 40
0.0628889
 41
0.0628889
  0
VERTEX
  8
0
 10
9.53586
 20
-12.1559
 30
0.0
 40
0.0628889
 41
0.0628889
  0
VERTEX
  8
0
 10
9.48372
 20
-11.9704
 30
0.0
 40
0.0628889
 41
0.0628889
  0
VERTEX
  8
0
 10
9.43599
 20
-11.7964
 30
0.0
 40
0.0628889
 41
0.0628889
  0
VERTEX
  8
0
 10
9.39296
 20
-11.6354
 30
0.0
 40
0.0628889
 41
0.0628889
  0
VERTEX
  8
0
 10
9.35514
 20
-11.4888
 30
0.0
 40
0.0628889
 41
0.0628889
  0
VERTEX
  8
0
 10
9.32275
 20
-11.358
 30
0.0
 40
0.0628889
 41
0.0628889
  0
VERTEX
  8
0
 10
9.29628
 20
-11.2443
 30
0.0
 40
0.0628889
 41
0.0628889
  0
VERTEX
  8
0
 10
9.27599
 20
-11.1492
 30
0.0
 40
0.0628889
 41
0.0628889
  0
VERTEX
  8
0
 10
9.26226
 20
-11.0741
 30
0.0
 40
0.0628889
 41
0.0628889
  0
VERTEX
  8
0
 10
9.25553
 20
-11.0202
 30
0.0
 40
0.0628889
 41
0.0628889
  0
VERTEX
  8
0
 10
9.25612
 20
-10.9891
 30
0.0
 40
0.0628889
 41
0.0628889
  0
VERTEX
  8
0
 10
9.26335
 20
-10.9817
 30
0.0
 40
0.0628889
 41
0.0628889
  0
VERTEX
  8
0
 10
9.26443
 20
-10.9822
 30
0.0
 40
0.0628889
 41
0.0628889
  0
VERTEX
  8
0
 10
9.27192
 20
-10.9855
 30
0.0
 40
0.0628889
 41
0.0628889
  0
VERTEX
  8
0
 10
9.31358
 20
-11.012
 30
0.0
 40
0.0628889
 41
0.0628889
  0
VERTEX
  8
0
 10
9.40701
 20
-11.0751
 30
0.0
 40
0.0628889
 41
0.0628889
  0
VERTEX
  8
0
 10
9.53131
 20
-11.1621
 30
0.0
 40
0.0628889
 41
0.0628889
  0
VERTEX
  8
0
 10
9.63781
 20
-11.2382
 30
0.0
 40
0.0628889
 41
0.0628889
  0
VERTEX
  8
0
 10
9.67313
 20
-11.2639
 30
0.0
 40
0.0628889
 41
0.0628889
  0
VERTEX
  8
0
 10
9.70546
 20
-11.2873
 30
0.0
 40
0.0628889
 41
0.0628889
  0
VERTEX
  8
0
 10
9.80707
 20
-11.3516
 30
0.0
 40
0.0628889
 41
0.0628889
  0
VERTEX
  8
0
 10
9.99219
 20
-11.4587
 30
0.0
 40
0.0628889
 41
0.0628889
  0
VERTEX
  8
0
 10
10.2212
 20
-11.582
 30
0.0
 40
0.0628889
 41
0.0628889
  0
VERTEX
  8
0
 10
10.4868
 20
-11.7182
 30
0.0
 40
0.0628889
 41
0.0628889
  0
VERTEX
  8
0
 10
10.7817
 20
-11.8639
 30
0.0
 40
0.0628889
 41
0.0628889
  0
VERTEX
  8
0
 10
11.0988
 20
-12.016
 30
0.0
 40
0.0628889
 41
0.0628889
  0
VERTEX
  8
0
 10
11.4306
 20
-12.1711
 30
0.0
 40
0.0628889
 41
0.0628889
  0
VERTEX
  8
0
 10
11.77
 20
-12.326
 30
0.0
 40
0.0628889
 41
0.0628889
  0
VERTEX
  8
0
 10
12.1097
 20
-12.4774
 30
0.0
 40
0.0628889
 41
0.0628889
  0
VERTEX
  8
0
 10
12.4424
 20
-12.6219
 30
0.0
 40
0.0628889
 41
0.0628889
  0
VERTEX
  8
0
 10
12.7609
 20
-12.7565
 30
0.0
 40
0.0628889
 41
0.0628889
  0
VERTEX
  8
0
 10
13.0578
 20
-12.8776
 30
0.0
 40
0.0628889
 41
0.0628889
  0
VERTEX
  8
0
 10
13.3261
 20
-12.9822
 30
0.0
 40
0.0628889
 41
0.0628889
  0
VERTEX
  8
0
 10
13.5582
 20
-13.0668
 30
0.0
 40
0.0628889
 41
0.0628889
  0
VERTEX
  8
0
 10
13.7471
 20
-13.1283
 30
0.0
 40
0.0628889
 41
0.0628889
  0
VERTEX
  8
0
 10
13.8504
 20
-13.1568
 30
0.0
 40
0.0628889
 41
0.0628889
  0
VERTEX
  8
0
 10
13.8854
 20
-13.1634
 30
0.0
 40
0.0628889
 41
0.0628889
  0
VERTEX
  8
0
 10
13.9424
 20
-13.1741
 30
0.0
 40
0.0628889
 41
0.0628889
  0
VERTEX
  8
0
 10
14.1144
 20
-13.2019
 30
0.0
 40
0.0628889
 41
0.0628889
  0
VERTEX
  8
0
 10
14.3321
 20
-13.2297
 30
0.0
 40
0.0628889
 41
0.0628889
  0
VERTEX
  8
0
 10
14.536
 20
-13.2467
 30
0.0
 40
0.0628889
 41
0.0628889
  0
VERTEX
  8
0
 10
14.7232
 20
-13.2531
 30
0.0
 40
0.0628889
 41
0.0628889
  0
VERTEX
  8
0
 10
14.8914
 20
-13.2487
 30
0.0
 40
0.0628889
 41
0.0628889
  0
VERTEX
  8
0
 10
15.0376
 20
-13.2336
 30
0.0
 40
0.0628889
 41
0.0628889
  0
VERTEX
  8
0
 10
15.1596
 20
-13.2076
 30
0.0
 40
0.0628889
 41
0.0628889
  0
VERTEX
  8
0
 10
15.2321
 20
-13.1826
 30
0.0
 40
0.0628889
 41
0.0628889
  0
VERTEX
  8
0
 10
15.2544
 20
-13.1709
 30
0.0
 40
0.0628889
 41
0.0628889
  0
VERTEX
  8
0
 10
15.3032
 20
-13.1453
 30
0.0
 40
0.0628889
 41
0.0628889
  0
VERTEX
  8
0
 10
15.4421
 20
-13.0545
 30
0.0
 40
0.0628889
 41
0.0628889
  0
VERTEX
  8
0
 10
15.6413
 20
-12.8985
 30
0.0
 40
0.0628889
 41
0.0628889
  0
VERTEX
  8
0
 10
15.8456
 20
-12.71
 30
0.0
 40
0.0628889
 41
0.0628889
  0
VERTEX
  8
0
 10
16.0486
 20
-12.4962
 30
0.0
 40
0.0628889
 41
0.0628889
  0
VERTEX
  8
0
 10
16.2436
 20
-12.2644
 30
0.0
 40
0.0628889
 41
0.0628889
  0
VERTEX
  8
0
 10
16.4246
 20
-12.0219
 30
0.0
 40
0.0628889
 41
0.0628889
  0
VERTEX
  8
0
 10
16.5846
 20
-11.7758
 30
0.0
 40
0.0628889
 41
0.0628889
  0
VERTEX
  8
0
 10
16.6869
 20
-11.5954
 30
0.0
 40
0.0628889
 41
0.0628889
  0
VERTEX
  8
0
 10
16.7175
 20
-11.5335
 30
0.0
 40
0.0628889
 41
0.0628889
  0
VERTEX
  8
0
 10
16.7217
 20
-11.525
 30
0.0
 40
0.0628889
 41
0.0628889
  0
VERTEX
  8
0
 10
16.7354
 20
-11.4999
 30
0.0
 40
0.0628889
 41
0.0628889
  0
VERTEX
  8
0
 10
16.7672
 20
-11.4435
 30
0.0
 40
0.0628889
 41
0.0628889
  0
VERTEX
  8
0
 10
16.8111
 20
-11.3672
 30
0.0
 40
0.0628889
 41
0.0628889
  0
VERTEX
  8
0
 10
16.8656
 20
-11.274
 30
0.0
 40
0.0628889
 41
0.0628889
  0
VERTEX
  8
0
 10
16.9283
 20
-11.1671
 30
0.0
 40
0.0628889
 41
0.0628889
  0
VERTEX
  8
0
 10
16.9981
 20
-11.0494
 30
0.0
 40
0.0628889
 41
0.0628889
  0
VERTEX
  8
0
 10
17.0728
 20
-10.9239
 30
0.0
 40
0.0628889
 41
0.0628889
  0
VERTEX
  8
0
 10
17.1312
 20
-10.8263
 30
0.0
 40
0.0628889
 41
0.0628889
  0
VERTEX
  8
0
 10
17.1508
 20
-10.7938
 30
0.0
 40
0.0628889
 41
0.0628889
  0
VERTEX
  8
0
 10
17.1703
 20
-10.7614
 30
0.0
 40
0.0628889
 41
0.0628889
  0
VERTEX
  8
0
 10
17.2278
 20
-10.6634
 30
0.0
 40
0.0628889
 41
0.0628889
  0
VERTEX
  8
0
 10
17.2996
 20
-10.5372
 30
0.0
 40
0.0628889
 41
0.0628889
  0
VERTEX
  8
0
 10
17.3646
 20
-10.4182
 30
0.0
 40
0.0628889
 41
0.0628889
  0
VERTEX
  8
0
 10
17.4214
 20
-10.3097
 30
0.0
 40
0.0628889
 41
0.0628889
  0
VERTEX
  8
0
 10
17.4682
 20
-10.2146
 30
0.0
 40
0.0628889
 41
0.0628889
  0
VERTEX
  8
0
 10
17.5038
 20
-10.1361
 30
0.0
 40
0.0628889
 41
0.0628889
  0
VERTEX
  8
0
 10
17.5261
 20
-10.0772
 30
0.0
 40
0.0628889
 41
0.0628889
  0
VERTEX
  8
0
 10
17.534
 20
-10.05
 30
0.0
 40
0.0628889
 41
0.0628889
  0
VERTEX
  8
0
 10
17.534
 20
-10.041
 30
0.0
 40
0.0628889
 41
0.0628889
  0
VERTEX
  8
0
 10
17.534
 20
-10.0215
 30
0.0
 40
0.0628889
 41
0.0628889
  0
VERTEX
  8
0
 10
17.5528
 20
-9.96326
 30
0.0
 40
0.0628889
 41
0.0628889
  0
VERTEX
  8
0
 10
17.6039
 20
-9.83708
 30
0.0
 40
0.0628889
 41
0.0628889
  0
VERTEX
  8
0
 10
17.6797
 20
-9.67985
 30
0.0
 40
0.0628889
 41
0.0628889
  0
VERTEX
  8
0
 10
17.7481
 20
-9.55122
 30
0.0
 40
0.0628889
 41
0.0628889
  0
VERTEX
  8
0
 10
17.7722
 20
-9.50911
 30
0.0
 40
0.0628889
 41
0.0628889
  0
VERTEX
  8
0
 10
17.7862
 20
-9.48449
 30
0.0
 40
0.0628889
 41
0.0628889
  0
VERTEX
  8
0
 10
17.8269
 20
-9.40972
 30
0.0
 40
0.0628889
 41
0.0628889
  0
VERTEX
  8
0
 10
17.8917
 20
-9.28651
 30
0.0
 40
0.0628889
 41
0.0628889
  0
VERTEX
  8
0
 10
17.9639
 20
-9.14438
 30
0.0
 40
0.0628889
 41
0.0628889
  0
VERTEX
  8
0
 10
18.0411
 20
-8.98817
 30
0.0
 40
0.0628889
 41
0.0628889
  0
VERTEX
  8
0
 10
18.121
 20
-8.82281
 30
0.0
 40
0.0628889
 41
0.0628889
  0
VERTEX
  8
0
 10
18.2012
 20
-8.65315
 30
0.0
 40
0.0628889
 41
0.0628889
  0
VERTEX
  8
0
 10
18.2794
 20
-8.48406
 30
0.0
 40
0.0628889
 41
0.0628889
  0
VERTEX
  8
0
 10
18.3349
 20
-8.36139
 30
0.0
 40
0.0628889
 41
0.0628889
  0
VERTEX
  8
0
 10
18.3532
 20
-8.32042
 30
0.0
 40
0.0628889
 41
0.0628889
  0
VERTEX
  8
0
 10
18.3726
 20
-8.27632
 30
0.0
 40
0.0628889
 41
0.0628889
  0
VERTEX
  8
0
 10
18.4315
 20
-8.14415
 30
0.0
 40
0.0628889
 41
0.0628889
  0
VERTEX
  8
0
 10
18.5233
 20
-7.93896
 30
0.0
 40
0.0628889
 41
0.0628889
  0
VERTEX
  8
0
 10
18.6251
 20
-7.71229
 30
0.0
 40
0.0628889
 41
0.0628889
  0
VERTEX
  8
0
 10
18.7336
 20
-7.47146
 30
0.0
 40
0.0628889
 41
0.0628889
  0
VERTEX
  8
0
 10
18.8453
 20
-7.22396
 30
0.0
 40
0.0628889
 41
0.0628889
  0
VERTEX
  8
0
 10
18.9569
 20
-6.97711
 30
0.0
 40
0.0628889
 41
0.0628889
  0
VERTEX
  8
0
 10
19.0653
 20
-6.73833
 30
0.0
 40
0.0628889
 41
0.0628889
  0
VERTEX
  8
0
 10
19.1415
 20
-6.57086
 30
0.0
 40
0.0628889
 41
0.0628889
  0
VERTEX
  8
0
 10
19.1669
 20
-6.51508
 30
0.0
 40
0.0628889
 41
0.0628889
  0
VERTEX
  8
0
 10
19.1915
 20
-6.46132
 30
0.0
 40
0.0628889
 41
0.0628889
  0
VERTEX
  8
0
 10
19.2643
 20
-6.29958
 30
0.0
 40
0.0628889
 41
0.0628889
  0
VERTEX
  8
0
 10
19.3601
 20
-6.08311
 30
0.0
 40
0.0628889
 41
0.0628889
  0
VERTEX
  8
0
 10
19.4522
 20
-5.87147
 30
0.0
 40
0.0628889
 41
0.0628889
  0
VERTEX
  8
0
 10
19.5379
 20
-5.67051
 30
0.0
 40
0.0628889
 41
0.0628889
  0
VERTEX
  8
0
 10
19.6149
 20
-5.48611
 30
0.0
 40
0.0628889
 41
0.0628889
  0
VERTEX
  8
0
 10
19.6804
 20
-5.32411
 30
0.0
 40
0.0628889
 41
0.0628889
  0
VERTEX
  8
0
 10
19.7324
 20
-5.19026
 30
0.0
 40
0.0628889
 41
0.0628889
  0
VERTEX
  8
0
 10
19.7597
 20
-5.11567
 30
0.0
 40
0.0628889
 41
0.0628889
  0
VERTEX
  8
0
 10
19.7681
 20
-5.09056
 30
0.0
 40
0.0628889
 41
0.0628889
  0
VERTEX
  8
0
 10
19.784
 20
-5.04264
 30
0.0
 40
0.0628889
 41
0.0628889
  0
VERTEX
  8
0
 10
19.8408
 20
-4.90201
 30
0.0
 40
0.0628889
 41
0.0628889
  0
VERTEX
  8
0
 10
19.9425
 20
-4.67822
 30
0.0
 40
0.0628889
 41
0.0628889
  0
VERTEX
  8
0
 10
20.0596
 20
-4.4471
 30
0.0
 40
0.0628889
 41
0.0628889
  0
VERTEX
  8
0
 10
20.1476
 20
-4.28842
 30
0.0
 40
0.0628889
 41
0.0628889
  0
VERTEX
  8
0
 10
20.1789
 20
-4.23682
 30
0.0
 40
0.0628889
 41
0.0628889
  0
VERTEX
  8
0
 10
20.196
 20
-4.20876
 30
0.0
 40
0.0628889
 41
0.0628889
  0
VERTEX
  8
0
 10
20.2458
 20
-4.12392
 30
0.0
 40
0.0628889
 41
0.0628889
  0
VERTEX
  8
0
 10
20.3283
 20
-3.97999
 30
0.0
 40
0.0628889
 41
0.0628889
  0
VERTEX
  8
0
 10
20.4233
 20
-3.81076
 30
0.0
 40
0.0628889
 41
0.0628889
  0
VERTEX
  8
0
 10
20.5278
 20
-3.62229
 30
0.0
 40
0.0628889
 41
0.0628889
  0
VERTEX
  8
0
 10
20.6381
 20
-3.42046
 30
0.0
 40
0.0628889
 41
0.0628889
  0
VERTEX
  8
0
 10
20.7511
 20
-3.21115
 30
0.0
 40
0.0628889
 41
0.0628889
  0
VERTEX
  8
0
 10
20.8636
 20
-3.00032
 30
0.0
 40
0.0628889
 41
0.0628889
  0
VERTEX
  8
0
 10
20.9453
 20
-2.84554
 30
0.0
 40
0.0628889
 41
0.0628889
  0
VERTEX
  8
0
 10
20.9724
 20
-2.79389
 30
0.0
 40
0.0628889
 41
0.0628889
  0
VERTEX
  8
0
 10
20.9989
 20
-2.74306
 30
0.0
 40
0.0628889
 41
0.0628889
  0
VERTEX
  8
0
 10
21.0792
 20
-2.59076
 30
0.0
 40
0.0628889
 41
0.0628889
  0
VERTEX
  8
0
 10
21.1863
 20
-2.3896
 30
0.0
 40
0.0628889
 41
0.0628889
  0
VERTEX
  8
0
 10
21.2907
 20
-2.19553
 30
0.0
 40
0.0628889
 41
0.0628889
  0
VERTEX
  8
0
 10
21.3896
 20
-2.01383
 30
0.0
 40
0.0628889
 41
0.0628889
  0
VERTEX
  8
0
 10
21.4801
 20
-1.84978
 30
0.0
 40
0.0628889
 41
0.0628889
  0
VERTEX
  8
0
 10
21.5593
 20
-1.70856
 30
0.0
 40
0.0628889
 41
0.0628889
  0
VERTEX
  8
0
 10
21.6246
 20
-1.59543
 30
0.0
 40
0.0628889
 41
0.0628889
  0
VERTEX
  8
0
 10
21.6603
 20
-1.53537
 30
0.0
 40
0.0628889
 41
0.0628889
  0
VERTEX
  8
0
 10
21.6728
 20
-1.51574
 30
0.0
 40
0.0628889
 41
0.0628889
  0
VERTEX
  8
0
 10
21.6844
 20
-1.49713
 30
0.0
 40
0.0628889
 41
0.0628889
  0
VERTEX
  8
0
 10
21.7181
 20
-1.44038
 30
0.0
 40
0.0628889
 41
0.0628889
  0
VERTEX
  8
0
 10
21.7751
 20
-1.33984
 30
0.0
 40
0.0628889
 41
0.0628889
  0
VERTEX
  8
0
 10
21.8417
 20
-1.21853
 30
0.0
 40
0.0628889
 41
0.0628889
  0
VERTEX
  8
0
 10
21.9153
 20
-1.08078
 30
0.0
 40
0.0628889
 41
0.0628889
  0
VERTEX
  8
0
 10
21.9938
 20
-0.93099
 30
0.0
 40
0.0628889
 41
0.0628889
  0
VERTEX
  8
0
 10
22.0747
 20
-0.773438
 30
0.0
 40
0.0628889
 41
0.0628889
  0
VERTEX
  8
0
 10
22.1558
 20
-0.612576
 30
0.0
 40
0.0628889
 41
0.0628889
  0
VERTEX
  8
0
 10
22.2153
 20
-0.492731
 30
0.0
 40
0.0628889
 41
0.0628889
  0
VERTEX
  8
0
 10
22.2349
 20
-0.452692
 30
0.0
 40
0.0628889
 41
0.0628889
  0
VERTEX
  8
0
 10
22.2681
 20
-0.384765
 30
0.0
 40
0.0628889
 41
0.0628889
  0
VERTEX
  8
0
 10
22.3686
 20
-0.181424
 30
0.0
 40
0.0628889
 41
0.0628889
  0
VERTEX
  8
0
 10
22.5038
 20
0.0887587
 30
0.0
 40
0.0628889
 41
0.0628889
  0
VERTEX
  8
0
 10
22.6393
 20
0.355686
 30
0.0
 40
0.0628889
 41
0.0628889
  0
VERTEX
  8
0
 10
22.7737
 20
0.617188
 30
0.0
 40
0.0628889
 41
0.0628889
  0
VERTEX
  8
0
 10
22.9063
 20
0.871094
 30
0.0
 40
0.0628889
 41
0.0628889
  0
VERTEX
  8
0
 10
23.0354
 20
1.11513
 30
0.0
 40
0.0628889
 41
0.0628889
  0
VERTEX
  8
0
 10
23.16
 20
1.34711
 30
0.0
 40
0.0628889
 41
0.0628889
  0
VERTEX
  8
0
 10
23.2787
 20
1.56489
 30
0.0
 40
0.0628889
 41
0.0628889
  0
VERTEX
  8
0
 10
23.3907
 20
1.76622
 30
0.0
 40
0.0628889
 41
0.0628889
  0
VERTEX
  8
0
 10
23.4943
 20
1.94894
 30
0.0
 40
0.0628889
 41
0.0628889
  0
VERTEX
  8
0
 10
23.5886
 20
2.11083
 30
0.0
 40
0.0628889
 41
0.0628889
  0
VERTEX
  8
0
 10
23.6724
 20
2.24968
 30
0.0
 40
0.0628889
 41
0.0628889
  0
VERTEX
  8
0
 10
23.7442
 20
2.36328
 30
0.0
 40
0.0628889
 41
0.0628889
  0
VERTEX
  8
0
 10
23.8031
 20
2.44949
 30
0.0
 40
0.0628889
 41
0.0628889
  0
VERTEX
  8
0
 10
23.8478
 20
2.50603
 30
0.0
 40
0.0628889
 41
0.0628889
  0
VERTEX
  8
0
 10
23.8685
 20
2.52756
 30
0.0
 40
0.0628889
 41
0.0628889
  0
VERTEX
  8
0
 10
23.8769
 20
2.53076
 30
0.0
 40
0.0628889
 41
0.0628889
  0
VERTEX
  8
0
 10
23.8901
 20
2.53586
 30
0.0
 40
0.0628889
 41
0.0628889
  0
VERTEX
  8
0
 10
23.9372
 20
2.53196
 30
0.0
 40
0.0628889
 41
0.0628889
  0
VERTEX
  8
0
 10
24.0185
 20
2.50336
 30
0.0
 40
0.0628889
 41
0.0628889
  0
VERTEX
  8
0
 10
24.1099
 20
2.44993
 30
0.0
 40
0.0628889
 41
0.0628889
  0
VERTEX
  8
0
 10
24.1796
 20
2.39665
 30
0.0
 40
0.0628889
 41
0.0628889
  0
VERTEX
  8
0
 10
24.201
 20
2.37679
 30
0.0
 40
0.0628889
 41
0.0628889
  0
VERTEX
  8
0
 10
24.2287
 20
2.35086
 30
0.0
 40
0.0628889
 41
0.0628889
  0
VERTEX
  8
0
 10
24.315
 20
2.27582
 30
0.0
 40
0.0628889
 41
0.0628889
  0
VERTEX
  8
0
 10
24.4221
 20
2.19362
 30
0.0
 40
0.0628889
 41
0.0628889
  0
VERTEX
  8
0
 10
24.5263
 20
2.12858
 30
0.0
 40
0.0628889
 41
0.0628889
  0
VERTEX
  8
0
 10
24.6317
 20
2.07904
 30
0.0
 40
0.0628889
 41
0.0628889
  0
VERTEX
  8
0
 10
24.7426
 20
2.0434
 30
0.0
 40
0.0628889
 41
0.0628889
  0
VERTEX
  8
0
 10
24.8633
 20
2.01997
 30
0.0
 40
0.0628889
 41
0.0628889
  0
VERTEX
  8
0
 10
24.9978
 20
2.00717
 30
0.0
 40
0.0628889
 41
0.0628889
  0
VERTEX
  8
0
 10
25.1122
 20
2.00319
 30
0.0
 40
0.0628889
 41
0.0628889
  0
VERTEX
  8
0
 10
25.1504
 20
2.00319
 30
0.0
 40
0.0628889
 41
0.0628889
  0
VERTEX
  8
0
 10
25.2074
 20
2.00319
 30
0.0
 40
0.0628889
 41
0.0628889
  0
VERTEX
  8
0
 10
25.3783
 20
2.01471
 30
0.0
 40
0.0628889
 41
0.0628889
  0
VERTEX
  8
0
 10
25.5731
 20
2.04725
 30
0.0
 40
0.0628889
 41
0.0628889
  0
VERTEX
  8
0
 10
25.7313
 20
2.09831
 30
0.0
 40
0.0628889
 41
0.0628889
  0
VERTEX
  8
0
 10
25.8493
 20
2.16521
 30
0.0
 40
0.0628889
 41
0.0628889
  0
VERTEX
  8
0
 10
25.9239
 20
2.24522
 30
0.0
 40
0.0628889
 41
0.0628889
  0
VERTEX
  8
0
 10
25.9513
 20
2.33578
 30
0.0
 40
0.0628889
 41
0.0628889
  0
VERTEX
  8
0
 10
25.9281
 20
2.43419
 30
0.0
 40
0.0628889
 41
0.0628889
  0
VERTEX
  8
0
 10
25.8736
 20
2.51519
 30
0.0
 40
0.0628889
 41
0.0628889
  0
VERTEX
  8
0
 10
25.851
 20
2.53776
 30
0.0
 40
0.0628889
 41
0.0628889
  0
VERTEX
  8
0
 10
25.845
 20
2.54372
 30
0.0
 40
0.0628889
 41
0.0628889
  0
VERTEX
  8
0
 10
25.8285
 20
2.56293
 30
0.0
 40
0.0628889
 41
0.0628889
  0
VERTEX
  8
0
 10
25.8165
 20
2.5835
 30
0.0
 40
0.0628889
 41
0.0628889
  0
VERTEX
  8
0
 10
25.8156
 20
2.59987
 30
0.0
 40
0.0628889
 41
0.0628889
  0
VERTEX
  8
0
 10
25.8261
 20
2.61247
 30
0.0
 40
0.0628889
 41
0.0628889
  0
VERTEX
  8
0
 10
25.8489
 20
2.62164
 30
0.0
 40
0.0628889
 41
0.0628889
  0
VERTEX
  8
0
 10
25.8844
 20
2.62771
 30
0.0
 40
0.0628889
 41
0.0628889
  0
VERTEX
  8
0
 10
25.9332
 20
2.63108
 30
0.0
 40
0.0628889
 41
0.0628889
  0
VERTEX
  8
0
 10
25.9803
 20
2.63211
 30
0.0
 40
0.0628889
 41
0.0628889
  0
VERTEX
  8
0
 10
25.996
 20
2.63211
 30
0.0
 40
0.0628889
 41
0.0628889
  0
VERTEX
  8
0
 10
26.0281
 20
2.63211
 30
0.0
 40
0.0628889
 41
0.0628889
  0
VERTEX
  8
0
 10
26.1247
 20
2.64447
 30
0.0
 40
0.0628889
 41
0.0628889
  0
VERTEX
  8
0
 10
26.2986
 20
2.67817
 30
0.0
 40
0.0628889
 41
0.0628889
  0
VERTEX
  8
0
 10
26.4949
 20
2.72803
 30
0.0
 40
0.0628889
 41
0.0628889
  0
VERTEX
  8
0
 10
26.6422
 20
2.77219
 30
0.0
 40
0.0628889
 41
0.0628889
  0
VERTEX
  8
0
 10
26.6907
 20
2.78885
 30
0.0
 40
0.0628889
 41
0.0628889
  0
VERTEX
  8
0
 10
26.7168
 20
2.79785
 30
0.0
 40
0.0628889
 41
0.0628889
  0
VERTEX
  8
0
 10
26.7958
 20
2.82292
 30
0.0
 40
0.0628889
 41
0.0628889
  0
VERTEX
  8
0
 10
26.9204
 20
2.8596
 30
0.0
 40
0.0628889
 41
0.0628889
  0
VERTEX
  8
0
 10
27.0597
 20
2.89785
 30
0.0
 40
0.0628889
 41
0.0628889
  0
VERTEX
  8
0
 10
27.2092
 20
2.93642
 30
0.0
 40
0.0628889
 41
0.0628889
  0
VERTEX
  8
0
 10
27.3642
 20
2.97418
 30
0.0
 40
0.0628889
 41
0.0628889
  0
VERTEX
  8
0
 10
27.52
 20
3.00999
 30
0.0
 40
0.0628889
 41
0.0628889
  0
VERTEX
  8
0
 10
27.6722
 20
3.04269
 30
0.0
 40
0.0628889
 41
0.0628889
  0
VERTEX
  8
0
 10
27.78
 20
3.06435
 30
0.0
 40
0.0628889
 41
0.0628889
  0
VERTEX
  8
0
 10
27.8161
 20
3.07107
 30
0.0
 40
0.0628889
 41
0.0628889
  0
VERTEX
  8
0
 10
27.8669
 20
3.08062
 30
0.0
 40
0.0628889
 41
0.0628889
  0
VERTEX
  8
0
 10
28.02
 20
3.10851
 30
0.0
 40
0.0628889
 41
0.0628889
  0
VERTEX
  8
0
 10
28.1794
 20
3.13531
 30
0.0
 40
0.0628889
 41
0.0628889
  0
VERTEX
  8
0
 10
28.3008
 20
3.15142
 30
0.0
 40
0.0628889
 41
0.0628889
  0
VERTEX
  8
0
 10
28.3903
 20
3.15696
 30
0.0
 40
0.0628889
 41
0.0628889
  0
VERTEX
  8
0
 10
28.4542
 20
3.15186
 30
0.0
 40
0.0628889
 41
0.0628889
  0
VERTEX
  8
0
 10
28.4987
 20
3.13618
 30
0.0
 40
0.0628889
 41
0.0628889
  0
VERTEX
  8
0
 10
28.5303
 20
3.10992
 30
0.0
 40
0.0628889
 41
0.0628889
  0
VERTEX
  8
0
 10
28.5497
 20
3.08274
 30
0.0
 40
0.0628889
 41
0.0628889
  0
VERTEX
  8
0
 10
28.5551
 20
3.07308
 30
0.0
 40
0.0628889
 41
0.0628889
  0
VERTEX
  8
0
 10
28.5646
 20
3.0561
 30
0.0
 40
0.0628889
 41
0.0628889
  0
VERTEX
  8
0
 10
28.6111
 20
3.00819
 30
0.0
 40
0.0628889
 41
0.0628889
  0
VERTEX
  8
0
 10
28.7128
 20
2.92279
 30
0.0
 40
0.0628889
 41
0.0628889
  0
VERTEX
  8
0
 10
28.8453
 20
2.82796
 30
0.0
 40
0.0628889
 41
0.0628889
  0
VERTEX
  8
0
 10
28.9565
 20
2.75689
 30
0.0
 40
0.0628889
 41
0.0628889
  0
VERTEX
  8
0
 10
28.9946
 20
2.73481
 30
0.0
 40
0.0628889
 41
0.0628889
  0
VERTEX
  8
0
 10
29.0158
 20
2.7225
 30
0.0
 40
0.0628889
 41
0.0628889
  0
VERTEX
  8
0
 10
29.0793
 20
2.68506
 30
0.0
 40
0.0628889
 41
0.0628889
  0
VERTEX
  8
0
 10
29.1786
 20
2.62582
 30
0.0
 40
0.0628889
 41
0.0628889
  0
VERTEX
  8
0
 10
29.2889
 20
2.55935
 30
0.0
 40
0.0628889
 41
0.0628889
  0
VERTEX
  8
0
 10
29.4063
 20
2.48779
 30
0.0
 40
0.0628889
 41
0.0628889
  0
VERTEX
  8
0
 10
29.5272
 20
2.41342
 30
0.0
 40
0.0628889
 41
0.0628889
  0
VERTEX
  8
0
 10
29.6483
 20
2.33843
 30
0.0
 40
0.0628889
 41
0.0628889
  0
VERTEX
  8
0
 10
29.7657
 20
2.26503
 30
0.0
 40
0.0628889
 41
0.0628889
  0
VERTEX
  8
0
 10
29.8485
 20
2.21289
 30
0.0
 40
0.0628889
 41
0.0628889
  0
VERTEX
  8
0
 10
29.876
 20
2.19542
 30
0.0
 40
0.0628889
 41
0.0628889
  0
VERTEX
  8
0
 10
29.9026
 20
2.1785
 30
0.0
 40
0.0628889
 41
0.0628889
  0
VERTEX
  8
0
 10
29.9831
 20
2.12788
 30
0.0
 40
0.0628889
 41
0.0628889
  0
VERTEX
  8
0
 10
30.0862
 20
2.06369
 30
0.0
 40
0.0628889
 41
0.0628889
  0
VERTEX
  8
0
 10
30.1875
 20
2.00211
 30
0.0
 40
0.0628889
 41
0.0628889
  0
VERTEX
  8
0
 10
30.2885
 20
1.94217
 30
0.0
 40
0.0628889
 41
0.0628889
  0
VERTEX
  8
0
 10
30.3904
 20
1.88303
 30
0.0
 40
0.0628889
 41
0.0628889
  0
VERTEX
  8
0
 10
30.4956
 20
1.82374
 30
0.0
 40
0.0628889
 41
0.0628889
  0
VERTEX
  8
0
 10
30.6051
 20
1.7634
 30
0.0
 40
0.0628889
 41
0.0628889
  0
VERTEX
  8
0
 10
30.7211
 20
1.70122
 30
0.0
 40
0.0628889
 41
0.0628889
  0
VERTEX
  8
0
 10
30.845
 20
1.63618
 30
0.0
 40
0.0628889
 41
0.0628889
  0
VERTEX
  8
0
 10
30.9786
 20
1.56749
 30
0.0
 40
0.0628889
 41
0.0628889
  0
VERTEX
  8
0
 10
31.1235
 20
1.49425
 30
0.0
 40
0.0628889
 41
0.0628889
  0
VERTEX
  8
0
 10
31.2815
 20
1.41553
 30
0.0
 40
0.0628889
 41
0.0628889
  0
VERTEX
  8
0
 10
31.4542
 20
1.33046
 30
0.0
 40
0.0628889
 41
0.0628889
  0
VERTEX
  8
0
 10
31.6431
 20
1.23812
 30
0.0
 40
0.0628889
 41
0.0628889
  0
VERTEX
  8
0
 10
31.8501
 20
1.13764
 30
0.0
 40
0.0628889
 41
0.0628889
  0
VERTEX
  8
0
 10
32.0203
 20
1.05545
 30
0.0
 40
0.0628889
 41
0.0628889
  0
VERTEX
  8
0
 10
32.0769
 20
1.0281
 30
0.0
 40
0.0628889
 41
0.0628889
  0
VERTEX
  8
0
 10
32.1237
 20
1.00553
 30
0.0
 40
0.0628889
 41
0.0628889
  0
VERTEX
  8
0
 10
32.2642
 20
0.937337
 30
0.0
 40
0.0628889
 41
0.0628889
  0
VERTEX
  8
0
 10
32.4497
 20
0.846354
 30
0.0
 40
0.0628889
 41
0.0628889
  0
VERTEX
  8
0
 10
32.6288
 20
0.757596
 30
0.0
 40
0.0628889
 41
0.0628889
  0
VERTEX
  8
0
 10
32.7963
 20
0.673503
 30
0.0
 40
0.0628889
 41
0.0628889
  0
VERTEX
  8
0
 10
32.9476
 20
0.596463
 30
0.0
 40
0.0628889
 41
0.0628889
  0
VERTEX
  8
0
 10
33.0781
 20
0.529025
 30
0.0
 40
0.0628889
 41
0.0628889
  0
VERTEX
  8
0
 10
33.1825
 20
0.473525
 30
0.0
 40
0.0628889
 41
0.0628889
  0
VERTEX
  8
0
 10
33.2379
 20
0.443088
 30
0.0
 40
0.0628889
 41
0.0628889
  0
VERTEX
  8
0
 10
33.2562
 20
0.432454
 30
0.0
 40
0.0628889
 41
0.0628889
  0
VERTEX
  8
0
 10
33.2744
 20
0.421875
 30
0.0
 40
0.0628889
 41
0.0628889
  0
VERTEX
  8
0
 10
33.3304
 20
0.391818
 30
0.0
 40
0.0628889
 41
0.0628889
  0
VERTEX
  8
0
 10
33.4419
 20
0.333985
 30
0.0
 40
0.0628889
 41
0.0628889
  0
VERTEX
  8
0
 10
33.5851
 20
0.261774
 30
0.0
 40
0.0628889
 41
0.0628889
  0
VERTEX
  8
0
 10
33.7542
 20
0.177843
 30
0.0
 40
0.0628889
 41
0.0628889
  0
VERTEX
  8
0
 10
33.9435
 20
0.084961
 30
0.0
 40
0.0628889
 41
0.0628889
  0
VERTEX
  8
0
 10
34.1472
 20
-0.0141601
 30
0.0
 40
0.0628889
 41
0.0628889
  0
VERTEX
  8
0
 10
34.3599
 20
-0.116808
 30
0.0
 40
0.0628889
 41
0.0628889
  0
VERTEX
  8
0
 10
34.5756
 20
-0.220215
 30
0.0
 40
0.0628889
 41
0.0628889
  0
VERTEX
  8
0
 10
34.7886
 20
-0.321669
 30
0.0
 40
0.0628889
 41
0.0628889
  0
VERTEX
  8
0
 10
34.9933
 20
-0.418457
 30
0.0
 40
0.0628889
 41
0.0628889
  0
VERTEX
  8
0
 10
35.184
 20
-0.507813
 30
0.0
 40
0.0628889
 41
0.0628889
  0
VERTEX
  8
0
 10
35.355
 20
-0.587076
 30
0.0
 40
0.0628889
 41
0.0628889
  0
VERTEX
  8
0
 10
35.5004
 20
-0.653429
 30
0.0
 40
0.0628889
 41
0.0628889
  0
VERTEX
  8
0
 10
35.6147
 20
-0.70421
 30
0.0
 40
0.0628889
 41
0.0628889
  0
VERTEX
  8
0
 10
35.6922
 20
-0.736708
 30
0.0
 40
0.0628889
 41
0.0628889
  0
VERTEX
  8
0
 10
35.7183
 20
-0.748156
 30
0.0
 40
0.0628889
 41
0.0628889
  0
VERTEX
  8
0
 10
35.7271
 20
-0.748156
 30
0.0
 40
0.0628889
 41
0.0628889
  0
VERTEX
  8
0
 10
35.7322
 20
-0.748156
 30
0.0
 40
0.0628889
 41
0.0628889
  0
VERTEX
  8
0
 10
35.7479
 20
-0.754557
 30
0.0
 40
0.0628889
 41
0.0628889
  0
VERTEX
  8
0
 10
35.7942
 20
-0.772949
 30
0.0
 40
0.0628889
 41
0.0628889
  0
VERTEX
  8
0
 10
35.8629
 20
-0.802029
 30
0.0
 40
0.0628889
 41
0.0628889
  0
VERTEX
  8
0
 10
35.9511
 20
-0.840494
 30
0.0
 40
0.0628889
 41
0.0628889
  0
VERTEX
  8
0
 10
36.0557
 20
-0.887099
 30
0.0
 40
0.0628889
 41
0.0628889
  0
VERTEX
  8
0
 10
36.174
 20
-0.940483
 30
0.0
 40
0.0628889
 41
0.0628889
  0
VERTEX
  8
0
 10
36.3031
 20
-0.999403
 30
0.0
 40
0.0628889
 41
0.0628889
  0
VERTEX
  8
0
 10
36.4057
 20
-1.04671
 30
0.0
 40
0.0628889
 41
0.0628889
  0
VERTEX
  8
0
 10
36.44
 20
-1.06261
 30
0.0
 40
0.0628889
 41
0.0628889
  0
VERTEX
  8
0
 10
36.4742
 20
-1.0785
 30
0.0
 40
0.0628889
 41
0.0628889
  0
VERTEX
  8
0
 10
36.5775
 20
-1.12576
 30
0.0
 40
0.0628889
 41
0.0628889
  0
VERTEX
  8
0
 10
36.7086
 20
-1.18468
 30
0.0
 40
0.0628889
 41
0.0628889
  0
VERTEX
  8
0
 10
36.8304
 20
-1.23806
 30
0.0
 40
0.0628889
 41
0.0628889
  0
VERTEX
  8
0
 10
36.9394
 20
-1.28467
 30
0.0
 40
0.0628889
 41
0.0628889
  0
VERTEX
  8
0
 10
37.0331
 20
-1.32313
 30
0.0
 40
0.0628889
 41
0.0628889
  0
VERTEX
  8
0
 10
37.1079
 20
-1.35221
 30
0.0
 40
0.0628889
 41
0.0628889
  0
VERTEX
  8
0
 10
37.161
 20
-1.37061
 30
0.0
 40
0.0628889
 41
0.0628889
  0
VERTEX
  8
0
 10
37.1822
 20
-1.37706
 30
0.0
 40
0.0628889
 41
0.0628889
  0
VERTEX
  8
0
 10
37.1893
 20
-1.37706
 30
0.0
 40
0.0628889
 41
0.0628889
  0
VERTEX
  8
0
 10
37.2029
 20
-1.37706
 30
0.0
 40
0.0628889
 41
0.0628889
  0
VERTEX
  8
0
 10
37.2438
 20
-1.38911
 30
0.0
 40
0.0628889
 41
0.0628889
  0
VERTEX
  8
0
 10
37.3387
 20
-1.42193
 30
0.0
 40
0.0628889
 41
0.0628889
  0
VERTEX
  8
0
 10
37.4611
 20
-1.47049
 30
0.0
 40
0.0628889
 41
0.0628889
  0
VERTEX
  8
0
 10
37.5635
 20
-1.51443
 30
0.0
 40
0.0628889
 41
0.0628889
  0
VERTEX
  8
0
 10
37.5974
 20
-1.52983
 30
0.0
 40
0.0628889
 41
0.0628889
  0
VERTEX
  8
0
 10
37.6179
 20
-1.53922
 30
0.0
 40
0.0628889
 41
0.0628889
  0
VERTEX
  8
0
 10
37.68
 20
-1.56728
 30
0.0
 40
0.0628889
 41
0.0628889
  0
VERTEX
  8
0
 10
37.7868
 20
-1.61535
 30
0.0
 40
0.0628889
 41
0.0628889
  0
VERTEX
  8
0
 10
37.9129
 20
-1.67199
 30
0.0
 40
0.0628889
 41
0.0628889
  0
VERTEX
  8
0
 10
38.054
 20
-1.73519
 30
0.0
 40
0.0628889
 41
0.0628889
  0
VERTEX
  8
0
 10
38.2058
 20
-1.80306
 30
0.0
 40
0.0628889
 41
0.0628889
  0
VERTEX
  8
0
 10
38.3639
 20
-1.87354
 30
0.0
 40
0.0628889
 41
0.0628889
  0
VERTEX
  8
0
 10
38.5235
 20
-1.94467
 30
0.0
 40
0.0628889
 41
0.0628889
  0
VERTEX
  8
0
 10
38.6411
 20
-1.99701
 30
0.0
 40
0.0628889
 41
0.0628889
  0
VERTEX
  8
0
 10
38.6803
 20
-2.01449
 30
0.0
 40
0.0628889
 41
0.0628889
  0
VERTEX
  8
0
 10
38.7181
 20
-2.03125
 30
0.0
 40
0.0628889
 41
0.0628889
  0
VERTEX
  8
0
 10
38.8311
 20
-2.08225
 30
0.0
 40
0.0628889
 41
0.0628889
  0
VERTEX
  8
0
 10
38.9733
 20
-2.14779
 30
0.0
 40
0.0628889
 41
0.0628889
  0
VERTEX
  8
0
 10
39.1039
 20
-2.20936
 30
0.0
 40
0.0628889
 41
0.0628889
  0
VERTEX
  8
0
 10
39.2193
 20
-2.26551
 30
0.0
 40
0.0628889
 41
0.0628889
  0
VERTEX
  8
0
 10
39.3165
 20
-2.31451
 30
0.0
 40
0.0628889
 41
0.0628889
  0
VERTEX
  8
0
 10
39.3922
 20
-2.35482
 30
0.0
 40
0.0628889
 41
0.0628889
  0
VERTEX
  8
0
 10
39.4433
 20
-2.38487
 30
0.0
 40
0.0628889
 41
0.0628889
  0
VERTEX
  8
0
 10
39.4625
 20
-2.39729
 30
0.0
 40
0.0628889
 41
0.0628889
  0
VERTEX
  8
0
 10
39.4665
 20
-2.4031
 30
0.0
 40
0.0628889
 41
0.0628889
  0
VERTEX
  8
0
 10
39.4718
 20
-2.41086
 30
0.0
 40
0.0628889
 41
0.0628889
  0
VERTEX
  8
0
 10
39.5142
 20
-2.4235
 30
0.0
 40
0.0628889
 41
0.0628889
  0
VERTEX
  8
0
 10
39.6151
 20
-2.43722
 30
0.0
 40
0.0628889
 41
0.0628889
  0
VERTEX
  8
0
 10
39.7547
 20
-2.44303
 30
0.0
 40
0.0628889
 41
0.0628889
  0
VERTEX
  8
0
 10
39.8769
 20
-2.44162
 30
0.0
 40
0.0628889
 41
0.0628889
  0
VERTEX
  8
0
 10
39.9178
 20
-2.43967
 30
0.0
 40
0.0628889
 41
0.0628889
  0
VERTEX
  8
0
 10
39.9619
 20
-2.4375
 30
0.0
 40
0.0628889
 41
0.0628889
  0
VERTEX
  8
0
 10
40.0943
 20
-2.42378
 30
0.0
 40
0.0628889
 41
0.0628889
  0
VERTEX
  8
0
 10
40.2419
 20
-2.39556
 30
0.0
 40
0.0628889
 41
0.0628889
  0
VERTEX
  8
0
 10
40.361
 20
-2.35607
 30
0.0
 40
0.0628889
 41
0.0628889
  0
VERTEX
  8
0
 10
40.4518
 20
-2.30643
 30
0.0
 40
0.0628889
 41
0.0628889
  0
VERTEX
  8
0
 10
40.5149
 20
-2.24761
 30
0.0
 40
0.0628889
 41
0.0628889
  0
VERTEX
  8
0
 10
40.5504
 20
-2.18072
 30
0.0
 40
0.0628889
 41
0.0628889
  0
VERTEX
  8
0
 10
40.5592
 20
-2.10678
 30
0.0
 40
0.0628889
 41
0.0628889
  0
VERTEX
  8
0
 10
40.5411
 20
-2.02692
 30
0.0
 40
0.0628889
 41
0.0628889
  0
VERTEX
  8
0
 10
40.4969
 20
-1.94217
 30
0.0
 40
0.0628889
 41
0.0628889
  0
VERTEX
  8
0
 10
40.4271
 20
-1.85351
 30
0.0
 40
0.0628889
 41
0.0628889
  0
VERTEX
  8
0
 10
40.3317
 20
-1.76215
 30
0.0
 40
0.0628889
 41
0.0628889
  0
VERTEX
  8
0
 10
40.2112
 20
-1.66906
 30
0.0
 40
0.0628889
 41
0.0628889
  0
VERTEX
  8
0
 10
40.0664
 20
-1.57531
 30
0.0
 40
0.0628889
 41
0.0628889
  0
VERTEX
  8
0
 10
39.8972
 20
-1.48193
 30
0.0
 40
0.0628889
 41
0.0628889
  0
VERTEX
  8
0
 10
39.7043
 20
-1.39003
 30
0.0
 40
0.0628889
 41
0.0628889
  0
VERTEX
  8
0
 10
39.5425
 20
-1.32167
 30
0.0
 40
0.0628889
 41
0.0628889
  0
VERTEX
  8
0
 10
39.4879
 20
-1.30067
 30
0.0
 40
0.0628889
 41
0.0628889
  0
VERTEX
  8
0
 10
39.4439
 20
-1.28369
 30
0.0
 40
0.0628889
 41
0.0628889
  0
VERTEX
  8
0
 10
39.3117
 20
-1.23258
 30
0.0
 40
0.0628889
 41
0.0628889
  0
VERTEX
  8
0
 10
39.1649
 20
-1.17524
 30
0.0
 40
0.0628889
 41
0.0628889
  0
VERTEX
  8
0
 10
39.0363
 20
-1.12408
 30
0.0
 40
0.0628889
 41
0.0628889
  0
VERTEX
  8
0
 10
38.9151
 20
-1.07449
 30
0.0
 40
0.0628889
 41
0.0628889
  0
VERTEX
  8
0
 10
38.7901
 20
-1.02181
 30
0.0
 40
0.0628889
 41
0.0628889
  0
VERTEX
  8
0
 10
38.6503
 20
-0.961481
 30
0.0
 40
0.0628889
 41
0.0628889
  0
VERTEX
  8
0
 10
38.4846
 20
-0.888943
 30
0.0
 40
0.0628889
 41
0.0628889
  0
VERTEX
  8
0
 10
38.3324
 20
-0.821886
 30
0.0
 40
0.0628889
 41
0.0628889
  0
VERTEX
  8
0
 10
38.2818
 20
-0.799533
 30
0.0
 40
0.0628889
 41
0.0628889
  0
VERTEX
  8
0
 10
38.2286
 20
-0.776042
 30
0.0
 40
0.0628889
 41
0.0628889
  0
VERTEX
  8
0
 10
38.0669
 20
-0.711046
 30
0.0
 40
0.0628889
 41
0.0628889
  0
VERTEX
  8
0
 10
37.8058
 20
-0.613226
 30
0.0
 40
0.0628889
 41
0.0628889
  0
VERTEX
  8
0
 10
37.5313
 20
-0.517904
 30
0.0
 40
0.0628889
 41
0.0628889
  0
VERTEX
  8
0
 10
37.3404
 20
-0.456054
 30
0.0
 40
0.0628889
 41
0.0628889
  0
VERTEX
  8
0
 10
37.2762
 20
-0.437011
 30
0.0
 40
0.0628889
 41
0.0628889
  0
VERTEX
  8
0
 10
37.2186
 20
-0.419814
 30
0.0
 40
0.0628889
 41
0.0628889
  0
VERTEX
  8
0
 10
37.0481
 20
-0.360135
 30
0.0
 40
0.0628889
 41
0.0628889
  0
VERTEX
  8
0
 10
36.8504
 20
-0.274414
 30
0.0
 40
0.0628889
 41
0.0628889
  0
VERTEX
  8
0
 10
36.6829
 20
-0.17909
 30
0.0
 40
0.0628889
 41
0.0628889
  0
VERTEX
  8
0
 10
36.5446
 20
-0.0735678
 30
0.0
 40
0.0628889
 41
0.0628889
  0
VERTEX
  8
0
 10
36.4346
 20
0.0429144
 30
0.0
 40
0.0628889
 41
0.0628889
  0
VERTEX
  8
0
 10
36.3524
 20
0.171061
 30
0.0
 40
0.0628889
 41
0.0628889
  0
VERTEX
  8
0
 10
36.2969
 20
0.311469
 30
0.0
 40
0.0628889
 41
0.0628889
  0
VERTEX
  8
0
 10
36.2718
 20
0.426215
 30
0.0
 40
0.0628889
 41
0.0628889
  0
VERTEX
  8
0
 10
36.2678
 20
0.464899
 30
0.0
 40
0.0628889
 41
0.0628889
  0
VERTEX
  8
0
 10
36.2644
 20
0.497179
 30
0.0
 40
0.0628889
 41
0.0628889
  0
VERTEX
  8
0
 10
36.2469
 20
0.593099
 30
0.0
 40
0.0628889
 41
0.0628889
  0
VERTEX
  8
0
 10
36.2104
 20
0.743218
 30
0.0
 40
0.0628889
 41
0.0628889
  0
VERTEX
  8
0
 10
36.1636
 20
0.896593
 30
0.0
 40
0.0628889
 41
0.0628889
  0
VERTEX
  8
0
 10
36.1258
 20
1.00071
 30
0.0
 40
0.0628889
 41
0.0628889
  0
VERTEX
  8
0
 10
36.1114
 20
1.03451
 30
0.0
 40
0.0628889
 41
0.0628889
  0
VERTEX
  8
0
 10
36.0968
 20
1.06836
 30
0.0
 40
0.0628889
 41
0.0628889
  0
VERTEX
  8
0
 10
36.0628
 20
1.17383
 30
0.0
 40
0.0628889
 41
0.0628889
  0
VERTEX
  8
0
 10
36.0257
 20
1.33095
 30
0.0
 40
0.0628889
 41
0.0628889
  0
VERTEX
  8
0
 10
36.0036
 20
1.48665
 30
0.0
 40
0.0628889
 41
0.0628889
  0
VERTEX
  8
0
 10
35.9983
 20
1.58806
 30
0.0
 40
0.0628889
 41
0.0628889
  0
VERTEX
  8
0
 10
36.0006
 20
1.62158
 30
0.0
 40
0.0628889
 41
0.0628889
  0
VERTEX
  8
0
 10
36.0026
 20
1.65713
 30
0.0
 40
0.0628889
 41
0.0628889
  0
VERTEX
  8
0
 10
36.0006
 20
1.76421
 30
0.0
 40
0.0628889
 41
0.0628889
  0
VERTEX
  8
0
 10
35.9778
 20
1.87235
 30
0.0
 40
0.0628889
 41
0.0628889
  0
VERTEX
  8
0
 10
35.9279
 20
1.95671
 30
0.0
 40
0.0628889
 41
0.0628889
  0
VERTEX
  8
0
 10
35.869
 20
2.01269
 30
0.0
 40
0.0628889
 41
0.0628889
  0
VERTEX
  8
0
 10
35.8472
 20
2.028
 30
0.0
 40
0.0628889
 41
0.0628889
  0
VERTEX
  8
0
 10
35.8301
 20
2.03993
 30
0.0
 40
0.0628889
 41
0.0628889
  0
VERTEX
  8
0
 10
35.7837
 20
2.08242
 30
0.0
 40
0.0628889
 41
0.0628889
  0
VERTEX
  8
0
 10
35.7414
 20
2.1396
 30
0.0
 40
0.0628889
 41
0.0628889
  0
VERTEX
  8
0
 10
35.7231
 20
2.19368
 30
0.0
 40
0.0628889
 41
0.0628889
  0
VERTEX
  8
0
 10
35.7267
 20
2.22965
 30
0.0
 40
0.0628889
 41
0.0628889
  0
VERTEX
  8
0
 10
35.7324
 20
2.23882
 30
0.0
 40
0.0628889
 41
0.0628889
  0
VERTEX
  8
0
 10
35.74
 20
2.25136
 30
0.0
 40
0.0628889
 41
0.0628889
  0
VERTEX
  8
0
 10
35.7561
 20
2.31961
 30
0.0
 40
0.0628889
 41
0.0628889
  0
VERTEX
  8
0
 10
35.7796
 20
2.47228
 30
0.0
 40
0.0628889
 41
0.0628889
  0
VERTEX
  8
0
 10
35.7999
 20
2.67497
 30
0.0
 40
0.0628889
 41
0.0628889
  0
VERTEX
  8
0
 10
35.8117
 20
2.84804
 30
0.0
 40
0.0628889
 41
0.0628889
  0
VERTEX
  8
0
 10
35.8143
 20
2.90576
 30
0.0
 40
0.0628889
 41
0.0628889
  0
VERTEX
  8
0
 10
35.8161
 20
2.94738
 30
0.0
 40
0.0628889
 41
0.0628889
  0
VERTEX
  8
0
 10
35.8204
 20
3.07226
 30
0.0
 40
0.0628889
 41
0.0628889
  0
VERTEX
  8
0
 10
35.8219
 20
3.20747
 30
0.0
 40
0.0628889
 41
0.0628889
  0
VERTEX
  8
0
 10
35.8179
 20
3.31597
 30
0.0
 40
0.0628889
 41
0.0628889
  0
VERTEX
  8
0
 10
35.8078
 20
3.4024
 30
0.0
 40
0.0628889
 41
0.0628889
  0
VERTEX
  8
0
 10
35.7906
 20
3.47136
 30
0.0
 40
0.0628889
 41
0.0628889
  0
VERTEX
  8
0
 10
35.7653
 20
3.52746
 30
0.0
 40
0.0628889
 41
0.0628889
  0
VERTEX
  8
0
 10
35.7314
 20
3.57525
 30
0.0
 40
0.0628889
 41
0.0628889
  0
VERTEX
  8
0
 10
35.6994
 20
3.60906
 30
0.0
 40
0.0628889
 41
0.0628889
  0
VERTEX
  8
0
 10
35.6881
 20
3.61942
 30
0.0
 40
0.0628889
 41
0.0628889
  0
VERTEX
  8
0
 10
35.6714
 20
3.6345
 30
0.0
 40
0.0628889
 41
0.0628889
  0
VERTEX
  8
0
 10
35.6289
 20
3.68782
 30
0.0
 40
0.0628889
 41
0.0628889
  0
VERTEX
  8
0
 10
35.5806
 20
3.77229
 30
0.0
 40
0.0628889
 41
0.0628889
  0
VERTEX
  8
0
 10
35.5479
 20
3.86214
 30
0.0
 40
0.0628889
 41
0.0628889
  0
VERTEX
  8
0
 10
35.536
 20
3.92546
 30
0.0
 40
0.0628889
 41
0.0628889
  0
VERTEX
  8
0
 10
35.536
 20
3.94656
 30
0.0
 40
0.0628889
 41
0.0628889
  0
VERTEX
  8
0
 10
35.536
 20
3.97293
 30
0.0
 40
0.0628889
 41
0.0628889
  0
VERTEX
  8
0
 10
35.5293
 20
4.05203
 30
0.0
 40
0.0628889
 41
0.0628889
  0
VERTEX
  8
0
 10
35.5103
 20
4.14751
 30
0.0
 40
0.0628889
 41
0.0628889
  0
VERTEX
  8
0
 10
35.4797
 20
4.23172
 30
0.0
 40
0.0628889
 41
0.0628889
  0
VERTEX
  8
0
 10
35.4385
 20
4.30344
 30
0.0
 40
0.0628889
 41
0.0628889
  0
VERTEX
  8
0
 10
35.3872
 20
4.36139
 30
0.0
 40
0.0628889
 41
0.0628889
  0
VERTEX
  8
0
 10
35.3272
 20
4.40435
 30
0.0
 40
0.0628889
 41
0.0628889
  0
VERTEX
  8
0
 10
35.2592
 20
4.43099
 30
0.0
 40
0.0628889
 41
0.0628889
  0
VERTEX
  8
0
 10
35.2028
 20
4.44015
 30
0.0
 40
0.0628889
 41
0.0628889
  0
VERTEX
  8
0
 10
35.184
 20
4.44015
 30
0.0
 40
0.0628889
 41
0.0628889
  0
VERTEX
  8
0
 10
35.1647
 20
4.44015
 30
0.0
 40
0.0628889
 41
0.0628889
  0
VERTEX
  8
0
 10
35.1067
 20
4.4464
 30
0.0
 40
0.0628889
 41
0.0628889
  0
VERTEX
  8
0
 10
35.0363
 20
4.46326
 30
0.0
 40
0.0628889
 41
0.0628889
  0
VERTEX
  8
0
 10
34.9801
 20
4.48828
 30
0.0
 40
0.0628889
 41
0.0628889
  0
VERTEX
  8
0
 10
34.9521
 20
4.5095
 30
0.0
 40
0.0628889
 41
0.0628889
  0
VERTEX
  8
0
 10
34.9464
 20
4.51878
 30
0.0
 40
0.0628889
 41
0.0628889
  0
VERTEX
  8
0
 10
34.9428
 20
4.52458
 30
0.0
 40
0.0628889
 41
0.0628889
  0
VERTEX
  8
0
 10
34.9464
 20
4.55078
 30
0.0
 40
0.0628889
 41
0.0628889
  0
VERTEX
  8
0
 10
34.9871
 20
4.57557
 30
0.0
 40
0.0628889
 41
0.0628889
  0
VERTEX
  8
0
 10
35.0633
 20
4.59169
 30
0.0
 40
0.0628889
 41
0.0628889
  0
VERTEX
  8
0
 10
35.144
 20
4.59739
 30
0.0
 40
0.0628889
 41
0.0628889
  0
VERTEX
  8
0
 10
35.171
 20
4.59739
 30
0.0
 40
0.0628889
 41
0.0628889
  0
VERTEX
  8
0
 10
35.1979
 20
4.59739
 30
0.0
 40
0.0628889
 41
0.0628889
  0
VERTEX
  8
0
 10
35.2792
 20
4.60374
 30
0.0
 40
0.0628889
 41
0.0628889
  0
VERTEX
  8
0
 10
35.3718
 20
4.62099
 30
0.0
 40
0.0628889
 41
0.0628889
  0
VERTEX
  8
0
 10
35.439
 20
4.64654
 30
0.0
 40
0.0628889
 41
0.0628889
  0
VERTEX
  8
0
 10
35.4678
 20
4.66835
 30
0.0
 40
0.0628889
 41
0.0628889
  0
VERTEX
  8
0
 10
35.471
 20
4.67774
 30
0.0
 40
0.0628889
 41
0.0628889
  0
VERTEX
  8
0
 10
35.4756
 20
4.69151
 30
0.0
 40
0.0628889
 41
0.0628889
  0
VERTEX
  8
0
 10
35.519
 20
4.72293
 30
0.0
 40
0.0628889
 41
0.0628889
  0
VERTEX
  8
0
 10
35.6229
 20
4.76367
 30
0.0
 40
0.0628889
 41
0.0628889
  0
VERTEX
  8
0
 10
35.7697
 20
4.79829
 30
0.0
 40
0.0628889
 41
0.0628889
  0
VERTEX
  8
0
 10
35.946
 20
4.82519
 30
0.0
 40
0.0628889
 41
0.0628889
  0
VERTEX
  8
0
 10
36.1386
 20
4.84289
 30
0.0
 40
0.0628889
 41
0.0628889
  0
VERTEX
  8
0
 10
36.3344
 20
4.84967
 30
0.0
 40
0.0628889
 41
0.0628889
  0
VERTEX
  8
0
 10
36.5201
 20
4.84397
 30
0.0
 40
0.0628889
 41
0.0628889
  0
VERTEX
  8
0
 10
36.6424
 20
4.83165
 30
0.0
 40
0.0628889
 41
0.0628889
  0
VERTEX
  8
0
 10
36.6825
 20
4.82417
 30
0.0
 40
0.0628889
 41
0.0628889
  0
VERTEX
  8
0
 10
36.7042
 20
4.82015
 30
0.0
 40
0.0628889
 41
0.0628889
  0
VERTEX
  8
0
 10
36.7701
 20
4.81104
 30
0.0
 40
0.0628889
 41
0.0628889
  0
VERTEX
  8
0
 10
36.8853
 20
4.79889
 30
0.0
 40
0.0628889
 41
0.0628889
  0
VERTEX
  8
0
 10
37.0229
 20
4.78797
 30
0.0
 40
0.0628889
 41
0.0628889
  0
VERTEX
  8
0
 10
37.1781
 20
4.77854
 30
0.0
 40
0.0628889
 41
0.0628889
  0
VERTEX
  8
0
 10
37.346
 20
4.77089
 30
0.0
 40
0.0628889
 41
0.0628889
  0
VERTEX
  8
0
 10
37.5217
 20
4.76519
 30
0.0
 40
0.0628889
 41
0.0628889
  0
VERTEX
  8
0
 10
37.7001
 20
4.76178
 30
0.0
 40
0.0628889
 41
0.0628889
  0
VERTEX
  8
0
 10
37.8325
 20
4.76079
 30
0.0
 40
0.0628889
 41
0.0628889
  0
VERTEX
  8
0
 10
37.8767
 20
4.7609
 30
0.0
 40
0.0628889
 41
0.0628889
  0
VERTEX
  8
0
 10
37.9235
 20
4.76107
 30
0.0
 40
0.0628889
 41
0.0628889
  0
VERTEX
  8
0
 10
38.064
 20
4.76064
 30
0.0
 40
0.0628889
 41
0.0628889
  0
VERTEX
  8
0
 10
38.2737
 20
4.7589
 30
0.0
 40
0.0628889
 41
0.0628889
  0
VERTEX
  8
0
 10
38.4987
 20
4.75592
 30
0.0
 40
0.0628889
 41
0.0628889
  0
VERTEX
  8
0
 10
38.7318
 20
4.75179
 30
0.0
 40
0.0628889
 41
0.0628889
  0
VERTEX
  8
0
 10
38.966
 20
4.74664
 30
0.0
 40
0.0628889
 41
0.0628889
  0
VERTEX
  8
0
 10
39.194
 20
4.74061
 30
0.0
 40
0.0628889
 41
0.0628889
  0
VERTEX
  8
0
 10
39.4092
 20
4.73389
 30
0.0
 40
0.0628889
 41
0.0628889
  0
VERTEX
  8
0
 10
39.5553
 20
4.72857
 30
0.0
 40
0.0628889
 41
0.0628889
  0
VERTEX
  8
0
 10
39.604
 20
4.72657
 30
0.0
 40
0.0628889
 41
0.0628889
  0
VERTEX
  8
0
 10
39.6483
 20
4.72478
 30
0.0
 40
0.0628889
 41
0.0628889
  0
VERTEX
  8
0
 10
39.7817
 20
4.72026
 30
0.0
 40
0.0628889
 41
0.0628889
  0
VERTEX
  8
0
 10
39.9474
 20
4.71647
 30
0.0
 40
0.0628889
 41
0.0628889
  0
VERTEX
  8
0
 10
40.0976
 20
4.715
 30
0.0
 40
0.0628889
 41
0.0628889
  0
VERTEX
  8
0
 10
40.2286
 20
4.71593
 30
0.0
 40
0.0628889
 41
0.0628889
  0
VERTEX
  8
0
 10
40.3368
 20
4.71918
 30
0.0
 40
0.0628889
 41
0.0628889
  0
VERTEX
  8
0
 10
40.4186
 20
4.72461
 30
0.0
 40
0.0628889
 41
0.0628889
  0
VERTEX
  8
0
 10
40.4704
 20
4.73221
 30
0.0
 40
0.0628889
 41
0.0628889
  0
VERTEX
  8
0
 10
40.4885
 20
4.73953
 30
0.0
 40
0.0628889
 41
0.0628889
  0
VERTEX
  8
0
 10
40.4885
 20
4.74192
 30
0.0
 40
0.0628889
 41
0.0628889
  0
VERTEX
  8
0
 10
40.4885
 20
4.74724
 30
0.0
 40
0.0628889
 41
0.0628889
  0
VERTEX
  8
0
 10
40.5047
 20
4.76307
 30
0.0
 40
0.0628889
 41
0.0628889
  0
VERTEX
  8
0
 10
40.5492
 20
4.78217
 30
0.0
 40
0.0628889
 41
0.0628889
  0
VERTEX
  8
0
 10
40.615
 20
4.79715
 30
0.0
 40
0.0628889
 41
0.0628889
  0
VERTEX
  8
0
 10
40.6751
 20
4.80474
 30
0.0
 40
0.0628889
 41
0.0628889
  0
VERTEX
  8
0
 10
40.6953
 20
4.80588
 30
0.0
 40
0.0628889
 41
0.0628889
  0
VERTEX
  8
0
 10
40.7165
 20
4.80713
 30
0.0
 40
0.0628889
 41
0.0628889
  0
VERTEX
  8
0
 10
40.7799
 20
4.81754
 30
0.0
 40
0.0628889
 41
0.0628889
  0
VERTEX
  8
0
 10
40.8574
 20
4.8405
 30
0.0
 40
0.0628889
 41
0.0628889
  0
VERTEX
  8
0
 10
40.9193
 20
4.87136
 30
0.0
 40
0.0628889
 41
0.0628889
  0
VERTEX
  8
0
 10
40.9504
 20
4.89621
 30
0.0
 40
0.0628889
 41
0.0628889
  0
VERTEX
  8
0
 10
40.9569
 20
4.90679
 30
0.0
 40
0.0628889
 41
0.0628889
  0
VERTEX
  8
0
 10
40.9625
 20
4.91585
 30
0.0
 40
0.0628889
 41
0.0628889
  0
VERTEX
  8
0
 10
40.9881
 20
4.93761
 30
0.0
 40
0.0628889
 41
0.0628889
  0
VERTEX
  8
0
 10
41.0319
 20
4.95574
 30
0.0
 40
0.0628889
 41
0.0628889
  0
VERTEX
  8
0
 10
41.0831
 20
4.95979
 30
0.0
 40
0.0628889
 41
0.0628889
  0
VERTEX
  8
0
 10
41.1229
 20
4.95318
 30
0.0
 40
0.0628889
 41
0.0628889
  0
VERTEX
  8
0
 10
41.1353
 20
4.94846
 30
0.0
 40
0.0628889
 41
0.0628889
  0
VERTEX
  8
0
 10
41.1475
 20
4.94374
 30
0.0
 40
0.0628889
 41
0.0628889
  0
VERTEX
  8
0
 10
41.1872
 20
4.93674
 30
0.0
 40
0.0628889
 41
0.0628889
  0
VERTEX
  8
0
 10
41.2376
 20
4.93972
 30
0.0
 40
0.0628889
 41
0.0628889
  0
VERTEX
  8
0
 10
41.2806
 20
4.95628
 30
0.0
 40
0.0628889
 41
0.0628889
  0
VERTEX
  8
0
 10
41.3051
 20
4.97657
 30
0.0
 40
0.0628889
 41
0.0628889
  0
VERTEX
  8
0
 10
41.3106
 20
4.98508
 30
0.0
 40
0.0628889
 41
0.0628889
  0
VERTEX
  8
0
 10
41.3163
 20
4.99442
 30
0.0
 40
0.0628889
 41
0.0628889
  0
VERTEX
  8
0
 10
41.3411
 20
5.01774
 30
0.0
 40
0.0628889
 41
0.0628889
  0
VERTEX
  8
0
 10
41.3861
 20
5.04454
 30
0.0
 40
0.0628889
 41
0.0628889
  0
VERTEX
  8
0
 10
41.4396
 20
5.06278
 30
0.0
 40
0.0628889
 41
0.0628889
  0
VERTEX
  8
0
 10
41.4814
 20
5.06956
 30
0.0
 40
0.0628889
 41
0.0628889
  0
VERTEX
  8
0
 10
41.4953
 20
5.06956
 30
0.0
 40
0.0628889
 41
0.0628889
  0
VERTEX
  8
0
 10
41.5126
 20
5.06961
 30
0.0
 40
0.0628889
 41
0.0628889
  0
VERTEX
  8
0
 10
41.5647
 20
5.079
 30
0.0
 40
0.0628889
 41
0.0628889
  0
VERTEX
  8
0
 10
41.6553
 20
5.10439
 30
0.0
 40
0.0628889
 41
0.0628889
  0
VERTEX
  8
0
 10
41.7554
 20
5.14182
 30
0.0
 40
0.0628889
 41
0.0628889
  0
VERTEX
  8
0
 10
41.8294
 20
5.17503
 30
0.0
 40
0.0628889
 41
0.0628889
  0
VERTEX
  8
0
 10
41.8535
 20
5.18744
 30
0.0
 40
0.0628889
 41
0.0628889
  0
VERTEX
  8
0
 10
41.8767
 20
5.1996
 30
0.0
 40
0.0628889
 41
0.0628889
  0
VERTEX
  8
0
 10
41.9479
 20
5.23313
 30
0.0
 40
0.0628889
 41
0.0628889
  0
VERTEX
  8
0
 10
42.0386
 20
5.27061
 30
0.0
 40
0.0628889
 41
0.0628889
  0
VERTEX
  8
0
 10
42.1154
 20
5.29601
 30
0.0
 40
0.0628889
 41
0.0628889
  0
VERTEX
  8
0
 10
42.1556
 20
5.30544
 30
0.0
 40
0.0628889
 41
0.0628889
  0
VERTEX
  8
0
 10
42.1679
 20
5.3055
 30
0.0
 40
0.0628889
 41
0.0628889
  0
VERTEX
  8
0
 10
42.179
 20
5.30561
 30
0.0
 40
0.0628889
 41
0.0628889
  0
VERTEX
  8
0
 10
42.2122
 20
5.32194
 30
0.0
 40
0.0628889
 41
0.0628889
  0
VERTEX
  8
0
 10
42.2597
 20
5.36669
 30
0.0
 40
0.0628889
 41
0.0628889
  0
VERTEX
  8
0
 10
42.3075
 20
5.43397
 30
0.0
 40
0.0628889
 41
0.0628889
  0
VERTEX
  8
0
 10
42.3528
 20
5.51801
 30
0.0
 40
0.0628889
 41
0.0628889
  0
VERTEX
  8
0
 10
42.3928
 20
5.61307
 30
0.0
 40
0.0628889
 41
0.0628889
  0
VERTEX
  8
0
 10
42.4247
 20
5.71322
 30
0.0
 40
0.0628889
 41
0.0628889
  0
VERTEX
  8
0
 10
42.446
 20
5.81272
 30
0.0
 40
0.0628889
 41
0.0628889
  0
VERTEX
  8
0
 10
42.4536
 20
5.88254
 30
0.0
 40
0.0628889
 41
0.0628889
  0
VERTEX
  8
0
 10
42.4536
 20
5.90576
 30
0.0
 40
0.0628889
 41
0.0628889
  0
VERTEX
  8
0
 10
42.4536
 20
5.92697
 30
0.0
 40
0.0628889
 41
0.0628889
  0
VERTEX
  8
0
 10
42.4397
 20
5.99056
 30
0.0
 40
0.0628889
 41
0.0628889
  0
VERTEX
  8
0
 10
42.4017
 20
6.09082
 30
0.0
 40
0.0628889
 41
0.0628889
  0
VERTEX
  8
0
 10
42.3454
 20
6.19417
 30
0.0
 40
0.0628889
 41
0.0628889
  0
VERTEX
  8
0
 10
42.2957
 20
6.266
 30
0.0
 40
0.0628889
 41
0.0628889
  0
VERTEX
  8
0
 10
42.2768
 20
6.28792
 30
0.0
 40
0.0628889
 41
0.0628889
  0
VERTEX
  8
0
 10
42.2631
 20
6.30388
 30
0.0
 40
0.0628889
 41
0.0628889
  0
VERTEX
  8
0
 10
42.2207
 20
6.35081
 30
0.0
 40
0.0628889
 41
0.0628889
  0
VERTEX
  8
0
 10
42.1719
 20
6.39794
 30
0.0
 40
0.0628889
 41
0.0628889
  0
VERTEX
  8
0
 10
42.126
 20
6.43056
 30
0.0
 40
0.0628889
 41
0.0628889
  0
VERTEX
  8
0
 10
42.0786
 20
6.44971
 30
0.0
 40
0.0628889
 41
0.0628889
  0
VERTEX
  8
0
 10
42.0251
 20
6.45654
 30
0.0
 40
0.0628889
 41
0.0628889
  0
VERTEX
  8
0
 10
41.9614
 20
6.45226
 30
0.0
 40
0.0628889
 41
0.0628889
  0
VERTEX
  8
0
 10
41.8829
 20
6.43793
 30
0.0
 40
0.0628889
 41
0.0628889
  0
VERTEX
  8
0
 10
41.8097
 20
6.42085
 30
0.0
 40
0.0628889
 41
0.0628889
  0
VERTEX
  8
0
 10
41.7854
 20
6.41471
 30
0.0
 40
0.0628889
 41
0.0628889
  0
VERTEX
  8
0
 10
41.7428
 20
6.40403
 30
0.0
 40
0.0628889
 41
0.0628889
  0
VERTEX
  8
0
 10
41.6157
 20
6.36985
 30
0.0
 40
0.0628889
 41
0.0628889
  0
VERTEX
  8
0
 10
41.4342
 20
6.31787
 30
0.0
 40
0.0628889
 41
0.0628889
  0
VERTEX
  8
0
 10
41.2489
 20
6.26144
 30
0.0
 40
0.0628889
 41
0.0628889
  0
VERTEX
  8
0
 10
41.0678
 20
6.20324
 30
0.0
 40
0.0628889
 41
0.0628889
  0
VERTEX
  8
0
 10
40.8992
 20
6.14594
 30
0.0
 40
0.0628889
 41
0.0628889
  0
VERTEX
  8
0
 10
40.7507
 20
6.09218
 30
0.0
 40
0.0628889
 41
0.0628889
  0
VERTEX
  8
0
 10
40.6308
 20
6.0446
 30
0.0
 40
0.0628889
 41
0.0628889
  0
VERTEX
  8
0
 10
40.5676
 20
6.01671
 30
0.0
 40
0.0628889
 41
0.0628889
  0
VERTEX
  8
0
 10
40.5474
 20
6.00586
 30
0.0
 40
0.0628889
 41
0.0628889
  0
VERTEX
  8
0
 10
40.5332
 20
5.99837
 30
0.0
 40
0.0628889
 41
0.0628889
  0
VERTEX
  8
0
 10
40.4889
 20
5.97987
 30
0.0
 40
0.0628889
 41
0.0628889
  0
VERTEX
  8
0
 10
40.4457
 20
5.97185
 30
0.0
 40
0.0628889
 41
0.0628889
  0
VERTEX
  8
0
 10
40.4189
 20
5.98188
 30
0.0
 40
0.0628889
 41
0.0628889
  0
VERTEX
  8
0
 10
40.4097
 20
6.00282
 30
0.0
 40
0.0628889
 41
0.0628889
  0
VERTEX
  8
0
 10
40.4097
 20
6.00976
 30
0.0
 40
0.0628889
 41
0.0628889
  0
VERTEX
  8
0
 10
40.4097
 20
6.0166
 30
0.0
 40
0.0628889
 41
0.0628889
  0
VERTEX
  8
0
 10
40.3953
 20
6.03711
 30
0.0
 40
0.0628889
 41
0.0628889
  0
VERTEX
  8
0
 10
40.3533
 20
6.04519
 30
0.0
 40
0.0628889
 41
0.0628889
  0
VERTEX
  8
0
 10
40.2854
 20
6.03407
 30
0.0
 40
0.0628889
 41
0.0628889
  0
VERTEX
  8
0
 10
40.2161
 20
6.01253
 30
0.0
 40
0.0628889
 41
0.0628889
  0
VERTEX
  8
0
 10
40.1936
 20
6.00385
 30
0.0
 40
0.0628889
 41
0.0628889
  0
VERTEX
  8
0
 10
40.1372
 20
5.98215
 30
0.0
 40
0.0628889
 41
0.0628889
  0
VERTEX
  8
0
 10
39.9644
 20
5.9266
 30
0.0
 40
0.0628889
 41
0.0628889
  0
VERTEX
  8
0
 10
39.7074
 20
5.86068
 30
0.0
 40
0.0628889
 41
0.0628889
  0
VERTEX
  8
0
 10
39.4208
 20
5.80593
 30
0.0
 40
0.0628889
 41
0.0628889
  0
VERTEX
  8
0
 10
39.1036
 20
5.76226
 30
0.0
 40
0.0628889
 41
0.0628889
  0
VERTEX
  8
0
 10
38.7544
 20
5.72954
 30
0.0
 40
0.0628889
 41
0.0628889
  0
VERTEX
  8
0
 10
38.3718
 20
5.70751
 30
0.0
 40
0.0628889
 41
0.0628889
  0
VERTEX
  8
0
 10
37.9546
 20
5.69613
 30
0.0
 40
0.0628889
 41
0.0628889
  0
VERTEX
  8
0
 10
37.6144
 20
5.69412
 30
0.0
 40
0.0628889
 41
0.0628889
  0
VERTEX
  8
0
 10
37.5013
 20
5.6951
 30
0.0
 40
0.0628889
 41
0.0628889
  0
VERTEX
  8
0
 10
37.4394
 20
5.69564
 30
0.0
 40
0.0628889
 41
0.0628889
  0
VERTEX
  8
0
 10
37.2544
 20
5.69738
 30
0.0
 40
0.0628889
 41
0.0628889
  0
VERTEX
  8
0
 10
37.036
 20
5.69954
 30
0.0
 40
0.0628889
 41
0.0628889
  0
VERTEX
  8
0
 10
36.8418
 20
5.70199
 30
0.0
 40
0.0628889
 41
0.0628889
  0
VERTEX
  8
0
 10
36.6682
 20
5.70475
 30
0.0
 40
0.0628889
 41
0.0628889
  0
VERTEX
  8
0
 10
36.5115
 20
5.70817
 30
0.0
 40
0.0628889
 41
0.0628889
  0
VERTEX
  8
0
 10
36.3679
 20
5.7124
 30
0.0
 40
0.0628889
 41
0.0628889
  0
VERTEX
  8
0
 10
36.2338
 20
5.71767
 30
0.0
 40
0.0628889
 41
0.0628889
  0
VERTEX
  8
0
 10
36.1051
 20
5.72418
 30
0.0
 40
0.0628889
 41
0.0628889
  0
VERTEX
  8
0
 10
35.9783
 20
5.73215
 30
0.0
 40
0.0628889
 41
0.0628889
  0
VERTEX
  8
0
 10
35.8497
 20
5.74181
 30
0.0
 40
0.0628889
 41
0.0628889
  0
VERTEX
  8
0
 10
35.7154
 20
5.75336
 30
0.0
 40
0.0628889
 41
0.0628889
  0
VERTEX
  8
0
 10
35.5718
 20
5.76699
 30
0.0
 40
0.0628889
 41
0.0628889
  0
VERTEX
  8
0
 10
35.415
 20
5.78293
 30
0.0
 40
0.0628889
 41
0.0628889
  0
VERTEX
  8
0
 10
35.2414
 20
5.80143
 30
0.0
 40
0.0628889
 41
0.0628889
  0
VERTEX
  8
0
 10
35.0471
 20
5.82264
 30
0.0
 40
0.0628889
 41
0.0628889
  0
VERTEX
  8
0
 10
34.8831
 20
5.84076
 30
0.0
 40
0.0628889
 41
0.0628889
  0
VERTEX
  8
0
 10
34.8283
 20
5.84679
 30
0.0
 40
0.0628889
 41
0.0628889
  0
VERTEX
  8
0
 10
34.6644
 20
5.86496
 30
0.0
 40
0.0628889
 41
0.0628889
  0
VERTEX
  8
0
 10
34.1733
 20
5.92557
 30
0.0
 40
0.0628889
 41
0.0628889
  0
VERTEX
  8
0
 10
33.5725
 20
6.01096
 30
0.0
 40
0.0628889
 41
0.0628889
  0
VERTEX
  8
0
 10
33.0207
 20
6.10422
 30
0.0
 40
0.0628889
 41
0.0628889
  0
VERTEX
  8
0
 10
32.5128
 20
6.20632
 30
0.0
 40
0.0628889
 41
0.0628889
  0
VERTEX
  8
0
 10
32.0439
 20
6.31853
 30
0.0
 40
0.0628889
 41
0.0628889
  0
VERTEX
  8
0
 10
31.6086
 20
6.44189
 30
0.0
 40
0.0628889
 41
0.0628889
  0
VERTEX
  8
0
 10
31.2021
 20
6.57753
 30
0.0
 40
0.0628889
 41
0.0628889
  0
VERTEX
  8
0
 10
30.9139
 20
6.6869
 30
0.0
 40
0.0628889
 41
0.0628889
  0
VERTEX
  8
0
 10
30.8192
 20
6.72651
 30
0.0
 40
0.0628889
 41
0.0628889
  0
VERTEX
  8
0
 10
30.7137
 20
6.77067
 30
0.0
 40
0.0628889
 41
0.0628889
  0
VERTEX
  8
0
 10
30.3974
 20
6.90326
 30
0.0
 40
0.0628889
 41
0.0628889
  0
VERTEX
  8
0
 10
30.0125
 20
7.06461
 30
0.0
 40
0.0628889
 41
0.0628889
  0
VERTEX
  8
0
 10
29.6631
 20
7.21126
 30
0.0
 40
0.0628889
 41
0.0628889
  0
VERTEX
  8
0
 10
29.3475
 20
7.34403
 30
0.0
 40
0.0628889
 41
0.0628889
  0
VERTEX
  8
0
 10
29.0642
 20
7.46349
 30
0.0
 40
0.0628889
 41
0.0628889
  0
VERTEX
  8
0
 10
28.8112
 20
7.57036
 30
0.0
 40
0.0628889
 41
0.0628889
  0
VERTEX
  8
0
 10
28.5871
 20
7.66547
 30
0.0
 40
0.0628889
 41
0.0628889
  0
VERTEX
  8
0
 10
28.3901
 20
7.7494
 30
0.0
 40
0.0628889
 41
0.0628889
  0
VERTEX
  8
0
 10
28.2189
 20
7.82292
 30
0.0
 40
0.0628889
 41
0.0628889
  0
VERTEX
  8
0
 10
28.0714
 20
7.88667
 30
0.0
 40
0.0628889
 41
0.0628889
  0
VERTEX
  8
0
 10
27.9463
 20
7.9414
 30
0.0
 40
0.0628889
 41
0.0628889
  0
VERTEX
  8
0
 10
27.8417
 20
7.98785
 30
0.0
 40
0.0628889
 41
0.0628889
  0
VERTEX
  8
0
 10
27.756
 20
8.02669
 30
0.0
 40
0.0628889
 41
0.0628889
  0
VERTEX
  8
0
 10
27.6876
 20
8.0586
 30
0.0
 40
0.0628889
 41
0.0628889
  0
VERTEX
  8
0
 10
27.6349
 20
8.08436
 30
0.0
 40
0.0628889
 41
0.0628889
  0
VERTEX
  8
0
 10
27.6057
 20
8.09933
 30
0.0
 40
0.0628889
 41
0.0628889
  0
VERTEX
  8
0
 10
27.5963
 20
8.10454
 30
0.0
 40
0.0628889
 41
0.0628889
  0
VERTEX
  8
0
 10
27.5732
 20
8.11719
 30
0.0
 40
0.0628889
 41
0.0628889
  0
VERTEX
  8
0
 10
27.5028
 20
8.15256
 30
0.0
 40
0.0628889
 41
0.0628889
  0
VERTEX
  8
0
 10
27.3939
 20
8.20344
 30
0.0
 40
0.0628889
 41
0.0628889
  0
VERTEX
  8
0
 10
27.2829
 20
8.25114
 30
0.0
 40
0.0628889
 41
0.0628889
  0
VERTEX
  8
0
 10
27.2086
 20
8.28065
 30
0.0
 40
0.0628889
 41
0.0628889
  0
VERTEX
  8
0
 10
27.1835
 20
8.28961
 30
0.0
 40
0.0628889
 41
0.0628889
  0
VERTEX
  8
0
 10
27.1617
 20
8.29742
 30
0.0
 40
0.0628889
 41
0.0628889
  0
VERTEX
  8
0
 10
27.0989
 20
8.32878
 30
0.0
 40
0.0628889
 41
0.0628889
  0
VERTEX
  8
0
 10
27.0357
 20
8.37993
 30
0.0
 40
0.0628889
 41
0.0628889
  0
VERTEX
  8
0
 10
26.9936
 20
8.44564
 30
0.0
 40
0.0628889
 41
0.0628889
  0
VERTEX
  8
0
 10
26.9722
 20
8.52854
 30
0.0
 40
0.0628889
 41
0.0628889
  0
VERTEX
  8
0
 10
26.9711
 20
8.63129
 30
0.0
 40
0.0628889
 41
0.0628889
  0
VERTEX
  8
0
 10
26.9903
 20
8.75646
 30
0.0
 40
0.0628889
 41
0.0628889
  0
VERTEX
  8
0
 10
27.029
 20
8.90662
 30
0.0
 40
0.0628889
 41
0.0628889
  0
VERTEX
  8
0
 10
27.0718
 20
9.04036
 30
0.0
 40
0.0628889
 41
0.0628889
  0
VERTEX
  8
0
 10
27.0874
 20
9.08447
 30
0.0
 40
0.0628889
 41
0.0628889
  0
VERTEX
  8
0
 10
27.0996
 20
9.11908
 30
0.0
 40
0.0628889
 41
0.0628889
  0
VERTEX
  8
0
 10
27.131
 20
9.22467
 30
0.0
 40
0.0628889
 41
0.0628889
  0
VERTEX
  8
0
 10
27.1608
 20
9.35449
 30
0.0
 40
0.0628889
 41
0.0628889
  0
VERTEX
  8
0
 10
27.1744
 20
9.45964
 30
0.0
 40
0.0628889
 41
0.0628889
  0
VERTEX
  8
0
 10
27.1742
 20
9.51172
 30
0.0
 40
0.0628889
 41
0.0628889
  0
VERTEX
  8
0
 10
27.1689
 20
9.52556
 30
0.0
 40
0.0628889
 41
0.0628889
  0
VERTEX
  8
0
 10
27.165
 20
9.53575
 30
0.0
 40
0.0628889
 41
0.0628889
  0
VERTEX
  8
0
 10
27.1676
 20
9.57183
 30
0.0
 40
0.0628889
 41
0.0628889
  0
VERTEX
  8
0
 10
27.1928
 20
9.62343
 30
0.0
 40
0.0628889
 41
0.0628889
  0
VERTEX
  8
0
 10
27.2399
 20
9.67404
 30
0.0
 40
0.0628889
 41
0.0628889
  0
VERTEX
  8
0
 10
27.2872
 20
9.7085
 30
0.0
 40
0.0628889
 41
0.0628889
  0
VERTEX
  8
0
 10
27.3043
 20
9.71744
 30
0.0
 40
0.0628889
 41
0.0628889
  0
VERTEX
  8
0
 10
27.3269
 20
9.72939
 30
0.0
 40
0.0628889
 41
0.0628889
  0
VERTEX
  8
0
 10
27.3922
 20
9.77061
 30
0.0
 40
0.0628889
 41
0.0628889
  0
VERTEX
  8
0
 10
27.5029
 20
9.84788
 30
0.0
 40
0.0628889
 41
0.0628889
  0
VERTEX
  8
0
 10
27.6225
 20
9.93881
 30
0.0
 40
0.0628889
 41
0.0628889
  0
VERTEX
  8
0
 10
27.7086
 20
10.0088
 30
0.0
 40
0.0628889
 41
0.0628889
  0
VERTEX
  8
0
 10
27.7365
 20
10.0331
 30
0.0
 40
0.0628889
 41
0.0628889
  0
VERTEX
  8
0
 10
27.7626
 20
10.0558
 30
0.0
 40
0.0628889
 41
0.0628889
  0
VERTEX
  8
0
 10
27.8444
 20
10.1202
 30
0.0
 40
0.0628889
 41
0.0628889
  0
VERTEX
  8
0
 10
27.9474
 20
10.1915
 30
0.0
 40
0.0628889
 41
0.0628889
  0
VERTEX
  8
0
 10
28.0336
 20
10.2397
 30
0.0
 40
0.0628889
 41
0.0628889
  0
VERTEX
  8
0
 10
28.0771
 20
10.2574
 30
0.0
 40
0.0628889
 41
0.0628889
  0
VERTEX
  8
0
 10
28.0917
 20
10.2574
 30
0.0
 40
0.0628889
 41
0.0628889
  0
VERTEX
  8
0
 10
28.1068
 20
10.2574
 30
0.0
 40
0.0628889
 41
0.0628889
  0
VERTEX
  8
0
 10
28.1524
 20
10.2732
 30
0.0
 40
0.0628889
 41
0.0628889
  0
VERTEX
  8
0
 10
28.2462
 20
10.316
 30
0.0
 40
0.0628889
 41
0.0628889
  0
VERTEX
  8
0
 10
28.3604
 20
10.3794
 30
0.0
 40
0.0628889
 41
0.0628889
  0
VERTEX
  8
0
 10
28.4521
 20
10.4365
 30
0.0
 40
0.0628889
 41
0.0628889
  0
VERTEX
  8
0
 10
28.4819
 20
10.4568
 30
0.0
 40
0.0628889
 41
0.0628889
  0
VERTEX
  8
0
 10
28.506
 20
10.4731
 30
0.0
 40
0.0628889
 41
0.0628889
  0
VERTEX
  8
0
 10
28.5747
 20
10.5275
 30
0.0
 40
0.0628889
 41
0.0628889
  0
VERTEX
  8
0
 10
28.6504
 20
10.6011
 30
0.0
 40
0.0628889
 41
0.0628889
  0
VERTEX
  8
0
 10
28.7093
 20
10.6765
 30
0.0
 40
0.0628889
 41
0.0628889
  0
VERTEX
  8
0
 10
28.7519
 20
10.7528
 30
0.0
 40
0.0628889
 41
0.0628889
  0
VERTEX
  8
0
 10
28.7788
 20
10.8288
 30
0.0
 40
0.0628889
 41
0.0628889
  0
VERTEX
  8
0
 10
28.79
 20
10.9035
 30
0.0
 40
0.0628889
 41
0.0628889
  0
VERTEX
  8
0
 10
28.786
 20
10.9761
 30
0.0
 40
0.0628889
 41
0.0628889
  0
VERTEX
  8
0
 10
28.7672
 20
11.0453
 30
0.0
 40
0.0628889
 41
0.0628889
  0
VERTEX
  8
0
 10
28.7342
 20
11.1102
 30
0.0
 40
0.0628889
 41
0.0628889
  0
VERTEX
  8
0
 10
28.6872
 20
11.1698
 30
0.0
 40
0.0628889
 41
0.0628889
  0
VERTEX
  8
0
 10
28.6267
 20
11.223
 30
0.0
 40
0.0628889
 41
0.0628889
  0
VERTEX
  8
0
 10
28.5529
 20
11.2689
 30
0.0
 40
0.0628889
 41
0.0628889
  0
VERTEX
  8
0
 10
28.4664
 20
11.3063
 30
0.0
 40
0.0628889
 41
0.0628889
  0
VERTEX
  8
0
 10
28.3675
 20
11.3344
 30
0.0
 40
0.0628889
 41
0.0628889
  0
VERTEX
  8
0
 10
28.2567
 20
11.3519
 30
0.0
 40
0.0628889
 41
0.0628889
  0
VERTEX
  8
0
 10
28.1649
 20
11.358
 30
0.0
 40
0.0628889
 41
0.0628889
  0
VERTEX
  8
0
 10
28.1343
 20
11.358
 30
0.0
 40
0.0628889
 41
0.0628889
  0
VERTEX
  8
0
 10
27.7535
 20
11.358
 30
0.0
 40
0.0628889
 41
0.0628889
  0
VERTEX
  8
0
 10
27.7535
 20
11.6281
 30
0.0
 40
0.0628889
 41
0.0628889
  0
VERTEX
  8
0
 10
27.7535
 20
11.6458
 30
0.0
 40
0.0628889
 41
0.0628889
  0
VERTEX
  8
0
 10
27.7575
 20
11.6989
 30
0.0
 40
0.0628889
 41
0.0628889
  0
VERTEX
  8
0
 10
27.7692
 20
11.797
 30
0.0
 40
0.0628889
 41
0.0628889
  0
VERTEX
  8
0
 10
27.7876
 20
11.9178
 30
0.0
 40
0.0628889
 41
0.0628889
  0
VERTEX
  8
0
 10
27.8121
 20
12.0571
 30
0.0
 40
0.0628889
 41
0.0628889
  0
VERTEX
  8
0
 10
27.8418
 20
12.2102
 30
0.0
 40
0.0628889
 41
0.0628889
  0
VERTEX
  8
0
 10
27.8757
 20
12.3729
 30
0.0
 40
0.0628889
 41
0.0628889
  0
VERTEX
  8
0
 10
27.9132
 20
12.5406
 30
0.0
 40
0.0628889
 41
0.0628889
  0
VERTEX
  8
0
 10
27.9429
 20
12.667
 30
0.0
 40
0.0628889
 41
0.0628889
  0
VERTEX
  8
0
 10
27.9533
 20
12.709
 30
0.0
 40
0.0628889
 41
0.0628889
  0
VERTEX
  8
0
 10
27.9657
 20
12.7592
 30
0.0
 40
0.0628889
 41
0.0628889
  0
VERTEX
  8
0
 10
27.9983
 20
12.911
 30
0.0
 40
0.0628889
 41
0.0628889
  0
VERTEX
  8
0
 10
28.0399
 20
13.1345
 30
0.0
 40
0.0628889
 41
0.0628889
  0
VERTEX
  8
0
 10
28.0775
 20
13.3763
 30
0.0
 40
0.0628889
 41
0.0628889
  0
VERTEX
  8
0
 10
28.1113
 20
13.6334
 30
0.0
 40
0.0628889
 41
0.0628889
  0
VERTEX
  8
0
 10
28.1408
 20
13.9024
 30
0.0
 40
0.0628889
 41
0.0628889
  0
VERTEX
  8
0
 10
28.1662
 20
14.1801
 30
0.0
 40
0.0628889
 41
0.0628889
  0
VERTEX
  8
0
 10
28.1872
 20
14.4636
 30
0.0
 40
0.0628889
 41
0.0628889
  0
VERTEX
  8
0
 10
28.2036
 20
14.7494
 30
0.0
 40
0.0628889
 41
0.0628889
  0
VERTEX
  8
0
 10
28.2153
 20
15.0346
 30
0.0
 40
0.0628889
 41
0.0628889
  0
VERTEX
  8
0
 10
28.2221
 20
15.3158
 30
0.0
 40
0.0628889
 41
0.0628889
  0
VERTEX
  8
0
 10
28.2239
 20
15.59
 30
0.0
 40
0.0628889
 41
0.0628889
  0
VERTEX
  8
0
 10
28.2204
 20
15.8539
 30
0.0
 40
0.0628889
 41
0.0628889
  0
VERTEX
  8
0
 10
28.2115
 20
16.1042
 30
0.0
 40
0.0628889
 41
0.0628889
  0
VERTEX
  8
0
 10
28.1972
 20
16.3379
 30
0.0
 40
0.0628889
 41
0.0628889
  0
VERTEX
  8
0
 10
28.1774
 20
16.5518
 30
0.0
 40
0.0628889
 41
0.0628889
  0
VERTEX
  8
0
 10
28.1592
 20
16.6953
 30
0.0
 40
0.0628889
 41
0.0628889
  0
VERTEX
  8
0
 10
28.1515
 20
16.7428
 30
0.0
 40
0.0628889
 41
0.0628889
  0
VERTEX
  8
0
 10
28.1442
 20
16.7881
 30
0.0
 40
0.0628889
 41
0.0628889
  0
VERTEX
  8
0
 10
28.1231
 20
16.9243
 30
0.0
 40
0.0628889
 41
0.0628889
  0
VERTEX
  8
0
 10
28.1035
 20
17.0675
 30
0.0
 40
0.0628889
 41
0.0628889
  0
VERTEX
  8
0
 10
28.0929
 20
17.1782
 30
0.0
 40
0.0628889
 41
0.0628889
  0
VERTEX
  8
0
 10
28.0917
 20
17.2618
 30
0.0
 40
0.0628889
 41
0.0628889
  0
VERTEX
  8
0
 10
28.1
 20
17.3242
 30
0.0
 40
0.0628889
 41
0.0628889
  0
VERTEX
  8
0
 10
28.1181
 20
17.371
 30
0.0
 40
0.0628889
 41
0.0628889
  0
VERTEX
  8
0
 10
28.1464
 20
17.4076
 30
0.0
 40
0.0628889
 41
0.0628889
  0
VERTEX
  8
0
 10
28.1749
 20
17.4326
 30
0.0
 40
0.0628889
 41
0.0628889
  0
VERTEX
  8
0
 10
28.185
 20
17.44
 30
0.0
 40
0.0628889
 41
0.0628889
  0
VERTEX
  8
0
 10
28.1942
 20
17.4467
 30
0.0
 40
0.0628889
 41
0.0628889
  0
VERTEX
  8
0
 10
28.2168
 20
17.4733
 30
0.0
 40
0.0628889
 41
0.0628889
  0
VERTEX
  8
0
 10
28.2465
 20
17.5235
 30
0.0
 40
0.0628889
 41
0.0628889
  0
VERTEX
  8
0
 10
28.274
 20
17.5878
 30
0.0
 40
0.0628889
 41
0.0628889
  0
VERTEX
  8
0
 10
28.299
 20
17.6638
 30
0.0
 40
0.0628889
 41
0.0628889
  0
VERTEX
  8
0
 10
28.3213
 20
17.7485
 30
0.0
 40
0.0628889
 41
0.0628889
  0
VERTEX
  8
0
 10
28.3403
 20
17.8393
 30
0.0
 40
0.0628889
 41
0.0628889
  0
VERTEX
  8
0
 10
28.356
 20
17.9337
 30
0.0
 40
0.0628889
 41
0.0628889
  0
VERTEX
  8
0
 10
28.3679
 20
18.029
 30
0.0
 40
0.0628889
 41
0.0628889
  0
VERTEX
  8
0
 10
28.3758
 20
18.1222
 30
0.0
 40
0.0628889
 41
0.0628889
  0
VERTEX
  8
0
 10
28.3797
 20
18.2108
 30
0.0
 40
0.0628889
 41
0.0628889
  0
VERTEX
  8
0
 10
28.3789
 20
18.2922
 30
0.0
 40
0.0628889
 41
0.0628889
  0
VERTEX
  8
0
 10
28.3733
 20
18.3637
 30
0.0
 40
0.0628889
 41
0.0628889
  0
VERTEX
  8
0
 10
28.3626
 20
18.4224
 30
0.0
 40
0.0628889
 41
0.0628889
  0
VERTEX
  8
0
 10
28.3465
 20
18.4658
 30
0.0
 40
0.0628889
 41
0.0628889
  0
VERTEX
  8
0
 10
28.3249
 20
18.4911
 30
0.0
 40
0.0628889
 41
0.0628889
  0
VERTEX
  8
0
 10
28.3035
 20
18.4971
 30
0.0
 40
0.0628889
 41
0.0628889
  0
VERTEX
  8
0
 10
28.2971
 20
18.4957
 30
0.0
 40
0.0628889
 41
0.0628889
  0
VERTEX
  8
0
 10
28.2867
 20
18.4933
 30
0.0
 40
0.0628889
 41
0.0628889
  0
VERTEX
  8
0
 10
28.2522
 20
18.5001
 30
0.0
 40
0.0628889
 41
0.0628889
  0
VERTEX
  8
0
 10
28.2122
 20
18.5311
 30
0.0
 40
0.0628889
 41
0.0628889
  0
VERTEX
  8
0
 10
28.1808
 20
18.5842
 30
0.0
 40
0.0628889
 41
0.0628889
  0
VERTEX
  8
0
 10
28.1644
 20
18.6372
 30
0.0
 40
0.0628889
 41
0.0628889
  0
VERTEX
  8
0
 10
28.1617
 20
18.6553
 30
0.0
 40
0.0628889
 41
0.0628889
  0
VERTEX
  8
0
 10
28.1579
 20
18.6799
 30
0.0
 40
0.0628889
 41
0.0628889
  0
VERTEX
  8
0
 10
28.1662
 20
18.7565
 30
0.0
 40
0.0628889
 41
0.0628889
  0
VERTEX
  8
0
 10
28.2138
 20
18.8665
 30
0.0
 40
0.0628889
 41
0.0628889
  0
VERTEX
  8
0
 10
28.3086
 20
18.9932
 30
0.0
 40
0.0628889
 41
0.0628889
  0
VERTEX
  8
0
 10
28.4175
 20
19.1083
 30
0.0
 40
0.0628889
 41
0.0628889
  0
VERTEX
  8
0
 10
28.4558
 20
19.1446
 30
0.0
 40
0.0628889
 41
0.0628889
  0
VERTEX
  8
0
 10
28.4943
 20
19.1813
 30
0.0
 40
0.0628889
 41
0.0628889
  0
VERTEX
  8
0
 10
28.6067
 20
19.2946
 30
0.0
 40
0.0628889
 41
0.0628889
  0
VERTEX
  8
0
 10
28.7212
 20
19.4251
 30
0.0
 40
0.0628889
 41
0.0628889
  0
VERTEX
  8
0
 10
28.801
 20
19.5414
 30
0.0
 40
0.0628889
 41
0.0628889
  0
VERTEX
  8
0
 10
28.8472
 20
19.6482
 30
0.0
 40
0.0628889
 41
0.0628889
  0
VERTEX
  8
0
 10
28.8614
 20
19.7507
 30
0.0
 40
0.0628889
 41
0.0628889
  0
VERTEX
  8
0
 10
28.8451
 20
19.8537
 30
0.0
 40
0.0628889
 41
0.0628889
  0
VERTEX
  8
0
 10
28.7996
 20
19.9624
 30
0.0
 40
0.0628889
 41
0.0628889
  0
VERTEX
  8
0
 10
28.7462
 20
20.0528
 30
0.0
 40
0.0628889
 41
0.0628889
  0
VERTEX
  8
0
 10
28.7265
 20
20.0815
 30
0.0
 40
0.0628889
 41
0.0628889
  0
VERTEX
  8
0
 10
28.7067
 20
20.1104
 30
0.0
 40
0.0628889
 41
0.0628889
  0
VERTEX
  8
0
 10
28.6493
 20
20.1986
 30
0.0
 40
0.0628889
 41
0.0628889
  0
VERTEX
  8
0
 10
28.5946
 20
20.2979
 30
0.0
 40
0.0628889
 41
0.0628889
  0
VERTEX
  8
0
 10
28.5626
 20
20.3876
 30
0.0
 40
0.0628889
 41
0.0628889
  0
VERTEX
  8
0
 10
28.5536
 20
20.4768
 30
0.0
 40
0.0628889
 41
0.0628889
  0
VERTEX
  8
0
 10
28.5678
 20
20.5738
 30
0.0
 40
0.0628889
 41
0.0628889
  0
VERTEX
  8
0
 10
28.6053
 20
20.6872
 30
0.0
 40
0.0628889
 41
0.0628889
  0
VERTEX
  8
0
 10
28.6664
 20
20.8257
 30
0.0
 40
0.0628889
 41
0.0628889
  0
VERTEX
  8
0
 10
28.7299
 20
20.955
 30
0.0
 40
0.0628889
 41
0.0628889
  0
VERTEX
  8
0
 10
28.7515
 20
20.9978
 30
0.0
 40
0.0628889
 41
0.0628889
  0
VERTEX
  8
0
 10
28.9635
 20
21.4164
 30
0.0
 40
0.0628889
 41
0.0628889
  0
VERTEX
  8
0
 10
28.7825
 20
21.609
 30
0.0
 40
0.0628889
 41
0.0628889
  0
VERTEX
  8
0
 10
28.766
 20
21.6267
 30
0.0
 40
0.0628889
 41
0.0628889
  0
VERTEX
  8
0
 10
28.7172
 20
21.6801
 30
0.0
 40
0.0628889
 41
0.0628889
  0
VERTEX
  8
0
 10
28.6735
 20
21.7404
 30
0.0
 40
0.0628889
 41
0.0628889
  0
VERTEX
  8
0
 10
28.654
 20
21.7992
 30
0.0
 40
0.0628889
 41
0.0628889
  0
VERTEX
  8
0
 10
28.6621
 20
21.8663
 30
0.0
 40
0.0628889
 41
0.0628889
  0
VERTEX
  8
0
 10
28.7001
 20
21.9511
 30
0.0
 40
0.0628889
 41
0.0628889
  0
VERTEX
  8
0
 10
28.7715
 20
22.0636
 30
0.0
 40
0.0628889
 41
0.0628889
  0
VERTEX
  8
0
 10
28.8789
 20
22.2131
 30
0.0
 40
0.0628889
 41
0.0628889
  0
VERTEX
  8
0
 10
28.9886
 20
22.3604
 30
0.0
 40
0.0628889
 41
0.0628889
  0
VERTEX
  8
0
 10
29.0253
 20
22.4093
 30
0.0
 40
0.0628889
 41
0.0628889
  0
VERTEX
  8
0
 10
29.0612
 20
22.4572
 30
0.0
 40
0.0628889
 41
0.0628889
  0
VERTEX
  8
0
 10
29.1649
 20
22.6039
 30
0.0
 40
0.0628889
 41
0.0628889
  0
VERTEX
  8
0
 10
29.2761
 20
22.7776
 30
0.0
 40
0.0628889
 41
0.0628889
  0
VERTEX
  8
0
 10
29.3596
 20
22.9321
 30
0.0
 40
0.0628889
 41
0.0628889
  0
VERTEX
  8
0
 10
29.4157
 20
23.0682
 30
0.0
 40
0.0628889
 41
0.0628889
  0
VERTEX
  8
0
 10
29.4447
 20
23.1872
 30
0.0
 40
0.0628889
 41
0.0628889
  0
VERTEX
  8
0
 10
29.4472
 20
23.2904
 30
0.0
 40
0.0628889
 41
0.0628889
  0
VERTEX
  8
0
 10
29.4233
 20
23.379
 30
0.0
 40
0.0628889
 41
0.0628889
  0
VERTEX
  8
0
 10
29.3888
 20
23.4378
 30
0.0
 40
0.0628889
 41
0.0628889
  0
VERTEX
  8
0
 10
29.3739
 20
23.4542
 30
0.0
 40
0.0628889
 41
0.0628889
  0
VERTEX
  8
0
 10
29.3593
 20
23.4703
 30
0.0
 40
0.0628889
 41
0.0628889
  0
VERTEX
  8
0
 10
29.3187
 20
23.5213
 30
0.0
 40
0.0628889
 41
0.0628889
  0
VERTEX
  8
0
 10
29.281
 20
23.586
 30
0.0
 40
0.0628889
 41
0.0628889
  0
VERTEX
  8
0
 10
29.261
 20
23.6539
 30
0.0
 40
0.0628889
 41
0.0628889
  0
VERTEX
  8
0
 10
29.2592
 20
23.7307
 30
0.0
 40
0.0628889
 41
0.0628889
  0
VERTEX
  8
0
 10
29.276
 20
23.8219
 30
0.0
 40
0.0628889
 41
0.0628889
  0
VERTEX
  8
0
 10
29.3122
 20
23.9332
 30
0.0
 40
0.0628889
 41
0.0628889
  0
VERTEX
  8
0
 10
29.3681
 20
24.0701
 30
0.0
 40
0.0628889
 41
0.0628889
  0
VERTEX
  8
0
 10
29.4249
 20
24.1965
 30
0.0
 40
0.0628889
 41
0.0628889
  0
VERTEX
  8
0
 10
29.4443
 20
24.2383
 30
0.0
 40
0.0628889
 41
0.0628889
  0
VERTEX
  8
0
 10
29.4663
 20
24.2857
 30
0.0
 40
0.0628889
 41
0.0628889
  0
VERTEX
  8
0
 10
29.5275
 20
24.4303
 30
0.0
 40
0.0628889
 41
0.0628889
  0
VERTEX
  8
0
 10
29.5872
 20
24.5983
 30
0.0
 40
0.0628889
 41
0.0628889
  0
VERTEX
  8
0
 10
29.6231
 20
24.744
 30
0.0
 40
0.0628889
 41
0.0628889
  0
VERTEX
  8
0
 10
29.6353
 20
24.8689
 30
0.0
 40
0.0628889
 41
0.0628889
  0
VERTEX
  8
0
 10
29.6237
 20
24.9744
 30
0.0
 40
0.0628889
 41
0.0628889
  0
VERTEX
  8
0
 10
29.5886
 20
25.0625
 30
0.0
 40
0.0628889
 41
0.0628889
  0
VERTEX
  8
0
 10
29.5297
 20
25.1343
 30
0.0
 40
0.0628889
 41
0.0628889
  0
VERTEX
  8
0
 10
29.4692
 20
25.1799
 30
0.0
 40
0.0628889
 41
0.0628889
  0
VERTEX
  8
0
 10
29.4472
 20
25.1915
 30
0.0
 40
0.0628889
 41
0.0628889
  0
VERTEX
  8
0
 10
29.2542
 20
25.2949
 30
0.0
 40
0.0628889
 41
0.0628889
  0
VERTEX
  8
0
 10
29.5179
 20
25.6029
 30
0.0
 40
0.0628889
 41
0.0628889
  0
VERTEX
  8
0
 10
29.5465
 20
25.6364
 30
0.0
 40
0.0628889
 41
0.0628889
  0
VERTEX
  8
0
 10
29.6243
 20
25.7438
 30
0.0
 40
0.0628889
 41
0.0628889
  0
VERTEX
  8
0
 10
29.719
 20
25.8993
 30
0.0
 40
0.0628889
 41
0.0628889
  0
VERTEX
  8
0
 10
29.7915
 20
26.0507
 30
0.0
 40
0.0628889
 41
0.0628889
  0
VERTEX
  8
0
 10
29.8257
 20
26.1463
 30
0.0
 40
0.0628889
 41
0.0628889
  0
VERTEX
  8
0
 10
29.8319
 20
26.179
 30
0.0
 40
0.0628889
 41
0.0628889
  0
VERTEX
  8
0
 10
29.8378
 20
26.2101
 30
0.0
 40
0.0628889
 41
0.0628889
  0
VERTEX
  8
0
 10
29.844
 20
26.3058
 30
0.0
 40
0.0628889
 41
0.0628889
  0
VERTEX
  8
0
 10
29.835
 20
26.4339
 30
0.0
 40
0.0628889
 41
0.0628889
  0
VERTEX
  8
0
 10
29.8065
 20
26.5592
 30
0.0
 40
0.0628889
 41
0.0628889
  0
VERTEX
  8
0
 10
29.7606
 20
26.6775
 30
0.0
 40
0.0628889
 41
0.0628889
  0
VERTEX
  8
0
 10
29.699
 20
26.785
 30
0.0
 40
0.0628889
 41
0.0628889
  0
VERTEX
  8
0
 10
29.6237
 20
26.8778
 30
0.0
 40
0.0628889
 41
0.0628889
  0
VERTEX
  8
0
 10
29.5367
 20
26.9518
 30
0.0
 40
0.0628889
 41
0.0628889
  0
VERTEX
  8
0
 10
29.4651
 20
26.9933
 30
0.0
 40
0.0628889
 41
0.0628889
  0
VERTEX
  8
0
 10
29.4397
 20
27.0029
 30
0.0
 40
0.0628889
 41
0.0628889
  0
VERTEX
  8
0
 10
29.4251
 20
27.0086
 30
0.0
 40
0.0628889
 41
0.0628889
  0
VERTEX
  8
0
 10
29.3822
 20
27.0276
 30
0.0
 40
0.0628889
 41
0.0628889
  0
VERTEX
  8
0
 10
29.3372
 20
27.0551
 30
0.0
 40
0.0628889
 41
0.0628889
  0
VERTEX
  8
0
 10
29.3033
 20
27.0894
 30
0.0
 40
0.0628889
 41
0.0628889
  0
VERTEX
  8
0
 10
29.279
 20
27.1346
 30
0.0
 40
0.0628889
 41
0.0628889
  0
VERTEX
  8
0
 10
29.2626
 20
27.1943
 30
0.0
 40
0.0628889
 41
0.0628889
  0
VERTEX
  8
0
 10
29.2529
 20
27.2726
 30
0.0
 40
0.0628889
 41
0.0628889
  0
VERTEX
  8
0
 10
29.2482
 20
27.3736
 30
0.0
 40
0.0628889
 41
0.0628889
  0
VERTEX
  8
0
 10
29.2471
 20
27.4692
 30
0.0
 40
0.0628889
 41
0.0628889
  0
VERTEX
  8
0
 10
29.2471
 20
27.501
 30
0.0
 40
0.0628889
 41
0.0628889
  0
VERTEX
  8
0
 10
29.2471
 20
27.5363
 30
0.0
 40
0.0628889
 41
0.0628889
  0
VERTEX
  8
0
 10
29.2483
 20
27.6418
 30
0.0
 40
0.0628889
 41
0.0628889
  0
VERTEX
  8
0
 10
29.2565
 20
27.7554
 30
0.0
 40
0.0628889
 41
0.0628889
  0
VERTEX
  8
0
 10
29.2788
 20
27.8535
 30
0.0
 40
0.0628889
 41
0.0628889
  0
VERTEX
  8
0
 10
29.3215
 20
27.9478
 30
0.0
 40
0.0628889
 41
0.0628889
  0
VERTEX
  8
0
 10
29.3917
 20
28.0503
 30
0.0
 40
0.0628889
 41
0.0628889
  0
VERTEX
  8
0
 10
29.4961
 20
28.1726
 30
0.0
 40
0.0628889
 41
0.0628889
  0
VERTEX
  8
0
 10
29.6414
 20
28.3269
 30
0.0
 40
0.0628889
 41
0.0628889
  0
VERTEX
  8
0
 10
29.7861
 20
28.4753
 30
0.0
 40
0.0628889
 41
0.0628889
  0
VERTEX
  8
0
 10
29.8344
 20
28.5246
 30
0.0
 40
0.0628889
 41
0.0628889
  0
VERTEX
  8
0
 10
29.8922
 20
28.5836
 30
0.0
 40
0.0628889
 41
0.0628889
  0
VERTEX
  8
0
 10
30.0628
 20
28.7629
 30
0.0
 40
0.0628889
 41
0.0628889
  0
VERTEX
  8
0
 10
30.2483
 20
28.97
 30
0.0
 40
0.0628889
 41
0.0628889
  0
VERTEX
  8
0
 10
30.3944
 20
29.1512
 30
0.0
 40
0.0628889
 41
0.0628889
  0
VERTEX
  8
0
 10
30.5044
 20
29.3121
 30
0.0
 40
0.0628889
 41
0.0628889
  0
VERTEX
  8
0
 10
30.5814
 20
29.4576
 30
0.0
 40
0.0628889
 41
0.0628889
  0
VERTEX
  8
0
 10
30.6286
 20
29.5933
 30
0.0
 40
0.0628889
 41
0.0628889
  0
VERTEX
  8
0
 10
30.6494
 20
29.7244
 30
0.0
 40
0.0628889
 41
0.0628889
  0
VERTEX
  8
0
 10
30.6501
 20
29.8236
 30
0.0
 40
0.0628889
 41
0.0628889
  0
VERTEX
  8
0
 10
30.6469
 20
29.8562
 30
0.0
 40
0.0628889
 41
0.0628889
  0
VERTEX
  8
0
 10
30.644
 20
29.8864
 30
0.0
 40
0.0628889
 41
0.0628889
  0
VERTEX
  8
0
 10
30.6268
 20
29.9761
 30
0.0
 40
0.0628889
 41
0.0628889
  0
VERTEX
  8
0
 10
30.5904
 20
30.0575
 30
0.0
 40
0.0628889
 41
0.0628889
  0
VERTEX
  8
0
 10
30.5332
 20
30.1069
 30
0.0
 40
0.0628889
 41
0.0628889
  0
VERTEX
  8
0
 10
30.4715
 20
30.1282
 30
0.0
 40
0.0628889
 41
0.0628889
  0
VERTEX
  8
0
 10
30.4504
 20
30.1312
 30
0.0
 40
0.0628889
 41
0.0628889
  0
VERTEX
  8
0
 10
30.4325
 20
30.1337
 30
0.0
 40
0.0628889
 41
0.0628889
  0
VERTEX
  8
0
 10
30.3779
 20
30.134
 30
0.0
 40
0.0628889
 41
0.0628889
  0
VERTEX
  8
0
 10
30.2986
 20
30.1208
 30
0.0
 40
0.0628889
 41
0.0628889
  0
VERTEX
  8
0
 10
30.2081
 20
30.089
 30
0.0
 40
0.0628889
 41
0.0628889
  0
VERTEX
  8
0
 10
30.1017
 20
30.0361
 30
0.0
 40
0.0628889
 41
0.0628889
  0
VERTEX
  8
0
 10
29.9751
 20
29.9597
 30
0.0
 40
0.0628889
 41
0.0628889
  0
VERTEX
  8
0
 10
29.8238
 20
29.8574
 30
0.0
 40
0.0628889
 41
0.0628889
  0
VERTEX
  8
0
 10
29.6432
 20
29.7264
 30
0.0
 40
0.0628889
 41
0.0628889
  0
VERTEX
  8
0
 10
29.4822
 20
29.6053
 30
0.0
 40
0.0628889
 41
0.0628889
  0
VERTEX
  8
0
 10
29.429
 20
29.5644
 30
0.0
 40
0.0628889
 41
0.0628889
  0
VERTEX
  8
0
 10
29.4003
 20
29.5425
 30
0.0
 40
0.0628889
 41
0.0628889
  0
VERTEX
  8
0
 10
29.3153
 20
29.4754
 30
0.0
 40
0.0628889
 41
0.0628889
  0
VERTEX
  8
0
 10
29.226
 20
29.4008
 30
0.0
 40
0.0628889
 41
0.0628889
  0
VERTEX
  8
0
 10
29.1592
 20
29.3381
 30
0.0
 40
0.0628889
 41
0.0628889
  0
VERTEX
  8
0
 10
29.1129
 20
29.2843
 30
0.0
 40
0.0628889
 41
0.0628889
  0
VERTEX
  8
0
 10
29.0856
 20
29.2374
 30
0.0
 40
0.0628889
 41
0.0628889
  0
VERTEX
  8
0
 10
29.0751
 20
29.1943
 30
0.0
 40
0.0628889
 41
0.0628889
  0
VERTEX
  8
0
 10
29.0796
 20
29.1528
 30
0.0
 40
0.0628889
 41
0.0628889
  0
VERTEX
  8
0
 10
29.0918
 20
29.1203
 30
0.0
 40
0.0628889
 41
0.0628889
  0
VERTEX
  8
0
 10
29.0972
 20
29.1101
 30
0.0
 40
0.0628889
 41
0.0628889
  0
VERTEX
  8
0
 10
29.1026
 20
29.0999
 30
0.0
 40
0.0628889
 41
0.0628889
  0
VERTEX
  8
0
 10
29.1133
 20
29.0657
 30
0.0
 40
0.0628889
 41
0.0628889
  0
VERTEX
  8
0
 10
29.1131
 20
29.0174
 30
0.0
 40
0.0628889
 41
0.0628889
  0
VERTEX
  8
0
 10
29.0933
 20
28.9617
 30
0.0
 40
0.0628889
 41
0.0628889
  0
VERTEX
  8
0
 10
29.0515
 20
28.8946
 30
0.0
 40
0.0628889
 41
0.0628889
  0
VERTEX
  8
0
 10
28.985
 20
28.8124
 30
0.0
 40
0.0628889
 41
0.0628889
  0
VERTEX
  8
0
 10
28.8908
 20
28.7112
 30
0.0
 40
0.0628889
 41
0.0628889
  0
VERTEX
  8
0
 10
28.7664
 20
28.5874
 30
0.0
 40
0.0628889
 41
0.0628889
  0
VERTEX
  8
0
 10
28.6485
 20
28.4743
 30
0.0
 40
0.0628889
 41
0.0628889
  0
VERTEX
  8
0
 10
28.6089
 20
28.4369
 30
0.0
 40
0.0628889
 41
0.0628889
  0
VERTEX
  8
0
 10
28.5783
 20
28.4083
 30
0.0
 40
0.0628889
 41
0.0628889
  0
VERTEX
  8
0
 10
28.4874
 20
28.3219
 30
0.0
 40
0.0628889
 41
0.0628889
  0
VERTEX
  8
0
 10
28.3586
 20
28.1982
 30
0.0
 40
0.0628889
 41
0.0628889
  0
VERTEX
  8
0
 10
28.2265
 20
28.07
 30
0.0
 40
0.0628889
 41
0.0628889
  0
VERTEX
  8
0
 10
28.0947
 20
27.941
 30
0.0
 40
0.0628889
 41
0.0628889
  0
VERTEX
  8
0
 10
27.9675
 20
27.815
 30
0.0
 40
0.0628889
 41
0.0628889
  0
VERTEX
  8
0
 10
27.8485
 20
27.696
 30
0.0
 40
0.0628889
 41
0.0628889
  0
VERTEX
  8
0
 10
27.7418
 20
27.5878
 30
0.0
 40
0.0628889
 41
0.0628889
  0
VERTEX
  8
0
 10
27.6738
 20
27.5179
 30
0.0
 40
0.0628889
 41
0.0628889
  0
VERTEX
  8
0
 10
27.6513
 20
27.4943
 30
0.0
 40
0.0628889
 41
0.0628889
  0
VERTEX
  8
0
 10
27.6249
 20
27.4668
 30
0.0
 40
0.0628889
 41
0.0628889
  0
VERTEX
  8
0
 10
27.5444
 20
27.3851
 30
0.0
 40
0.0628889
 41
0.0628889
  0
VERTEX
  8
0
 10
27.4524
 20
27.2969
 30
0.0
 40
0.0628889
 41
0.0628889
  0
VERTEX
  8
0
 10
27.3729
 20
27.2283
 30
0.0
 40
0.0628889
 41
0.0628889
  0
VERTEX
  8
0
 10
27.3038
 20
27.1776
 30
0.0
 40
0.0628889
 41
0.0628889
  0
VERTEX
  8
0
 10
27.2425
 20
27.1436
 30
0.0
 40
0.0628889
 41
0.0628889
  0
VERTEX
  8
0
 10
27.1871
 20
27.1247
 30
0.0
 40
0.0628889
 41
0.0628889
  0
VERTEX
  8
0
 10
27.1353
 20
27.1196
 30
0.0
 40
0.0628889
 41
0.0628889
  0
VERTEX
  8
0
 10
27.0969
 20
27.1236
 30
0.0
 40
0.0628889
 41
0.0628889
  0
VERTEX
  8
0
 10
27.0847
 20
27.1267
 30
0.0
 40
0.0628889
 41
0.0628889
  0
VERTEX
  8
0
 10
27.0715
 20
27.13
 30
0.0
 40
0.0628889
 41
0.0628889
  0
VERTEX
  8
0
 10
27.0287
 20
27.1264
 30
0.0
 40
0.0628889
 41
0.0628889
  0
VERTEX
  8
0
 10
26.9565
 20
27.1037
 30
0.0
 40
0.0628889
 41
0.0628889
  0
VERTEX
  8
0
 10
26.871
 20
27.0614
 30
0.0
 40
0.0628889
 41
0.0628889
  0
VERTEX
  8
0
 10
26.775
 20
27.0021
 30
0.0
 40
0.0628889
 41
0.0628889
  0
VERTEX
  8
0
 10
26.6714
 20
26.9285
 30
0.0
 40
0.0628889
 41
0.0628889
  0
VERTEX
  8
0
 10
26.5628
 20
26.8432
 30
0.0
 40
0.0628889
 41
0.0628889
  0
VERTEX
  8
0
 10
26.4524
 20
26.7489
 30
0.0
 40
0.0628889
 41
0.0628889
  0
VERTEX
  8
0
 10
26.3426
 20
26.6485
 30
0.0
 40
0.0628889
 41
0.0628889
  0
VERTEX
  8
0
 10
26.2367
 20
26.5444
 30
0.0
 40
0.0628889
 41
0.0628889
  0
VERTEX
  8
0
 10
26.1371
 20
26.4394
 30
0.0
 40
0.0628889
 41
0.0628889
  0
VERTEX
  8
0
 10
26.0468
 20
26.3362
 30
0.0
 40
0.0628889
 41
0.0628889
  0
VERTEX
  8
0
 10
25.9688
 20
26.2375
 30
0.0
 40
0.0628889
 41
0.0628889
  0
VERTEX
  8
0
 10
25.9056
 20
26.1458
 30
0.0
 40
0.0628889
 41
0.0628889
  0
VERTEX
  8
0
 10
25.8603
 20
26.0642
 30
0.0
 40
0.0628889
 41
0.0628889
  0
VERTEX
  8
0
 10
25.8356
 20
25.9949
 30
0.0
 40
0.0628889
 41
0.0628889
  0
VERTEX
  8
0
 10
25.8311
 20
25.9535
 30
0.0
 40
0.0628889
 41
0.0628889
  0
VERTEX
  8
0
 10
25.8343
 20
25.9408
 30
0.0
 40
0.0628889
 41
0.0628889
  0
VERTEX
  8
0
 10
25.8375
 20
25.9281
 30
0.0
 40
0.0628889
 41
0.0628889
  0
VERTEX
  8
0
 10
25.8314
 20
25.8853
 30
0.0
 40
0.0628889
 41
0.0628889
  0
VERTEX
  8
0
 10
25.8033
 20
25.8064
 30
0.0
 40
0.0628889
 41
0.0628889
  0
VERTEX
  8
0
 10
25.7533
 20
25.7081
 30
0.0
 40
0.0628889
 41
0.0628889
  0
VERTEX
  8
0
 10
25.6846
 20
25.5939
 30
0.0
 40
0.0628889
 41
0.0628889
  0
VERTEX
  8
0
 10
25.6001
 20
25.4679
 30
0.0
 40
0.0628889
 41
0.0628889
  0
VERTEX
  8
0
 10
25.5032
 20
25.3338
 30
0.0
 40
0.0628889
 41
0.0628889
  0
VERTEX
  8
0
 10
25.3969
 20
25.1953
 30
0.0
 40
0.0628889
 41
0.0628889
  0
VERTEX
  8
0
 10
25.2844
 20
25.0563
 30
0.0
 40
0.0628889
 41
0.0628889
  0
VERTEX
  8
0
 10
25.1689
 20
24.9207
 30
0.0
 40
0.0628889
 41
0.0628889
  0
VERTEX
  8
0
 10
25.0535
 20
24.7921
 30
0.0
 40
0.0628889
 41
0.0628889
  0
VERTEX
  8
0
 10
24.9414
 20
24.6743
 30
0.0
 40
0.0628889
 41
0.0628889
  0
VERTEX
  8
0
 10
24.8357
 20
24.5714
 30
0.0
 40
0.0628889
 41
0.0628889
  0
VERTEX
  8
0
 10
24.7396
 20
24.4868
 30
0.0
 40
0.0628889
 41
0.0628889
  0
VERTEX
  8
0
 10
24.6561
 20
24.4246
 30
0.0
 40
0.0628889
 41
0.0628889
  0
VERTEX
  8
0
 10
24.5886
 20
24.3883
 30
0.0
 40
0.0628889
 41
0.0628889
  0
VERTEX
  8
0
 10
24.5511
 20
24.3792
 30
0.0
 40
0.0628889
 41
0.0628889
  0
VERTEX
  8
0
 10
24.5401
 20
24.3821
 30
0.0
 40
0.0628889
 41
0.0628889
  0
VERTEX
  8
0
 10
24.5214
 20
24.3869
 30
0.0
 40
0.0628889
 41
0.0628889
  0
VERTEX
  8
0
 10
24.4569
 20
24.3715
 30
0.0
 40
0.0628889
 41
0.0628889
  0
VERTEX
  8
0
 10
24.3424
 20
24.3057
 30
0.0
 40
0.0628889
 41
0.0628889
  0
VERTEX
  8
0
 10
24.1978
 20
24.1856
 30
0.0
 40
0.0628889
 41
0.0628889
  0
VERTEX
  8
0
 10
24.0665
 20
24.0565
 30
0.0
 40
0.0628889
 41
0.0628889
  0
VERTEX
  8
0
 10
24.0246
 20
24.0118
 30
0.0
 40
0.0628889
 41
0.0628889
  0
VERTEX
  8
0
 10
23.6451
 20
23.6061
 30
0.0
 40
0.0628889
 41
0.0628889
  0
VERTEX
  8
0
 10
23.0461
 20
24.189
 30
0.0
 40
0.0628889
 41
0.0628889
  0
VERTEX
  8
0
 10
23.0146
 20
24.2196
 30
0.0
 40
0.0628889
 41
0.0628889
  0
VERTEX
  8
0
 10
22.9194
 20
24.3106
 30
0.0
 40
0.0628889
 41
0.0628889
  0
VERTEX
  8
0
 10
22.7888
 20
24.4329
 30
0.0
 40
0.0628889
 41
0.0628889
  0
VERTEX
  8
0
 10
22.6579
 20
24.5525
 30
0.0
 40
0.0628889
 41
0.0628889
  0
VERTEX
  8
0
 10
22.5307
 20
24.6661
 30
0.0
 40
0.0628889
 41
0.0628889
  0
VERTEX
  8
0
 10
22.4108
 20
24.7706
 30
0.0
 40
0.0628889
 41
0.0628889
  0
VERTEX
  8
0
 10
22.3021
 20
24.8624
 30
0.0
 40
0.0628889
 41
0.0628889
  0
VERTEX
  8
0
 10
22.2081
 20
24.9383
 30
0.0
 40
0.0628889
 41
0.0628889
  0
VERTEX
  8
0
 10
22.1519
 20
24.9815
 30
0.0
 40
0.0628889
 41
0.0628889
  0
VERTEX
  8
0
 10
22.1326
 20
24.9951
 30
0.0
 40
0.0628889
 41
0.0628889
  0
VERTEX
  8
0
 10
22.0947
 20
25.0221
 30
0.0
 40
0.0628889
 41
0.0628889
  0
VERTEX
  8
0
 10
21.9851
 20
25.1087
 30
0.0
 40
0.0628889
 41
0.0628889
  0
VERTEX
  8
0
 10
21.8161
 20
25.2531
 30
0.0
 40
0.0628889
 41
0.0628889
  0
VERTEX
  8
0
 10
21.6464
 20
25.4096
 30
0.0
 40
0.0628889
 41
0.0628889
  0
VERTEX
  8
0
 10
21.5331
 20
25.5213
 30
0.0
 40
0.0628889
 41
0.0628889
  0
VERTEX
  8
0
 10
21.4967
 20
25.5597
 30
0.0
 40
0.0628889
 41
0.0628889
  0
VERTEX
  8
0
 10
21.4601
 20
25.5985
 30
0.0
 40
0.0628889
 41
0.0628889
  0
VERTEX
  8
0
 10
21.3439
 20
25.7088
 30
0.0
 40
0.0628889
 41
0.0628889
  0
VERTEX
  8
0
 10
21.2061
 20
25.8154
 30
0.0
 40
0.0628889
 41
0.0628889
  0
VERTEX
  8
0
 10
21.0839
 20
25.8796
 30
0.0
 40
0.0628889
 41
0.0628889
  0
VERTEX
  8
0
 10
21.0042
 20
25.901
 30
0.0
 40
0.0628889
 41
0.0628889
  0
VERTEX
  8
0
 10
20.9775
 20
25.901
 30
0.0
 40
0.0628889
 41
0.0628889
  0
VERTEX
  8
0
 10
20.9636
 20
25.901
 30
0.0
 40
0.0628889
 41
0.0628889
  0
VERTEX
  8
0
 10
20.9219
 20
25.9089
 30
0.0
 40
0.0628889
 41
0.0628889
  0
VERTEX
  8
0
 10
20.8394
 20
25.9314
 30
0.0
 40
0.0628889
 41
0.0628889
  0
VERTEX
  8
0
 10
20.7339
 20
25.9669
 30
0.0
 40
0.0628889
 41
0.0628889
  0
VERTEX
  8
0
 10
20.6094
 20
26.014
 30
0.0
 40
0.0628889
 41
0.0628889
  0
VERTEX
  8
0
 10
20.47
 20
26.0711
 30
0.0
 40
0.0628889
 41
0.0628889
  0
VERTEX
  8
0
 10
20.3197
 20
26.1364
 30
0.0
 40
0.0628889
 41
0.0628889
  0
VERTEX
  8
0
 10
20.1624
 20
26.2086
 30
0.0
 40
0.0628889
 41
0.0628889
  0
VERTEX
  8
0
 10
20.0419
 20
26.2661
 30
0.0
 40
0.0628889
 41
0.0628889
  0
VERTEX
  8
0
 10
20.0021
 20
26.2858
 30
0.0
 40
0.0628889
 41
0.0628889
  0
VERTEX
  8
0
 10
19.9154
 20
26.3288
 30
0.0
 40
0.0628889
 41
0.0628889
  0
VERTEX
  8
0
 10
19.6525
 20
26.4514
 30
0.0
 40
0.0628889
 41
0.0628889
  0
VERTEX
  8
0
 10
19.3058
 20
26.5997
 30
0.0
 40
0.0628889
 41
0.0628889
  0
VERTEX
  8
0
 10
18.9529
 20
26.7335
 30
0.0
 40
0.0628889
 41
0.0628889
  0
VERTEX
  8
0
 10
18.5853
 20
26.8554
 30
0.0
 40
0.0628889
 41
0.0628889
  0
VERTEX
  8
0
 10
18.1936
 20
26.9685
 30
0.0
 40
0.0628889
 41
0.0628889
  0
VERTEX
  8
0
 10
17.7693
 20
27.0753
 30
0.0
 40
0.0628889
 41
0.0628889
  0
VERTEX
  8
0
 10
17.3035
 20
27.1785
 30
0.0
 40
0.0628889
 41
0.0628889
  0
VERTEX
  8
0
 10
16.9164
 20
27.2565
 30
0.0
 40
0.0628889
 41
0.0628889
  0
VERTEX
  8
0
 10
16.7872
 20
27.281
 30
0.0
 40
0.0628889
 41
0.0628889
  0
VERTEX
  8
0
 10
16.7046
 20
27.2965
 30
0.0
 40
0.0628889
 41
0.0628889
  0
VERTEX
  8
0
 10
16.4564
 20
27.3418
 30
0.0
 40
0.0628889
 41
0.0628889
  0
VERTEX
  8
0
 10
16.1743
 20
27.3888
 30
0.0
 40
0.0628889
 41
0.0628889
  0
VERTEX
  8
0
 10
15.9251
 20
27.4232
 30
0.0
 40
0.0628889
 41
0.0628889
  0
VERTEX
  8
0
 10
15.6933
 20
27.4463
 30
0.0
 40
0.0628889
 41
0.0628889
  0
VERTEX
  8
0
 10
15.4632
 20
27.459
 30
0.0
 40
0.0628889
 41
0.0628889
  0
VERTEX
  8
0
 10
15.2189
 20
27.4631
 30
0.0
 40
0.0628889
 41
0.0628889
  0
VERTEX
  8
0
 10
14.9449
 20
27.4592
 30
0.0
 40
0.0628889
 41
0.0628889
  0
VERTEX
  8
0
 10
14.7051
 20
27.4518
 30
0.0
 40
0.0628889
 41
0.0628889
  0
VERTEX
  8
0
 10
14.6253
 20
27.4488
 30
0.0
 40
0.0628889
 41
0.0628889
  0
VERTEX
  8
0
 10
14.5692
 20
27.4467
 30
0.0
 40
0.0628889
 41
0.0628889
  0
VERTEX
  8
0
 10
14.4006
 20
27.439
 30
0.0
 40
0.0628889
 41
0.0628889
  0
VERTEX
  8
0
 10
14.1682
 20
27.4265
 30
0.0
 40
0.0628889
 41
0.0628889
  0
VERTEX
  8
0
 10
13.9353
 20
27.4119
 30
0.0
 40
0.0628889
 41
0.0628889
  0
VERTEX
  8
0
 10
13.7083
 20
27.3958
 30
0.0
 40
0.0628889
 41
0.0628889
  0
VERTEX
  8
0
 10
13.4939
 20
27.3785
 30
0.0
 40
0.0628889
 41
0.0628889
  0
VERTEX
  8
0
 10
13.2989
 20
27.3606
 30
0.0
 40
0.0628889
 41
0.0628889
  0
VERTEX
  8
0
 10
13.13
 20
27.3426
 30
0.0
 40
0.0628889
 41
0.0628889
  0
VERTEX
  8
0
 10
13.0277
 20
27.33
 30
0.0
 40
0.0628889
 41
0.0628889
  0
VERTEX
  8
0
 10
12.9938
 20
27.325
 30
0.0
 40
0.0628889
 41
0.0628889
  0
VERTEX
  8
0
 10
12.9652
 20
27.321
 30
0.0
 40
0.0628889
 41
0.0628889
  0
VERTEX
  8
0
 10
12.8802
 20
27.3057
 30
0.0
 40
0.0628889
 41
0.0628889
  0
VERTEX
  8
0
 10
12.7566
 20
27.2797
 30
0.0
 40
0.0628889
 41
0.0628889
  0
VERTEX
  8
0
 10
12.6252
 20
27.2478
 30
0.0
 40
0.0628889
 41
0.0628889
  0
VERTEX
  8
0
 10
12.488
 20
27.2108
 30
0.0
 40
0.0628889
 41
0.0628889
  0
VERTEX
  8
0
 10
12.3469
 20
27.1693
 30
0.0
 40
0.0628889
 41
0.0628889
  0
VERTEX
  8
0
 10
12.2042
 20
27.1243
 30
0.0
 40
0.0628889
 41
0.0628889
  0
VERTEX
  8
0
 10
12.0617
 20
27.0764
 30
0.0
 40
0.0628889
 41
0.0628889
  0
VERTEX
  8
0
 10
11.9216
 20
27.0263
 30
0.0
 40
0.0628889
 41
0.0628889
  0
VERTEX
  8
0
 10
11.7858
 20
26.9749
 30
0.0
 40
0.0628889
 41
0.0628889
  0
VERTEX
  8
0
 10
11.6565
 20
26.9228
 30
0.0
 40
0.0628889
 41
0.0628889
  0
VERTEX
  8
0
 10
11.5356
 20
26.8708
 30
0.0
 40
0.0628889
 41
0.0628889
  0
VERTEX
  8
0
 10
11.4252
 20
26.8197
 30
0.0
 40
0.0628889
 41
0.0628889
  0
VERTEX
  8
0
 10
11.3274
 20
26.7703
 30
0.0
 40
0.0628889
 41
0.0628889
  0
VERTEX
  8
0
 10
11.2443
 20
26.7232
 30
0.0
 40
0.0628889
 41
0.0628889
  0
VERTEX
  8
0
 10
11.1777
 20
26.6793
 30
0.0
 40
0.0628889
 41
0.0628889
  0
VERTEX
  8
0
 10
11.1408
 20
26.6503
 30
0.0
 40
0.0628889
 41
0.0628889
  0
VERTEX
  8
0
 10
11.1298
 20
26.6392
 30
0.0
 40
0.0628889
 41
0.0628889
  0
VERTEX
  8
0
 10
11.1184
 20
26.6278
 30
0.0
 40
0.0628889
 41
0.0628889
  0
VERTEX
  8
0
 10
11.081
 20
26.5968
 30
0.0
 40
0.0628889
 41
0.0628889
  0
VERTEX
  8
0
 10
11.0291
 20
26.5619
 30
0.0
 40
0.0628889
 41
0.0628889
  0
VERTEX
  8
0
 10
10.9801
 20
26.5386
 30
0.0
 40
0.0628889
 41
0.0628889
  0
VERTEX
  8
0
 10
10.9504
 20
26.5299
 30
0.0
 40
0.0628889
 41
0.0628889
  0
VERTEX
  8
0
 10
10.9404
 20
26.5299
 30
0.0
 40
0.0628889
 41
0.0628889
  0
VERTEX
  8
0
 10
10.9332
 20
26.5299
 30
0.0
 40
0.0628889
 41
0.0628889
  0
VERTEX
  8
0
 10
10.9117
 20
26.5242
 30
0.0
 40
0.0628889
 41
0.0628889
  0
VERTEX
  8
0
 10
10.8671
 20
26.5076
 30
0.0
 40
0.0628889
 41
0.0628889
  0
VERTEX
  8
0
 10
10.8079
 20
26.4813
 30
0.0
 40
0.0628889
 41
0.0628889
  0
VERTEX
  8
0
 10
10.7358
 20
26.4457
 30
0.0
 40
0.0628889
 41
0.0628889
  0
VERTEX
  8
0
 10
10.6522
 20
26.4021
 30
0.0
 40
0.0628889
 41
0.0628889
  0
VERTEX
  8
0
 10
10.5586
 20
26.3511
 30
0.0
 40
0.0628889
 41
0.0628889
  0
VERTEX
  8
0
 10
10.4566
 20
26.2938
 30
0.0
 40
0.0628889
 41
0.0628889
  0
VERTEX
  8
0
 10
10.3477
 20
26.2308
 30
0.0
 40
0.0628889
 41
0.0628889
  0
VERTEX
  8
0
 10
10.2332
 20
26.1633
 30
0.0
 40
0.0628889
 41
0.0628889
  0
VERTEX
  8
0
 10
10.115
 20
26.0921
 30
0.0
 40
0.0628889
 41
0.0628889
  0
VERTEX
  8
0
 10
9.99425
 20
26.0179
 30
0.0
 40
0.0628889
 41
0.0628889
  0
VERTEX
  8
0
 10
9.87267
 20
25.9417
 30
0.0
 40
0.0628889
 41
0.0628889
  0
VERTEX
  8
0
 10
9.75168
 20
25.8644
 30
0.0
 40
0.0628889
 41
0.0628889
  0
VERTEX
  8
0
 10
9.63282
 20
25.7869
 30
0.0
 40
0.0628889
 41
0.0628889
  0
VERTEX
  8
0
 10
9.51764
 20
25.7101
 30
0.0
 40
0.0628889
 41
0.0628889
  0
VERTEX
  8
0
 10
9.43494
 20
25.6537
 30
0.0
 40
0.0628889
 41
0.0628889
  0
VERTEX
  8
0
 10
9.40761
 20
25.6347
 30
0.0
 40
0.0628889
 41
0.0628889
  0
VERTEX
  8
0
 10
9.35812
 20
25.6004
 30
0.0
 40
0.0628889
 41
0.0628889
  0
VERTEX
  8
0
 10
9.21506
 20
25.4896
 30
0.0
 40
0.0628889
 41
0.0628889
  0
VERTEX
  8
0
 10
9.01628
 20
25.3178
 30
0.0
 40
0.0628889
 41
0.0628889
  0
VERTEX
  8
0
 10
8.81282
 20
25.1218
 30
0.0
 40
0.0628889
 41
0.0628889
  0
VERTEX
  8
0
 10
8.60639
 20
24.904
 30
0.0
 40
0.0628889
 41
0.0628889
  0
VERTEX
  8
0
 10
8.39871
 20
24.6669
 30
0.0
 40
0.0628889
 41
0.0628889
  0
VERTEX
  8
0
 10
8.19146
 20
24.4129
 30
0.0
 40
0.0628889
 41
0.0628889
  0
VERTEX
  8
0
 10
7.98633
 20
24.1443
 30
0.0
 40
0.0628889
 41
0.0628889
  0
VERTEX
  8
0
 10
7.78494
 20
23.8635
 30
0.0
 40
0.0628889
 41
0.0628889
  0
VERTEX
  8
0
 10
7.58903
 20
23.5731
 30
0.0
 40
0.0628889
 41
0.0628889
  0
VERTEX
  8
0
 10
7.40022
 20
23.2753
 30
0.0
 40
0.0628889
 41
0.0628889
  0
VERTEX
  8
0
 10
7.22026
 20
22.9726
 30
0.0
 40
0.0628889
 41
0.0628889
  0
VERTEX
  8
0
 10
7.05078
 20
22.6676
 30
0.0
 40
0.0628889
 41
0.0628889
  0
VERTEX
  8
0
 10
6.8935
 20
22.3625
 30
0.0
 40
0.0628889
 41
0.0628889
  0
VERTEX
  8
0
 10
6.75011
 20
22.0599
 30
0.0
 40
0.0628889
 41
0.0628889
  0
VERTEX
  8
0
 10
6.62224
 20
21.7619
 30
0.0
 40
0.0628889
 41
0.0628889
  0
VERTEX
  8
0
 10
6.53754
 20
21.5444
 30
0.0
 40
0.0628889
 41
0.0628889
  0
VERTEX
  8
0
 10
6.51161
 20
21.4713
 30
0.0
 40
0.0628889
 41
0.0628889
  0
VERTEX
  8
0
 10
6.47444
 20
21.3664
 30
0.0
 40
0.0628889
 41
0.0628889
  0
VERTEX
  8
0
 10
6.36751
 20
21.0504
 30
0.0
 40
0.0628889
 41
0.0628889
  0
VERTEX
  8
0
 10
6.21837
 20
20.5883
 30
0.0
 40
0.0628889
 41
0.0628889
  0
VERTEX
  8
0
 10
6.06739
 20
20.0958
 30
0.0
 40
0.0628889
 41
0.0628889
  0
VERTEX
  8
0
 10
5.91758
 20
19.5838
 30
0.0
 40
0.0628889
 41
0.0628889
  0
VERTEX
  8
0
 10
5.77203
 20
19.0631
 30
0.0
 40
0.0628889
 41
0.0628889
  0
VERTEX
  8
0
 10
5.6339
 20
18.5443
 30
0.0
 40
0.0628889
 41
0.0628889
  0
VERTEX
  8
0
 10
5.50624
 20
18.0385
 30
0.0
 40
0.0628889
 41
0.0628889
  0
VERTEX
  8
0
 10
5.41965
 20
17.6771
 30
0.0
 40
0.0628889
 41
0.0628889
  0
VERTEX
  8
0
 10
5.39219
 20
17.5563
 30
0.0
 40
0.0628889
 41
0.0628889
  0
VERTEX
  8
0
 10
5.36854
 20
17.4525
 30
0.0
 40
0.0628889
 41
0.0628889
  0
VERTEX
  8
0
 10
5.29676
 20
17.1411
 30
0.0
 40
0.0628889
 41
0.0628889
  0
VERTEX
  8
0
 10
5.21815
 20
16.8082
 30
0.0
 40
0.0628889
 41
0.0628889
  0
VERTEX
  8
0
 10
5.15392
 20
16.5493
 30
0.0
 40
0.0628889
 41
0.0628889
  0
VERTEX
  8
0
 10
5.10167
 20
16.3563
 30
0.0
 40
0.0628889
 41
0.0628889
  0
VERTEX
  8
0
 10
5.05897
 20
16.2206
 30
0.0
 40
0.0628889
 41
0.0628889
  0
VERTEX
  8
0
 10
5.02344
 20
16.1339
 30
0.0
 40
0.0628889
 41
0.0628889
  0
VERTEX
  8
0
 10
4.99268
 20
16.0881
 30
0.0
 40
0.0628889
 41
0.0628889
  0
VERTEX
  8
0
 10
4.97136
 20
16.0746
 30
0.0
 40
0.0628889
 41
0.0628889
  0
VERTEX
  8
0
 10
4.96425
 20
16.0746
 30
0.0
 40
0.0628889
 41
0.0628889
  0
VERTEX
  8
0
 10
4.95617
 20
16.0746
 30
0.0
 40
0.0628889
 41
0.0628889
  0
VERTEX
  8
0
 10
4.93207
 20
16.0933
 30
0.0
 40
0.0628889
 41
0.0628889
  0
VERTEX
  8
0
 10
4.86436
 20
16.1471
 30
0.0
 40
0.0628889
 41
0.0628889
  0
VERTEX
  8
0
 10
4.76535
 20
16.2319
 30
0.0
 40
0.0628889
 41
0.0628889
  0
VERTEX
  8
0
 10
4.63921
 20
16.3443
 30
0.0
 40
0.0628889
 41
0.0628889
  0
VERTEX
  8
0
 10
4.49007
 20
16.4803
 30
0.0
 40
0.0628889
 41
0.0628889
  0
VERTEX
  8
0
 10
4.3221
 20
16.6361
 30
0.0
 40
0.0628889
 41
0.0628889
  0
VERTEX
  8
0
 10
4.13949
 20
16.8082
 30
0.0
 40
0.0628889
 41
0.0628889
  0
VERTEX
  8
0
 10
3.99451
 20
16.9464
 30
0.0
 40
0.0628889
 41
0.0628889
  0
VERTEX
  8
0
 10
3.94646
 20
16.9925
 30
0.0
 40
0.0628889
 41
0.0628889
  0
VERTEX
  8
0
 10
3.90668
 20
17.0308
 30
0.0
 40
0.0628889
 41
0.0628889
  0
VERTEX
  8
0
 10
3.78749
 20
17.1457
 30
0.0
 40
0.0628889
 41
0.0628889
  0
VERTEX
  8
0
 10
3.64751
 20
17.2811
 30
0.0
 40
0.0628889
 41
0.0628889
  0
VERTEX
  8
0
 10
3.52556
 20
17.4003
 30
0.0
 40
0.0628889
 41
0.0628889
  0
VERTEX
  8
0
 10
3.42057
 20
17.5046
 30
0.0
 40
0.0628889
 41
0.0628889
  0
VERTEX
  8
0
 10
3.33154
 20
17.595
 30
0.0
 40
0.0628889
 41
0.0628889
  0
VERTEX
  8
0
 10
3.25749
 20
17.6731
 30
0.0
 40
0.0628889
 41
0.0628889
  0
VERTEX
  8
0
 10
3.19743
 20
17.7399
 30
0.0
 40
0.0628889
 41
0.0628889
  0
VERTEX
  8
0
 10
3.15033
 20
17.7969
 30
0.0
 40
0.0628889
 41
0.0628889
  0
VERTEX
  8
0
 10
3.11524
 20
17.8454
 30
0.0
 40
0.0628889
 41
0.0628889
  0
VERTEX
  8
0
 10
3.09104
 20
17.8865
 30
0.0
 40
0.0628889
 41
0.0628889
  0
VERTEX
  8
0
 10
3.07682
 20
17.9217
 30
0.0
 40
0.0628889
 41
0.0628889
  0
VERTEX
  8
0
 10
3.07156
 20
17.9521
 30
0.0
 40
0.0628889
 41
0.0628889
  0
VERTEX
  8
0
 10
3.07428
 20
17.9792
 30
0.0
 40
0.0628889
 41
0.0628889
  0
VERTEX
  8
0
 10
3.08393
 20
18.004
 30
0.0
 40
0.0628889
 41
0.0628889
  0
VERTEX
  8
0
 10
3.09956
 20
18.0279
 30
0.0
 40
0.0628889
 41
0.0628889
  0
VERTEX
  8
0
 10
3.11475
 20
18.0465
 30
0.0
 40
0.0628889
 41
0.0628889
  0
VERTEX
  8
0
 10
3.12011
 20
18.0524
 30
0.0
 40
0.0628889
 41
0.0628889
  0
VERTEX
  8
0
 10
3.13661
 20
18.0706
 30
0.0
 40
0.0628889
 41
0.0628889
  0
VERTEX
  8
0
 10
3.17779
 20
18.1329
 30
0.0
 40
0.0628889
 41
0.0628889
  0
VERTEX
  8
0
 10
3.20019
 20
18.2061
 30
0.0
 40
0.0628889
 41
0.0628889
  0
VERTEX
  8
0
 10
3.18847
 20
18.271
 30
0.0
 40
0.0628889
 41
0.0628889
  0
VERTEX
  8
0
 10
3.14404
 20
18.3264
 30
0.0
 40
0.0628889
 41
0.0628889
  0
VERTEX
  8
0
 10
3.06808
 20
18.3715
 30
0.0
 40
0.0628889
 41
0.0628889
  0
VERTEX
  8
0
 10
2.96192
 20
18.4049
 30
0.0
 40
0.0628889
 41
0.0628889
  0
VERTEX
  8
0
 10
2.82676
 20
18.4258
 30
0.0
 40
0.0628889
 41
0.0628889
  0
VERTEX
  8
0
 10
2.70464
 20
18.4329
 30
0.0
 40
0.0628889
 41
0.0628889
  0
VERTEX
  8
0
 10
2.66396
 20
18.4329
 30
0.0
 40
0.0628889
 41
0.0628889
  0
VERTEX
  8
0
 10
2.6345
 20
18.4329
 30
0.0
 40
0.0628889
 41
0.0628889
  0
VERTEX
  8
0
 10
2.54611
 20
18.4356
 30
0.0
 40
0.0628889
 41
0.0628889
  0
VERTEX
  8
0
 10
2.44385
 20
18.4451
 30
0.0
 40
0.0628889
 41
0.0628889
  0
VERTEX
  8
0
 10
2.35042
 20
18.4647
 30
0.0
 40
0.0628889
 41
0.0628889
  0
VERTEX
  8
0
 10
2.25917
 20
18.4972
 30
0.0
 40
0.0628889
 41
0.0628889
  0
VERTEX
  8
0
 10
2.16342
 20
18.5453
 30
0.0
 40
0.0628889
 41
0.0628889
  0
VERTEX
  8
0
 10
2.05643
 20
18.6121
 30
0.0
 40
0.0628889
 41
0.0628889
  0
VERTEX
  8
0
 10
1.93153
 20
18.7003
 30
0.0
 40
0.0628889
 41
0.0628889
  0
VERTEX
  8
0
 10
1.81913
 20
18.7844
 30
0.0
 40
0.0628889
 41
0.0628889
  0
VERTEX
  8
0
 10
1.78201
 20
18.8129
 30
0.0
 40
0.0628889
 41
0.0628889
  0
VERTEX
  8
0
 10
1.75179
 20
18.8361
 30
0.0
 40
0.0628889
 41
0.0628889
  0
VERTEX
  8
0
 10
1.65847
 20
18.9018
 30
0.0
 40
0.0628889
 41
0.0628889
  0
VERTEX
  8
0
 10
1.49707
 20
19.0088
 30
0.0
 40
0.0628889
 41
0.0628889
  0
VERTEX
  8
0
 10
1.30447
 20
19.13
 30
0.0
 40
0.0628889
 41
0.0628889
  0
VERTEX
  8
0
 10
1.08767
 20
19.2611
 30
0.0
 40
0.0628889
 41
0.0628889
  0
VERTEX
  8
0
 10
0.853353
 20
19.3985
 30
0.0
 40
0.0628889
 41
0.0628889
  0
VERTEX
  8
0
 10
0.608507
 20
19.5376
 30
0.0
 40
0.0628889
 41
0.0628889
  0
VERTEX
  8
0
 10
0.359864
 20
19.6746
 30
0.0
 40
0.0628889
 41
0.0628889
  0
VERTEX
  8
0
 10
0.175944
 20
19.7732
 30
0.0
 40
0.0628889
 41
0.0628889
  0
VERTEX
  8
0
 10
0.114366
 20
19.8054
 30
0.0
 40
0.0628889
 41
0.0628889
  0
VERTEX
  8
0
 10
0.0547418
 20
19.8365
 30
0.0
 40
0.0628889
 41
0.0628889
  0
VERTEX
  8
0
 10
-0.123752
 20
19.9308
 30
0.0
 40
0.0628889
 41
0.0628889
  0
VERTEX
  8
0
 10
-0.350965
 20
20.0522
 30
0.0
 40
0.0628889
 41
0.0628889
  0
VERTEX
  8
0
 10
-0.562011
 20
20.1667
 30
0.0
 40
0.0628889
 41
0.0628889
  0
VERTEX
  8
0
 10
-0.751465
 20
20.2714
 30
0.0
 40
0.0628889
 41
0.0628889
  0
VERTEX
  8
0
 10
-0.914117
 20
20.3631
 30
0.0
 40
0.0628889
 41
0.0628889
  0
VERTEX
  8
0
 10
-1.04454
 20
20.439
 30
0.0
 40
0.0628889
 41
0.0628889
  0
VERTEX
  8
0
 10
-1.13748
 20
20.496
 30
0.0
 40
0.0628889
 41
0.0628889
  0
VERTEX
  8
0
 10
-1.176
 20
20.5213
 30
0.0
 40
0.0628889
 41
0.0628889
  0
VERTEX
  8
0
 10
-1.18745
 20
20.5313
 30
0.0
 40
0.0628889
 41
0.0628889
  0
VERTEX
  8
0
 10
-1.20106
 20
20.5432
 30
0.0
 40
0.0628889
 41
0.0628889
  0
VERTEX
  8
0
 10
-1.24626
 20
20.5736
 30
0.0
 40
0.0628889
 41
0.0628889
  0
VERTEX
  8
0
 10
-1.31033
 20
20.6051
 30
0.0
 40
0.0628889
 41
0.0628889
  0
VERTEX
  8
0
 10
-1.37191
 20
20.6228
 30
0.0
 40
0.0628889
 41
0.0628889
  0
VERTEX
  8
0
 10
-1.41097
 20
20.626
 30
0.0
 40
0.0628889
 41
0.0628889
  0
VERTEX
  8
0
 10
-1.42329
 20
20.6235
 30
0.0
 40
0.0628889
 41
0.0628889
  0
VERTEX
  8
0
 10
-1.44461
 20
20.6193
 30
0.0
 40
0.0628889
 41
0.0628889
  0
VERTEX
  8
0
 10
-1.51069
 20
20.6171
 30
0.0
 40
0.0628889
 41
0.0628889
  0
VERTEX
  8
0
 10
-1.6231
 20
20.6253
 30
0.0
 40
0.0628889
 41
0.0628889
  0
VERTEX
  8
0
 10
-1.75342
 20
20.6461
 30
0.0
 40
0.0628889
 41
0.0628889
  0
VERTEX
  8
0
 10
-1.89438
 20
20.6778
 30
0.0
 40
0.0628889
 41
0.0628889
  0
VERTEX
  8
0
 10
-2.03868
 20
20.7185
 30
0.0
 40
0.0628889
 41
0.0628889
  0
VERTEX
  8
0
 10
-2.17914
 20
20.7664
 30
0.0
 40
0.0628889
 41
0.0628889
  0
VERTEX
  8
0
 10
-2.3086
 20
20.8197
 30
0.0
 40
0.0628889
 41
0.0628889
  0
VERTEX
  8
0
 10
-2.39279
 20
20.861
 30
0.0
 40
0.0628889
 41
0.0628889
  0
VERTEX
  8
0
 10
-2.41965
 20
20.8765
 30
0.0
 40
0.0628889
 41
0.0628889
  0
VERTEX
  8
0
 10
-2.44581
 20
20.8918
 30
0.0
 40
0.0628889
 41
0.0628889
  0
VERTEX
  8
0
 10
-2.52735
 20
20.9319
 30
0.0
 40
0.0628889
 41
0.0628889
  0
VERTEX
  8
0
 10
-2.62711
 20
20.9701
 30
0.0
 40
0.0628889
 41
0.0628889
  0
VERTEX
  8
0
 10
-2.70796
 20
20.9876
 30
0.0
 40
0.0628889
 41
0.0628889
  0
VERTEX
  8
0
 10
-2.74881
 20
20.9871
 30
0.0
 40
0.0628889
 41
0.0628889
  0
VERTEX
  8
0
 10
-2.75868
 20
20.981
 30
0.0
 40
0.0628889
 41
0.0628889
  0
VERTEX
  8
0
 10
-2.76714
 20
20.9758
 30
0.0
 40
0.0628889
 41
0.0628889
  0
VERTEX
  8
0
 10
-2.80007
 20
20.9726
 30
0.0
 40
0.0628889
 41
0.0628889
  0
VERTEX
  8
0
 10
-2.85531
 20
20.9851
 30
0.0
 40
0.0628889
 41
0.0628889
  0
VERTEX
  8
0
 10
-2.91726
 20
21.0157
 30
0.0
 40
0.0628889
 41
0.0628889
  0
VERTEX
  8
0
 10
-2.96451
 20
21.0492
 30
0.0
 40
0.0628889
 41
0.0628889
  0
VERTEX
  8
0
 10
-2.97868
 20
21.0619
 30
0.0
 40
0.0628889
 41
0.0628889
  0
VERTEX
  8
0
 10
-2.99311
 20
21.0751
 30
0.0
 40
0.0628889
 41
0.0628889
  0
VERTEX
  8
0
 10
-3.03944
 20
21.1108
 30
0.0
 40
0.0628889
 41
0.0628889
  0
VERTEX
  8
0
 10
-3.0995
 20
21.1483
 30
0.0
 40
0.0628889
 41
0.0628889
  0
VERTEX
  8
0
 10
-3.15196
 20
21.171
 30
0.0
 40
0.0628889
 41
0.0628889
  0
VERTEX
  8
0
 10
-3.18115
 20
21.1769
 30
0.0
 40
0.0628889
 41
0.0628889
  0
VERTEX
  8
0
 10
-3.18989
 20
21.1749
 30
0.0
 40
0.0628889
 41
0.0628889
  0
VERTEX
  8
0
 10
-3.19937
 20
21.1728
 30
0.0
 40
0.0628889
 41
0.0628889
  0
VERTEX
  8
0
 10
-3.23367
 20
21.1758
 30
0.0
 40
0.0628889
 41
0.0628889
  0
VERTEX
  8
0
 10
-3.30197
 20
21.1899
 30
0.0
 40
0.0628889
 41
0.0628889
  0
VERTEX
  8
0
 10
-3.38553
 20
21.2149
 30
0.0
 40
0.0628889
 41
0.0628889
  0
VERTEX
  8
0
 10
-3.45285
 20
21.2392
 30
0.0
 40
0.0628889
 41
0.0628889
  0
VERTEX
  8
0
 10
-3.47483
 20
21.2483
 30
0.0
 40
0.0628889
 41
0.0628889
  0
VERTEX
  8
0
 10
-3.49929
 20
21.2585
 30
0.0
 40
0.0628889
 41
0.0628889
  0
VERTEX
  8
0
 10
-3.57661
 20
21.2794
 30
0.0
 40
0.0628889
 41
0.0628889
  0
VERTEX
  8
0
 10
-3.69385
 20
21.2981
 30
0.0
 40
0.0628889
 41
0.0628889
  0
VERTEX
  8
0
 10
-3.81212
 20
21.3031
 30
0.0
 40
0.0628889
 41
0.0628889
  0
VERTEX
  8
0
 10
-3.89117
 20
21.2976
 30
0.0
 40
0.0628889
 41
0.0628889
  0
VERTEX
  8
0
 10
-3.91683
 20
21.2925
 30
0.0
 40
0.0628889
 41
0.0628889
  0
VERTEX
  8
0
 10
-3.94407
 20
21.2871
 30
0.0
 40
0.0628889
 41
0.0628889
  0
VERTEX
  8
0
 10
-4.02778
 20
21.2808
 30
0.0
 40
0.0628889
 41
0.0628889
  0
VERTEX
  8
0
 10
-4.12879
 20
21.2931
 30
0.0
 40
0.0628889
 41
0.0628889
  0
VERTEX
  8
0
 10
-4.22233
 20
21.3296
 30
0.0
 40
0.0628889
 41
0.0628889
  0
VERTEX
  8
0
 10
-4.29058
 20
21.3739
 30
0.0
 40
0.0628889
 41
0.0628889
  0
VERTEX
  8
0
 10
-4.31099
 20
21.3914
 30
0.0
 40
0.0628889
 41
0.0628889
  0
VERTEX
  8
0
 10
-4.32454
 20
21.4031
 30
0.0
 40
0.0628889
 41
0.0628889
  0
VERTEX
  8
0
 10
-4.36789
 20
21.4347
 30
0.0
 40
0.0628889
 41
0.0628889
  0
VERTEX
  8
0
 10
-4.43414
 20
21.4749
 30
0.0
 40
0.0628889
 41
0.0628889
  0
VERTEX
  8
0
 10
-4.51069
 20
21.5119
 30
0.0
 40
0.0628889
 41
0.0628889
  0
VERTEX
  8
0
 10
-4.59864
 20
21.546
 30
0.0
 40
0.0628889
 41
0.0628889
  0
VERTEX
  8
0
 10
-4.69894
 20
21.5772
 30
0.0
 40
0.0628889
 41
0.0628889
  0
VERTEX
  8
0
 10
-4.81267
 20
21.6058
 30
0.0
 40
0.0628889
 41
0.0628889
  0
VERTEX
  8
0
 10
-4.94086
 20
21.6321
 30
0.0
 40
0.0628889
 41
0.0628889
  0
VERTEX
  8
0
 10
-5.08453
 20
21.6558
 30
0.0
 40
0.0628889
 41
0.0628889
  0
VERTEX
  8
0
 10
-5.24474
 20
21.6775
 30
0.0
 40
0.0628889
 41
0.0628889
  0
VERTEX
  8
0
 10
-5.42242
 20
21.6972
 30
0.0
 40
0.0628889
 41
0.0628889
  0
VERTEX
  8
0
 10
-5.61865
 20
21.7149
 30
0.0
 40
0.0628889
 41
0.0628889
  0
VERTEX
  8
0
 10
-5.83447
 20
21.731
 30
0.0
 40
0.0628889
 41
0.0628889
  0
VERTEX
  8
0
 10
-6.0709
 20
21.7454
 30
0.0
 40
0.0628889
 41
0.0628889
  0
VERTEX
  8
0
 10
-6.329
 20
21.7586
 30
0.0
 40
0.0628889
 41
0.0628889
  0
VERTEX
  8
0
 10
-6.60975
 20
21.7704
 30
0.0
 40
0.0628889
 41
0.0628889
  0
VERTEX
  8
0
 10
-6.83806
 20
21.7786
 30
0.0
 40
0.0628889
 41
0.0628889
  0
VERTEX
  8
0
 10
-6.91411
 20
21.7811
 30
0.0
 40
0.0628889
 41
0.0628889
  0
VERTEX
  8
0
 10
-6.97825
 20
21.7832
 30
0.0
 40
0.0628889
 41
0.0628889
  0
VERTEX
  8
0
 10
-7.17068
 20
21.7892
 30
0.0
 40
0.0628889
 41
0.0628889
  0
VERTEX
  8
0
 10
-7.40256
 20
21.7957
 30
0.0
 40
0.0628889
 41
0.0628889
  0
VERTEX
  8
0
 10
-7.61247
 20
21.8006
 30
0.0
 40
0.0628889
 41
0.0628889
  0
VERTEX
  8
0
 10
-7.8029
 20
21.8038
 30
0.0
 40
0.0628889
 41
0.0628889
  0
VERTEX
  8
0
 10
-7.97651
 20
21.805
 30
0.0
 40
0.0628889
 41
0.0628889
  0
VERTEX
  8
0
 10
-8.13574
 20
21.8044
 30
0.0
 40
0.0628889
 41
0.0628889
  0
VERTEX
  8
0
 10
-8.28331
 20
21.8017
 30
0.0
 40
0.0628889
 41
0.0628889
  0
VERTEX
  8
0
 10
-8.42171
 20
21.7968
 30
0.0
 40
0.0628889
 41
0.0628889
  0
VERTEX
  8
0
 10
-8.5535
 20
21.7896
 30
0.0
 40
0.0628889
 41
0.0628889
  0
VERTEX
  8
0
 10
-8.68132
 20
21.78
 30
0.0
 40
0.0628889
 41
0.0628889
  0
VERTEX
  8
0
 10
-8.80772
 20
21.7679
 30
0.0
 40
0.0628889
 41
0.0628889
  0
VERTEX
  8
0
 10
-8.93522
 20
21.7531
 30
0.0
 40
0.0628889
 41
0.0628889
  0
VERTEX
  8
0
 10
-9.06646
 20
21.7354
 30
0.0
 40
0.0628889
 41
0.0628889
  0
VERTEX
  8
0
 10
-9.204
 20
21.715
 30
0.0
 40
0.0628889
 41
0.0628889
  0
VERTEX
  8
0
 10
-9.35042
 20
21.6915
 30
0.0
 40
0.0628889
 41
0.0628889
  0
VERTEX
  8
0
 10
-9.46886
 20
21.6718
 30
0.0
 40
0.0628889
 41
0.0628889
  0
VERTEX
  8
0
 10
-9.50825
 20
21.665
 30
0.0
 40
0.0628889
 41
0.0628889
  0
VERTEX
  8
0
 10
-9.60172
 20
21.649
 30
0.0
 40
0.0628889
 41
0.0628889
  0
VERTEX
  8
0
 10
-9.88157
 20
21.5981
 30
0.0
 40
0.0628889
 41
0.0628889
  0
VERTEX
  8
0
 10
-10.212
 20
21.5322
 30
0.0
 40
0.0628889
 41
0.0628889
  0
VERTEX
  8
0
 10
-10.5035
 20
21.4662
 30
0.0
 40
0.0628889
 41
0.0628889
  0
VERTEX
  8
0
 10
-10.7598
 20
21.399
 30
0.0
 40
0.0628889
 41
0.0628889
  0
VERTEX
  8
0
 10
-10.9849
 20
21.3294
 30
0.0
 40
0.0628889
 41
0.0628889
  0
VERTEX
  8
0
 10
-11.1826
 20
21.2565
 30
0.0
 40
0.0628889
 41
0.0628889
  0
VERTEX
  8
0
 10
-11.3568
 20
21.1792
 30
0.0
 40
0.0628889
 41
0.0628889
  0
VERTEX
  8
0
 10
-11.4736
 20
21.1185
 30
0.0
 40
0.0628889
 41
0.0628889
  0
VERTEX
  8
0
 10
-11.5113
 20
21.0963
 30
0.0
 40
0.0628889
 41
0.0628889
  0
VERTEX
  8
0
 10
-11.7566
 20
20.9515
 30
0.0
 40
0.0628889
 41
0.0628889
  0
VERTEX
  8
0
 10
-12.2243
 20
21.4296
 30
0.0
 40
0.0628889
 41
0.0628889
  0
VERTEX
  8
0
 10
-12.2501
 20
21.456
 30
0.0
 40
0.0628889
 41
0.0628889
  0
VERTEX
  8
0
 10
-12.3287
 20
21.534
 30
0.0
 40
0.0628889
 41
0.0628889
  0
VERTEX
  8
0
 10
-12.4462
 20
21.6478
 30
0.0
 40
0.0628889
 41
0.0628889
  0
VERTEX
  8
0
 10
-12.5729
 20
21.7671
 30
0.0
 40
0.0628889
 41
0.0628889
  0
VERTEX
  8
0
 10
-12.7048
 20
21.8883
 30
0.0
 40
0.0628889
 41
0.0628889
  0
VERTEX
  8
0
 10
-12.8377
 20
22.0081
 30
0.0
 40
0.0628889
 41
0.0628889
  0
VERTEX
  8
0
 10
-12.9677
 20
22.1222
 30
0.0
 40
0.0628889
 41
0.0628889
  0
VERTEX
  8
0
 10
-13.0908
 20
22.2275
 30
0.0
 40
0.0628889
 41
0.0628889
  0
VERTEX
  8
0
 10
-13.1747
 20
22.2974
 30
0.0
 40
0.0628889
 41
0.0628889
  0
VERTEX
  8
0
 10
-13.203
 20
22.3201
 30
0.0
 40
0.0628889
 41
0.0628889
  0
VERTEX
  8
0
 10
-13.2189
 20
22.3329
 30
0.0
 40
0.0628889
 41
0.0628889
  0
VERTEX
  8
0
 10
-13.2657
 20
22.3726
 30
0.0
 40
0.0628889
 41
0.0628889
  0
VERTEX
  8
0
 10
-13.3474
 20
22.4442
 30
0.0
 40
0.0628889
 41
0.0628889
  0
VERTEX
  8
0
 10
-13.4468
 20
22.5336
 30
0.0
 40
0.0628889
 41
0.0628889
  0
VERTEX
  8
0
 10
-13.5627
 20
22.6396
 30
0.0
 40
0.0628889
 41
0.0628889
  0
VERTEX
  8
0
 10
-13.6937
 20
22.7608
 30
0.0
 40
0.0628889
 41
0.0628889
  0
VERTEX
  8
0
 10
-13.8385
 20
22.8963
 30
0.0
 40
0.0628889
 41
0.0628889
  0
VERTEX
  8
0
 10
-13.9958
 20
23.0446
 30
0.0
 40
0.0628889
 41
0.0628889
  0
VERTEX
  8
0
 10
-14.1643
 20
23.2044
 30
0.0
 40
0.0628889
 41
0.0628889
  0
VERTEX
  8
0
 10
-14.3426
 20
23.3746
 30
0.0
 40
0.0628889
 41
0.0628889
  0
VERTEX
  8
0
 10
-14.5296
 20
23.554
 30
0.0
 40
0.0628889
 41
0.0628889
  0
VERTEX
  8
0
 10
-14.7237
 20
23.7411
 30
0.0
 40
0.0628889
 41
0.0628889
  0
VERTEX
  8
0
 10
-14.924
 20
23.935
 30
0.0
 40
0.0628889
 41
0.0628889
  0
VERTEX
  8
0
 10
-15.1288
 20
24.1342
 30
0.0
 40
0.0628889
 41
0.0628889
  0
VERTEX
  8
0
 10
-15.3369
 20
24.3374
 30
0.0
 40
0.0628889
 41
0.0628889
  0
VERTEX
  8
0
 10
-15.5471
 20
24.5436
 30
0.0
 40
0.0628889
 41
0.0628889
  0
VERTEX
  8
0
 10
-15.7053
 20
24.6994
 30
0.0
 40
0.0628889
 41
0.0628889
  0
VERTEX
  8
0
 10
-15.7579
 20
24.7514
 30
0.0
 40
0.0628889
 41
0.0628889
  0
VERTEX
  8
0
 10
-15.8104
 20
24.8032
 30
0.0
 40
0.0628889
 41
0.0628889
  0
VERTEX
  8
0
 10
-15.9679
 20
24.9589
 30
0.0
 40
0.0628889
 41
0.0628889
  0
VERTEX
  8
0
 10
-16.1757
 20
25.1639
 30
0.0
 40
0.0628889
 41
0.0628889
  0
VERTEX
  8
0
 10
-16.38
 20
25.3656
 30
0.0
 40
0.0628889
 41
0.0628889
  0
VERTEX
  8
0
 10
-16.5794
 20
25.5624
 30
0.0
 40
0.0628889
 41
0.0628889
  0
VERTEX
  8
0
 10
-16.7729
 20
25.7533
 30
0.0
 40
0.0628889
 41
0.0628889
  0
VERTEX
  8
0
 10
-16.9592
 20
25.9369
 30
0.0
 40
0.0628889
 41
0.0628889
  0
VERTEX
  8
0
 10
-17.1371
 20
26.1124
 30
0.0
 40
0.0628889
 41
0.0628889
  0
VERTEX
  8
0
 10
-17.3053
 20
26.2782
 30
0.0
 40
0.0628889
 41
0.0628889
  0
VERTEX
  8
0
 10
-17.4626
 20
26.4332
 30
0.0
 40
0.0628889
 41
0.0628889
  0
VERTEX
  8
0
 10
-17.6078
 20
26.5761
 30
0.0
 40
0.0628889
 41
0.0628889
  0
VERTEX
  8
0
 10
-17.7396
 20
26.7058
 30
0.0
 40
0.0628889
 41
0.0628889
  0
VERTEX
  8
0
 10
-17.8569
 20
26.8213
 30
0.0
 40
0.0628889
 41
0.0628889
  0
VERTEX
  8
0
 10
-17.9583
 20
26.9208
 30
0.0
 40
0.0628889
 41
0.0628889
  0
VERTEX
  8
0
 10
-18.0428
 20
27.0038
 30
0.0
 40
0.0628889
 41
0.0628889
  0
VERTEX
  8
0
 10
-18.1089
 20
27.0685
 30
0.0
 40
0.0628889
 41
0.0628889
  0
VERTEX
  8
0
 10
-18.1439
 20
27.1026
 30
0.0
 40
0.0628889
 41
0.0628889
  0
VERTEX
  8
0
 10
-18.1556
 20
27.1139
 30
0.0
 40
0.0628889
 41
0.0628889
  0
VERTEX
  8
0
 10
-18.2008
 20
27.1579
 30
0.0
 40
0.0628889
 41
0.0628889
  0
VERTEX
  8
0
 10
-18.3471
 20
27.2793
 30
0.0
 40
0.0628889
 41
0.0628889
  0
VERTEX
  8
0
 10
-18.5744
 20
27.4415
 30
0.0
 40
0.0628889
 41
0.0628889
  0
VERTEX
  8
0
 10
-18.8257
 20
27.5949
 30
0.0
 40
0.0628889
 41
0.0628889
  0
VERTEX
  8
0
 10
-19.0886
 20
27.7336
 30
0.0
 40
0.0628889
 41
0.0628889
  0
VERTEX
  8
0
 10
-19.3514
 20
27.8517
 30
0.0
 40
0.0628889
 41
0.0628889
  0
VERTEX
  8
0
 10
-19.6021
 20
27.9432
 30
0.0
 40
0.0628889
 41
0.0628889
  0
VERTEX
  8
0
 10
-19.8285
 20
28.0025
 30
0.0
 40
0.0628889
 41
0.0628889
  0
VERTEX
  8
0
 10
-19.971
 20
28.0235
 30
0.0
 40
0.0628889
 41
0.0628889
  0
VERTEX
  8
0
 10
-20.0186
 20
28.0235
 30
0.0
 40
0.0628889
 41
0.0628889
  0
VERTEX
  8
0
 10
-20.0501
 20
28.0235
 30
0.0
 40
0.0628889
 41
0.0628889
  0
VERTEX
  8
0
 10
-20.1449
 20
28.0178
 30
0.0
 40
0.0628889
 41
0.0628889
  0
VERTEX
  8
0
 10
-20.2728
 20
28.0014
 30
0.0
 40
0.0628889
 41
0.0628889
  0
VERTEX
  8
0
 10
-20.3983
 20
27.9757
 30
0.0
 40
0.0628889
 41
0.0628889
  0
VERTEX
  8
0
 10
-20.5171
 20
27.9421
 30
0.0
 40
0.0628889
 41
0.0628889
  0
VERTEX
  8
0
 10
-20.625
 20
27.9021
 30
0.0
 40
0.0628889
 41
0.0628889
  0
VERTEX
  8
0
 10
-20.7178
 20
27.8567
 30
0.0
 40
0.0628889
 41
0.0628889
  0
VERTEX
  8
0
 10
-20.7912
 20
27.8076
 30
0.0
 40
0.0628889
 41
0.0628889
  0
VERTEX
  8
0
 10
-20.8311
 20
27.7706
 30
0.0
 40
0.0628889
 41
0.0628889
  0
VERTEX
  8
0
 10
-20.8412
 20
27.756
 30
0.0
 40
0.0628889
 41
0.0628889
  0
VERTEX
  8
0
 10
-20.8485
 20
27.7458
 30
0.0
 40
0.0628889
 41
0.0628889
  0
VERTEX
  8
0
 10
-20.8658
 20
27.6853
 30
0.0
 40
0.0628889
 41
0.0628889
  0
VERTEX
  8
0
 10
-20.894
 20
27.5476
 30
0.0
 40
0.0628889
 41
0.0628889
  0
VERTEX
  8
0
 10
-20.9222
 20
27.3626
 30
0.0
 40
0.0628889
 41
0.0628889
  0
VERTEX
  8
0
 10
-20.9417
 20
27.2036
 30
0.0
 40
0.0628889
 41
0.0628889
  0
VERTEX
  8
0
 10
-20.9469
 20
27.1504
 30
0.0
 40
0.0628889
 41
0.0628889
  0
VERTEX
  8
0
 10
-20.9528
 20
27.0931
 30
0.0
 40
0.0628889
 41
0.0628889
  0
VERTEX
  8
0
 10
-20.9757
 20
26.9212
 30
0.0
 40
0.0628889
 41
0.0628889
  0
VERTEX
  8
0
 10
-21.014
 20
26.6899
 30
0.0
 40
0.0628889
 41
0.0628889
  0
VERTEX
  8
0
 10
-21.0574
 20
26.4833
 30
0.0
 40
0.0628889
 41
0.0628889
  0
VERTEX
  8
0
 10
-21.0872
 20
26.3665
 30
0.0
 40
0.0628889
 41
0.0628889
  0
VERTEX
  8
0
 10
-21.1003
 20
26.3286
 30
0.0
 40
0.0628889
 41
0.0628889
  0
VERTEX
  8
0
 10
-21.1165
 20
26.2813
 30
0.0
 40
0.0628889
 41
0.0628889
  0
VERTEX
  8
0
 10
-21.1431
 20
26.1317
 30
0.0
 40
0.0628889
 41
0.0628889
  0
VERTEX
  8
0
 10
-21.1464
 20
25.9138
 30
0.0
 40
0.0628889
 41
0.0628889
  0
VERTEX
  8
0
 10
-21.1128
 20
25.6819
 30
0.0
 40
0.0628889
 41
0.0628889
  0
VERTEX
  8
0
 10
-21.045
 20
25.4436
 30
0.0
 40
0.0628889
 41
0.0628889
  0
VERTEX
  8
0
 10
-20.9454
 20
25.2061
 30
0.0
 40
0.0628889
 41
0.0628889
  0
VERTEX
  8
0
 10
-20.8167
 20
24.9765
 30
0.0
 40
0.0628889
 41
0.0628889
  0
VERTEX
  8
0
 10
-20.6614
 20
24.7622
 30
0.0
 40
0.0628889
 41
0.0628889
  0
VERTEX
  8
0
 10
-20.5299
 20
24.6153
 30
0.0
 40
0.0628889
 41
0.0628889
  0
VERTEX
  8
0
 10
-20.4819
 20
24.5706
 30
0.0
 40
0.0628889
 41
0.0628889
  0
VERTEX
  8
0
 10
-20.4661
 20
24.5557
 30
0.0
 40
0.0628889
 41
0.0628889
  0
VERTEX
  8
0
 10
-20.42
 20
24.5092
 30
0.0
 40
0.0628889
 41
0.0628889
  0
VERTEX
  8
0
 10
-20.3719
 20
24.4506
 30
0.0
 40
0.0628889
 41
0.0628889
  0
VERTEX
  8
0
 10
-20.3361
 20
24.3879
 30
0.0
 40
0.0628889
 41
0.0628889
  0
VERTEX
  8
0
 10
-20.3106
 20
24.3143
 30
0.0
 40
0.0628889
 41
0.0628889
  0
VERTEX
  8
0
 10
-20.2938
 20
24.2232
 30
0.0
 40
0.0628889
 41
0.0628889
  0
VERTEX
  8
0
 10
-20.2839
 20
24.1079
 30
0.0
 40
0.0628889
 41
0.0628889
  0
VERTEX
  8
0
 10
-20.2792
 20
23.9615
 30
0.0
 40
0.0628889
 41
0.0628889
  0
VERTEX
  8
0
 10
-20.2781
 20
23.8233
 30
0.0
 40
0.0628889
 41
0.0628889
  0
VERTEX
  8
0
 10
-20.2781
 20
23.7772
 30
0.0
 40
0.0628889
 41
0.0628889
  0
VERTEX
  8
0
 10
-20.2781
 20
23.7131
 30
0.0
 40
0.0628889
 41
0.0628889
  0
VERTEX
  8
0
 10
-20.2714
 20
23.5203
 30
0.0
 40
0.0628889
 41
0.0628889
  0
VERTEX
  8
0
 10
-20.2515
 20
23.28
 30
0.0
 40
0.0628889
 41
0.0628889
  0
VERTEX
  8
0
 10
-20.2186
 20
23.0568
 30
0.0
 40
0.0628889
 41
0.0628889
  0
VERTEX
  8
0
 10
-20.1726
 20
22.851
 30
0.0
 40
0.0628889
 41
0.0628889
  0
VERTEX
  8
0
 10
-20.1136
 20
22.6631
 30
0.0
 40
0.0628889
 41
0.0628889
  0
VERTEX
  8
0
 10
-20.0419
 20
22.4932
 30
0.0
 40
0.0628889
 41
0.0628889
  0
VERTEX
  8
0
 10
-19.9575
 20
22.3419
 30
0.0
 40
0.0628889
 41
0.0628889
  0
VERTEX
  8
0
 10
-19.8867
 20
22.2408
 30
0.0
 40
0.0628889
 41
0.0628889
  0
VERTEX
  8
0
 10
-19.8604
 20
22.2094
 30
0.0
 40
0.0628889
 41
0.0628889
  0
VERTEX
  8
0
 10
-19.8439
 20
22.19
 30
0.0
 40
0.0628889
 41
0.0628889
  0
VERTEX
  8
0
 10
-19.7961
 20
22.1297
 30
0.0
 40
0.0628889
 41
0.0628889
  0
VERTEX
  8
0
 10
-19.744
 20
22.0543
 30
0.0
 40
0.0628889
 41
0.0628889
  0
VERTEX
  8
0
 10
-19.7011
 20
21.9754
 30
0.0
 40
0.0628889
 41
0.0628889
  0
VERTEX
  8
0
 10
-19.6651
 20
21.8853
 30
0.0
 40
0.0628889
 41
0.0628889
  0
VERTEX
  8
0
 10
-19.6332
 20
21.7763
 30
0.0
 40
0.0628889
 41
0.0628889
  0
VERTEX
  8
0
 10
-19.6028
 20
21.6406
 30
0.0
 40
0.0628889
 41
0.0628889
  0
VERTEX
  8
0
 10
-19.5713
 20
21.4704
 30
0.0
 40
0.0628889
 41
0.0628889
  0
VERTEX
  8
0
 10
-19.5443
 20
21.3113
 30
0.0
 40
0.0628889
 41
0.0628889
  0
VERTEX
  8
0
 10
-19.5357
 20
21.2581
 30
0.0
 40
0.0628889
 41
0.0628889
  0
VERTEX
  8
0
 10
-19.5331
 20
21.2411
 30
0.0
 40
0.0628889
 41
0.0628889
  0
VERTEX
  8
0
 10
-19.5194
 20
21.1908
 30
0.0
 40
0.0628889
 41
0.0628889
  0
VERTEX
  8
0
 10
-19.4903
 20
21.1069
 30
0.0
 40
0.0628889
 41
0.0628889
  0
VERTEX
  8
0
 10
-19.4499
 20
21.0097
 30
0.0
 40
0.0628889
 41
0.0628889
  0
VERTEX
  8
0
 10
-19.4
 20
20.9024
 30
0.0
 40
0.0628889
 41
0.0628889
  0
VERTEX
  8
0
 10
-19.3421
 20
20.7886
 30
0.0
 40
0.0628889
 41
0.0628889
  0
VERTEX
  8
0
 10
-19.2781
 20
20.6714
 30
0.0
 40
0.0628889
 41
0.0628889
  0
VERTEX
  8
0
 10
-19.2092
 20
20.5543
 30
0.0
 40
0.0628889
 41
0.0628889
  0
VERTEX
  8
0
 10
-19.1557
 20
20.4688
 30
0.0
 40
0.0628889
 41
0.0628889
  0
VERTEX
  8
0
 10
-19.1374
 20
20.4407
 30
0.0
 40
0.0628889
 41
0.0628889
  0
VERTEX
  8
0
 10
-19.1193
 20
20.4132
 30
0.0
 40
0.0628889
 41
0.0628889
  0
VERTEX
  8
0
 10
-19.0664
 20
20.3301
 30
0.0
 40
0.0628889
 41
0.0628889
  0
VERTEX
  8
0
 10
-19.0003
 20
20.2221
 30
0.0
 40
0.0628889
 41
0.0628889
  0
VERTEX
  8
0
 10
-18.9403
 20
20.1192
 30
0.0
 40
0.0628889
 41
0.0628889
  0
VERTEX
  8
0
 10
-18.8879
 20
20.0242
 30
0.0
 40
0.0628889
 41
0.0628889
  0
VERTEX
  8
0
 10
-18.8446
 20
19.9397
 30
0.0
 40
0.0628889
 41
0.0628889
  0
VERTEX
  8
0
 10
-18.8118
 20
19.8686
 30
0.0
 40
0.0628889
 41
0.0628889
  0
VERTEX
  8
0
 10
-18.791
 20
19.8136
 30
0.0
 40
0.0628889
 41
0.0628889
  0
VERTEX
  8
0
 10
-18.7836
 20
19.7865
 30
0.0
 40
0.0628889
 41
0.0628889
  0
VERTEX
  8
0
 10
-18.7836
 20
19.7774
 30
0.0
 40
0.0628889
 41
0.0628889
  0
VERTEX
  8
0
 10
-18.7835
 20
19.7535
 30
0.0
 40
0.0628889
 41
0.0628889
  0
VERTEX
  8
0
 10
-18.7667
 20
19.6817
 30
0.0
 40
0.0628889
 41
0.0628889
  0
VERTEX
  8
0
 10
-18.7211
 20
19.5444
 30
0.0
 40
0.0628889
 41
0.0628889
  0
VERTEX
  8
0
 10
-18.6535
 20
19.3792
 30
0.0
 40
0.0628889
 41
0.0628889
  0
VERTEX
  8
0
 10
-18.5706
 20
19.1997
 30
0.0
 40
0.0628889
 41
0.0628889
  0
VERTEX
  8
0
 10
-18.4789
 20
19.0196
 30
0.0
 40
0.0628889
 41
0.0628889
  0
VERTEX
  8
0
 10
-18.3851
 20
18.8526
 30
0.0
 40
0.0628889
 41
0.0628889
  0
VERTEX
  8
0
 10
-18.2961
 20
18.7126
 30
0.0
 40
0.0628889
 41
0.0628889
  0
VERTEX
  8
0
 10
-18.2399
 20
18.6361
 30
0.0
 40
0.0628889
 41
0.0628889
  0
VERTEX
  8
0
 10
-18.2183
 20
18.6131
 30
0.0
 40
0.0628889
 41
0.0628889
  0
VERTEX
  8
0
 10
-18.2007
 20
18.5943
 30
0.0
 40
0.0628889
 41
0.0628889
  0
VERTEX
  8
0
 10
-18.1546
 20
18.5315
 30
0.0
 40
0.0628889
 41
0.0628889
  0
VERTEX
  8
0
 10
-18.1008
 20
18.4376
 30
0.0
 40
0.0628889
 41
0.0628889
  0
VERTEX
  8
0
 10
-18.0631
 20
18.3431
 30
0.0
 40
0.0628889
 41
0.0628889
  0
VERTEX
  8
0
 10
-18.0478
 20
18.2806
 30
0.0
 40
0.0628889
 41
0.0628889
  0
VERTEX
  8
0
 10
-18.0467
 20
18.2594
 30
0.0
 40
0.0628889
 41
0.0628889
  0
VERTEX
  8
0
 10
-18.0457
 20
18.2396
 30
0.0
 40
0.0628889
 41
0.0628889
  0
VERTEX
  8
0
 10
-18.0325
 20
18.1808
 30
0.0
 40
0.0628889
 41
0.0628889
  0
VERTEX
  8
0
 10
-17.9993
 20
18.1199
 30
0.0
 40
0.0628889
 41
0.0628889
  0
VERTEX
  8
0
 10
-17.9482
 20
18.0778
 30
0.0
 40
0.0628889
 41
0.0628889
  0
VERTEX
  8
0
 10
-17.8978
 20
18.0585
 30
0.0
 40
0.0628889
 41
0.0628889
  0
VERTEX
  8
0
 10
-17.8804
 20
18.0558
 30
0.0
 40
0.0628889
 41
0.0628889
  0
VERTEX
  8
0
 10
-17.8704
 20
18.0544
 30
0.0
 40
0.0628889
 41
0.0628889
  0
VERTEX
  8
0
 10
-17.8415
 20
18.0426
 30
0.0
 40
0.0628889
 41
0.0628889
  0
VERTEX
  8
0
 10
-17.7962
 20
18.0147
 30
0.0
 40
0.0628889
 41
0.0628889
  0
VERTEX
  8
0
 10
-17.7457
 20
17.9736
 30
0.0
 40
0.0628889
 41
0.0628889
  0
VERTEX
  8
0
 10
-17.6911
 20
17.921
 30
0.0
 40
0.0628889
 41
0.0628889
  0
VERTEX
  8
0
 10
-17.6338
 20
17.8587
 30
0.0
 40
0.0628889
 41
0.0628889
  0
VERTEX
  8
0
 10
-17.5747
 20
17.7885
 30
0.0
 40
0.0628889
 41
0.0628889
  0
VERTEX
  8
0
 10
-17.5153
 20
17.7118
 30
0.0
 40
0.0628889
 41
0.0628889
  0
VERTEX
  8
0
 10
-17.4565
 20
17.6306
 30
0.0
 40
0.0628889
 41
0.0628889
  0
VERTEX
  8
0
 10
-17.3997
 20
17.5464
 30
0.0
 40
0.0628889
 41
0.0628889
  0
VERTEX
  8
0
 10
-17.346
 20
17.4611
 30
0.0
 40
0.0628889
 41
0.0628889
  0
VERTEX
  8
0
 10
-17.2965
 20
17.3761
 30
0.0
 40
0.0628889
 41
0.0628889
  0
VERTEX
  8
0
 10
-17.2525
 20
17.2935
 30
0.0
 40
0.0628889
 41
0.0628889
  0
VERTEX
  8
0
 10
-17.2151
 20
17.2144
 30
0.0
 40
0.0628889
 41
0.0628889
  0
VERTEX
  8
0
 10
-17.1857
 20
17.1411
 30
0.0
 40
0.0628889
 41
0.0628889
  0
VERTEX
  8
0
 10
-17.1651
 20
17.0751
 30
0.0
 40
0.0628889
 41
0.0628889
  0
VERTEX
  8
0
 10
-17.1563
 20
17.0324
 30
0.0
 40
0.0628889
 41
0.0628889
  0
VERTEX
  8
0
 10
-17.155
 20
17.0179
 30
0.0
 40
0.0628889
 41
0.0628889
  0
VERTEX
  8
0
 10
-17.1526
 20
16.9929
 30
0.0
 40
0.0628889
 41
0.0628889
  0
VERTEX
  8
0
 10
-17.144
 20
16.9179
 30
0.0
 40
0.0628889
 41
0.0628889
  0
VERTEX
  8
0
 10
-17.1275
 20
16.7908
 30
0.0
 40
0.0628889
 41
0.0628889
  0
VERTEX
  8
0
 10
-17.1076
 20
16.6531
 30
0.0
 40
0.0628889
 41
0.0628889
  0
VERTEX
  8
0
 10
-17.0922
 20
16.5538
 30
0.0
 40
0.0628889
 41
0.0628889
  0
VERTEX
  8
0
 10
-17.0867
 20
16.5207
 30
0.0
 40
0.0628889
 41
0.0628889
  0
VERTEX
  8
0
 10
-17.0819
 20
16.4924
 30
0.0
 40
0.0628889
 41
0.0628889
  0
VERTEX
  8
0
 10
-17.0729
 20
16.4063
 30
0.0
 40
0.0628889
 41
0.0628889
  0
VERTEX
  8
0
 10
-17.0731
 20
16.2926
 30
0.0
 40
0.0628889
 41
0.0628889
  0
VERTEX
  8
0
 10
-17.09
 20
16.1701
 30
0.0
 40
0.0628889
 41
0.0628889
  0
VERTEX
  8
0
 10
-17.1269
 20
16.0294
 30
0.0
 40
0.0628889
 41
0.0628889
  0
VERTEX
  8
0
 10
-17.1869
 20
15.8608
 30
0.0
 40
0.0628889
 41
0.0628889
  0
VERTEX
  8
0
 10
-17.2728
 20
15.6549
 30
0.0
 40
0.0628889
 41
0.0628889
  0
VERTEX
  8
0
 10
-17.3875
 20
15.4018
 30
0.0
 40
0.0628889
 41
0.0628889
  0
VERTEX
  8
0
 10
-17.4972
 20
15.1692
 30
0.0
 40
0.0628889
 41
0.0628889
  0
VERTEX
  8
0
 10
-17.5342
 20
15.0919
 30
0.0
 40
0.0628889
 41
0.0628889
  0
VERTEX
  8
0
 10
-17.5849
 20
14.9863
 30
0.0
 40
0.0628889
 41
0.0628889
  0
VERTEX
  8
0
 10
-17.7249
 20
14.6631
 30
0.0
 40
0.0628889
 41
0.0628889
  0
VERTEX
  8
0
 10
-17.8867
 20
14.231
 30
0.0
 40
0.0628889
 41
0.0628889
  0
VERTEX
  8
0
 10
-18.02
 20
13.7948
 30
0.0
 40
0.0628889
 41
0.0628889
  0
VERTEX
  8
0
 10
-18.1247
 20
13.3535
 30
0.0
 40
0.0628889
 41
0.0628889
  0
VERTEX
  8
0
 10
-18.2015
 20
12.9058
 30
0.0
 40
0.0628889
 41
0.0628889
  0
VERTEX
  8
0
 10
-18.2501
 20
12.451
 30
0.0
 40
0.0628889
 41
0.0628889
  0
VERTEX
  8
0
 10
-18.2711
 20
11.9877
 30
0.0
 40
0.0628889
 41
0.0628889
  0
VERTEX
  8
0
 10
-18.2696
 20
11.6331
 30
0.0
 40
0.0628889
 41
0.0628889
  0
VERTEX
  8
0
 10
-18.2644
 20
11.5151
 30
0.0
 40
0.0628889
 41
0.0628889
  0
VERTEX
  8
0
 10
-18.2621
 20
11.4569
 30
0.0
 40
0.0628889
 41
0.0628889
  0
VERTEX
  8
0
 10
-18.2519
 20
11.2821
 30
0.0
 40
0.0628889
 41
0.0628889
  0
VERTEX
  8
0
 10
-18.2344
 20
11.0557
 30
0.0
 40
0.0628889
 41
0.0628889
  0
VERTEX
  8
0
 10
-18.2124
 20
10.8372
 30
0.0
 40
0.0628889
 41
0.0628889
  0
VERTEX
  8
0
 10
-18.1858
 20
10.6277
 30
0.0
 40
0.0628889
 41
0.0628889
  0
VERTEX
  8
0
 10
-18.1556
 20
10.4284
 30
0.0
 40
0.0628889
 41
0.0628889
  0
VERTEX
  8
0
 10
-18.1214
 20
10.2405
 30
0.0
 40
0.0628889
 41
0.0628889
  0
VERTEX
  8
0
 10
-18.084
 20
10.065
 30
0.0
 40
0.0628889
 41
0.0628889
  0
VERTEX
  8
0
 10
-18.0435
 20
9.9031
 30
0.0
 40
0.0628889
 41
0.0628889
  0
VERTEX
  8
0
 10
-18.0003
 20
9.75597
 30
0.0
 40
0.0628889
 41
0.0628889
  0
VERTEX
  8
0
 10
-17.9546
 20
9.62478
 30
0.0
 40
0.0628889
 41
0.0628889
  0
VERTEX
  8
0
 10
-17.9068
 20
9.51058
 30
0.0
 40
0.0628889
 41
0.0628889
  0
VERTEX
  8
0
 10
-17.8572
 20
9.41461
 30
0.0
 40
0.0628889
 41
0.0628889
  0
VERTEX
  8
0
 10
-17.8061
 20
9.33794
 30
0.0
 40
0.0628889
 41
0.0628889
  0
VERTEX
  8
0
 10
-17.7539
 20
9.28179
 30
0.0
 40
0.0628889
 41
0.0628889
  0
VERTEX
  8
0
 10
-17.7007
 20
9.24724
 30
0.0
 40
0.0628889
 41
0.0628889
  0
VERTEX
  8
0
 10
-17.6604
 20
9.23546
 30
0.0
 40
0.0628889
 41
0.0628889
  0
VERTEX
  8
0
 10
-17.6469
 20
9.23546
 30
0.0
 40
0.0628889
 41
0.0628889
  0
VERTEX
  8
0
 10
-17.6382
 20
9.23546
 30
0.0
 40
0.0628889
 41
0.0628889
  0
VERTEX
  8
0
 10
-17.6118
 20
9.23008
 30
0.0
 40
0.0628889
 41
0.0628889
  0
VERTEX
  8
0
 10
-17.5843
 20
9.21149
 30
0.0
 40
0.0628889
 41
0.0628889
  0
VERTEX
  8
0
 10
-17.5633
 20
9.17578
 30
0.0
 40
0.0628889
 41
0.0628889
  0
VERTEX
  8
0
 10
-17.5486
 20
9.11931
 30
0.0
 40
0.0628889
 41
0.0628889
  0
VERTEX
  8
0
 10
-17.5394
 20
9.03825
 30
0.0
 40
0.0628889
 41
0.0628889
  0
VERTEX
  8
0
 10
-17.5351
 20
8.92882
 30
0.0
 40
0.0628889
 41
0.0628889
  0
VERTEX
  8
0
 10
-17.5349
 20
8.78728
 30
0.0
 40
0.0628889
 41
0.0628889
  0
VERTEX
  8
0
 10
-17.5371
 20
8.65419
 30
0.0
 40
0.0628889
 41
0.0628889
  0
VERTEX
  8
0
 10
-17.5382
 20
8.60981
 30
0.0
 40
0.0628889
 41
0.0628889
  0
VERTEX
  8
0
 10
-17.5399
 20
8.53879
 30
0.0
 40
0.0628889
 41
0.0628889
  0
VERTEX
  8
0
 10
-17.5511
 20
8.32568
 30
0.0
 40
0.0628889
 41
0.0628889
  0
VERTEX
  8
0
 10
-17.5747
 20
8.12381
 30
0.0
 40
0.0628889
 41
0.0628889
  0
VERTEX
  8
0
 10
-17.61
 20
7.99854
 30
0.0
 40
0.0628889
 41
0.0628889
  0
VERTEX
  8
0
 10
-17.6431
 20
7.94982
 30
0.0
 40
0.0628889
 41
0.0628889
  0
VERTEX
  8
0
 10
-17.6581
 20
7.94407
 30
0.0
 40
0.0628889
 41
0.0628889
  0
VERTEX
  8
0
 10
-17.6676
 20
7.94043
 30
0.0
 40
0.0628889
 41
0.0628889
  0
VERTEX
  8
0
 10
-17.6986
 20
7.93533
 30
0.0
 40
0.0628889
 41
0.0628889
  0
VERTEX
  8
0
 10
-17.7318
 20
7.94097
 30
0.0
 40
0.0628889
 41
0.0628889
  0
VERTEX
  8
0
 10
-17.7542
 20
7.95964
 30
0.0
 40
0.0628889
 41
0.0628889
  0
VERTEX
  8
0
 10
-17.7624
 20
7.98226
 30
0.0
 40
0.0628889
 41
0.0628889
  0
VERTEX
  8
0
 10
-17.7624
 20
7.98975
 30
0.0
 40
0.0628889
 41
0.0628889
  0
VERTEX
  8
0
 10
-17.7624
 20
7.99804
 30
0.0
 40
0.0628889
 41
0.0628889
  0
VERTEX
  8
0
 10
-17.7685
 20
8.02285
 30
0.0
 40
0.0628889
 41
0.0628889
  0
VERTEX
  8
0
 10
-17.7867
 20
8.0351
 30
0.0
 40
0.0628889
 41
0.0628889
  0
VERTEX
  8
0
 10
-17.8174
 20
8.02653
 30
0.0
 40
0.0628889
 41
0.0628889
  0
VERTEX
  8
0
 10
-17.8504
 20
8.00532
 30
0.0
 40
0.0628889
 41
0.0628889
  0
VERTEX
  8
0
 10
-17.8607
 20
7.99718
 30
0.0
 40
0.0628889
 41
0.0628889
  0
VERTEX
  8
0
 10
-17.8689
 20
7.99067
 30
0.0
 40
0.0628889
 41
0.0628889
  0
VERTEX
  8
0
 10
-17.9006
 20
7.9796
 30
0.0
 40
0.0628889
 41
0.0628889
  0
VERTEX
  8
0
 10
-17.9764
 20
7.95958
 30
0.0
 40
0.0628889
 41
0.0628889
  0
VERTEX
  8
0
 10
-18.084
 20
7.93782
 30
0.0
 40
0.0628889
 41
0.0628889
  0
VERTEX
  8
0
 10
-18.2188
 20
7.91499
 30
0.0
 40
0.0628889
 41
0.0628889
  0
VERTEX
  8
0
 10
-18.3764
 20
7.89188
 30
0.0
 40
0.0628889
 41
0.0628889
  0
VERTEX
  8
0
 10
-18.5524
 20
7.86908
 30
0.0
 40
0.0628889
 41
0.0628889
  0
VERTEX
  8
0
 10
-18.7422
 20
7.84733
 30
0.0
 40
0.0628889
 41
0.0628889
  0
VERTEX
  8
0
 10
-18.8918
 20
7.83197
 30
0.0
 40
0.0628889
 41
0.0628889
  0
VERTEX
  8
0
 10
-18.9417
 20
7.82731
 30
0.0
 40
0.0628889
 41
0.0628889
  0
VERTEX
  8
0
 10
-18.9933
 20
7.82254
 30
0.0
 40
0.0628889
 41
0.0628889
  0
VERTEX
  8
0
 10
-19.1482
 20
7.80767
 30
0.0
 40
0.0628889
 41
0.0628889
  0
VERTEX
  8
0
 10
-19.3587
 20
7.78689
 30
0.0
 40
0.0628889
 41
0.0628889
  0
VERTEX
  8
0
 10
-19.5672
 20
7.76557
 30
0.0
 40
0.0628889
 41
0.0628889
  0
VERTEX
  8
0
 10
-19.7679
 20
7.74442
 30
0.0
 40
0.0628889
 41
0.0628889
  0
VERTEX
  8
0
 10
-19.9549
 20
7.72401
 30
0.0
 40
0.0628889
 41
0.0628889
  0
VERTEX
  8
0
 10
-20.1221
 20
7.70497
 30
0.0
 40
0.0628889
 41
0.0628889
  0
VERTEX
  8
0
 10
-20.2639
 20
7.68793
 30
0.0
 40
0.0628889
 41
0.0628889
  0
VERTEX
  8
0
 10
-20.3468
 20
7.6774
 30
0.0
 40
0.0628889
 41
0.0628889
  0
VERTEX
  8
0
 10
-20.3744
 20
7.67356
 30
0.0
 40
0.0628889
 41
0.0628889
  0
VERTEX
  8
0
 10
-20.404
 20
7.66949
 30
0.0
 40
0.0628889
 41
0.0628889
  0
VERTEX
  8
0
 10
-20.4938
 20
7.66189
 30
0.0
 40
0.0628889
 41
0.0628889
  0
VERTEX
  8
0
 10
-20.6578
 20
7.65278
 30
0.0
 40
0.0628889
 41
0.0628889
  0
VERTEX
  8
0
 10
-20.8594
 20
7.64615
 30
0.0
 40
0.0628889
 41
0.0628889
  0
VERTEX
  8
0
 10
-21.0917
 20
7.64188
 30
0.0
 40
0.0628889
 41
0.0628889
  0
VERTEX
  8
0
 10
-21.3472
 20
7.63986
 30
0.0
 40
0.0628889
 41
0.0628889
  0
VERTEX
  8
0
 10
-21.6189
 20
7.63997
 30
0.0
 40
0.0628889
 41
0.0628889
  0
VERTEX
  8
0
 10
-21.8997
 20
7.64204
 30
0.0
 40
0.0628889
 41
0.0628889
  0
VERTEX
  8
0
 10
-22.1825
 20
7.646
 30
0.0
 40
0.0628889
 41
0.0628889
  0
VERTEX
  8
0
 10
-22.4601
 20
7.65169
 30
0.0
 40
0.0628889
 41
0.0628889
  0
VERTEX
  8
0
 10
-22.7253
 20
7.65901
 30
0.0
 40
0.0628889
 41
0.0628889
  0
VERTEX
  8
0
 10
-22.9711
 20
7.66786
 30
0.0
 40
0.0628889
 41
0.0628889
  0
VERTEX
  8
0
 10
-23.1903
 20
7.67806
 30
0.0
 40
0.0628889
 41
0.0628889
  0
VERTEX
  8
0
 10
-23.3757
 20
7.68951
 30
0.0
 40
0.0628889
 41
0.0628889
  0
VERTEX
  8
0
 10
-23.5203
 20
7.7021
 30
0.0
 40
0.0628889
 41
0.0628889
  0
VERTEX
  8
0
 10
-23.6168
 20
7.71571
 30
0.0
 40
0.0628889
 41
0.0628889
  0
VERTEX
  8
0
 10
-23.6526
 20
7.72293
 30
0.0
 40
0.0628889
 41
0.0628889
  0
VERTEX
  8
0
 10
-23.6582
 20
7.73014
 30
0.0
 40
0.0628889
 41
0.0628889
  0
VERTEX
  8
0
 10
-23.6638
 20
7.73719
 30
0.0
 40
0.0628889
 41
0.0628889
  0
VERTEX
  8
0
 10
-23.6953
 20
7.75103
 30
0.0
 40
0.0628889
 41
0.0628889
  0
VERTEX
  8
0
 10
-23.7668
 20
7.77024
 30
0.0
 40
0.0628889
 41
0.0628889
  0
VERTEX
  8
0
 10
-23.8628
 20
7.7856
 30
0.0
 40
0.0628889
 41
0.0628889
  0
VERTEX
  8
0
 10
-23.9451
 20
7.79357
 30
0.0
 40
0.0628889
 41
0.0628889
  0
VERTEX
  8
0
 10
-23.9728
 20
7.79492
 30
0.0
 40
0.0628889
 41
0.0628889
  0
VERTEX
  8
0
 10
-24.0057
 20
7.7966
 30
0.0
 40
0.0628889
 41
0.0628889
  0
VERTEX
  8
0
 10
-24.1044
 20
7.80306
 30
0.0
 40
0.0628889
 41
0.0628889
  0
VERTEX
  8
0
 10
-24.2594
 20
7.81489
 30
0.0
 40
0.0628889
 41
0.0628889
  0
VERTEX
  8
0
 10
-24.4185
 20
7.82894
 30
0.0
 40
0.0628889
 41
0.0628889
  0
VERTEX
  8
0
 10
-24.5264
 20
7.83951
 30
0.0
 40
0.0628889
 41
0.0628889
  0
VERTEX
  8
0
 10
-24.5622
 20
7.84347
 30
0.0
 40
0.0628889
 41
0.0628889
  0
VERTEX
  8
0
 10
-24.6042
 20
7.84814
 30
0.0
 40
0.0628889
 41
0.0628889
  0
VERTEX
  8
0
 10
-24.7296
 20
7.86176
 30
0.0
 40
0.0628889
 41
0.0628889
  0
VERTEX
  8
0
 10
-24.9524
 20
7.88569
 30
0.0
 40
0.0628889
 41
0.0628889
  0
VERTEX
  8
0
 10
-25.2017
 20
7.91228
 30
0.0
 40
0.0628889
 41
0.0628889
  0
VERTEX
  8
0
 10
-25.3867
 20
7.93186
 30
0.0
 40
0.0628889
 41
0.0628889
  0
VERTEX
  8
0
 10
-25.4485
 20
7.93832
 30
0.0
 40
0.0628889
 41
0.0628889
  0
VERTEX
  8
0
 10
-25.5049
 20
7.94422
 30
0.0
 40
0.0628889
 41
0.0628889
  0
VERTEX
  8
0
 10
-25.6739
 20
7.96712
 30
0.0
 40
0.0628889
 41
0.0628889
  0
VERTEX
  8
0
 10
-25.8649
 20
8.00114
 30
0.0
 40
0.0628889
 41
0.0628889
  0
VERTEX
  8
0
 10
-26.0012
 20
8.03614
 30
0.0
 40
0.0628889
 41
0.0628889
  0
VERTEX
  8
0
 10
-26.0572
 20
8.05832
 30
0.0
 40
0.0628889
 41
0.0628889
  0
VERTEX
  8
0
 10
-26.0631
 20
8.06788
 30
0.0
 40
0.0628889
 41
0.0628889
  0
VERTEX
  8
0
 10
-26.0672
 20
8.07465
 30
0.0
 40
0.0628889
 41
0.0628889
  0
VERTEX
  8
0
 10
-26.0849
 20
8.09185
 30
0.0
 40
0.0628889
 41
0.0628889
  0
VERTEX
  8
0
 10
-26.1119
 20
8.10558
 30
0.0
 40
0.0628889
 41
0.0628889
  0
VERTEX
  8
0
 10
-26.1413
 20
8.10818
 30
0.0
 40
0.0628889
 41
0.0628889
  0
VERTEX
  8
0
 10
-26.1629
 20
8.10232
 30
0.0
 40
0.0628889
 41
0.0628889
  0
VERTEX
  8
0
 10
-26.169
 20
8.09853
 30
0.0
 40
0.0628889
 41
0.0628889
  0
VERTEX
  8
0
 10
-26.1778
 20
8.09321
 30
0.0
 40
0.0628889
 41
0.0628889
  0
VERTEX
  8
0
 10
-26.2269
 20
8.09201
 30
0.0
 40
0.0628889
 41
0.0628889
  0
VERTEX
  8
0
 10
-26.3378
 20
8.10292
 30
0.0
 40
0.0628889
 41
0.0628889
  0
VERTEX
  8
0
 10
-26.4858
 20
8.12907
 30
0.0
 40
0.0628889
 41
0.0628889
  0
VERTEX
  8
0
 10
-26.6129
 20
8.15739
 30
0.0
 40
0.0628889
 41
0.0628889
  0
VERTEX
  8
0
 10
-26.655
 20
8.16812
 30
0.0
 40
0.0628889
 41
0.0628889
  0
VERTEX
  8
0
 10
-26.7064
 20
8.18138
 30
0.0
 40
0.0628889
 41
0.0628889
  0
VERTEX
  8
0
 10
-26.8619
 20
8.21685
 30
0.0
 40
0.0628889
 41
0.0628889
  0
VERTEX
  8
0
 10
-27.1126
 20
8.26915
 30
0.0
 40
0.0628889
 41
0.0628889
  0
VERTEX
  8
0
 10
-27.3757
 20
8.31879
 30
0.0
 40
0.0628889
 41
0.0628889
  0
VERTEX
  8
0
 10
-27.5583
 20
8.35021
 30
0.0
 40
0.0628889
 41
0.0628889
  0
VERTEX
  8
0
 10
-27.6193
 20
8.35949
 30
0.0
 40
0.0628889
 41
0.0628889
  0
VERTEX
  8
0
 10
-27.6792
 20
8.36865
 30
0.0
 40
0.0628889
 41
0.0628889
  0
VERTEX
  8
0
 10
-27.8575
 20
8.40479
 30
0.0
 40
0.0628889
 41
0.0628889
  0
VERTEX
  8
0
 10
-28.0607
 20
8.46126
 30
0.0
 40
0.0628889
 41
0.0628889
  0
VERTEX
  8
0
 10
-28.2201
 20
8.5261
 30
0.0
 40
0.0628889
 41
0.0628889
  0
VERTEX
  8
0
 10
-28.3038
 20
8.57482
 30
0.0
 40
0.0628889
 41
0.0628889
  0
VERTEX
  8
0
 10
-28.3268
 20
8.59619
 30
0.0
 40
0.0628889
 41
0.0628889
  0
VERTEX
  8
0
 10
-28.3372
 20
8.60585
 30
0.0
 40
0.0628889
 41
0.0628889
  0
VERTEX
  8
0
 10
-28.3728
 20
8.62993
 30
0.0
 40
0.0628889
 41
0.0628889
  0
VERTEX
  8
0
 10
-28.4339
 20
8.66118
 30
0.0
 40
0.0628889
 41
0.0628889
  0
VERTEX
  8
0
 10
-28.5075
 20
8.68967
 30
0.0
 40
0.0628889
 41
0.0628889
  0
VERTEX
  8
0
 10
-28.5911
 20
8.71522
 30
0.0
 40
0.0628889
 41
0.0628889
  0
VERTEX
  8
0
 10
-28.6824
 20
8.73757
 30
0.0
 40
0.0628889
 41
0.0628889
  0
VERTEX
  8
0
 10
-28.7786
 20
8.75646
 30
0.0
 40
0.0628889
 41
0.0628889
  0
VERTEX
  8
0
 10
-28.8776
 20
8.77171
 30
0.0
 40
0.0628889
 41
0.0628889
  0
VERTEX
  8
0
 10
-28.9767
 20
8.78304
 30
0.0
 40
0.0628889
 41
0.0628889
  0
VERTEX
  8
0
 10
-29.0733
 20
8.79021
 30
0.0
 40
0.0628889
 41
0.0628889
  0
VERTEX
  8
0
 10
-29.1651
 20
8.79303
 30
0.0
 40
0.0628889
 41
0.0628889
  0
VERTEX
  8
0
 10
-29.2497
 20
8.79124
 30
0.0
 40
0.0628889
 41
0.0628889
  0
VERTEX
  8
0
 10
-29.3244
 20
8.78456
 30
0.0
 40
0.0628889
 41
0.0628889
  0
VERTEX
  8
0
 10
-29.3869
 20
8.77285
 30
0.0
 40
0.0628889
 41
0.0628889
  0
VERTEX
  8
0
 10
-29.4346
 20
8.75581
 30
0.0
 40
0.0628889
 41
0.0628889
  0
VERTEX
  8
0
 10
-29.465
 20
8.73324
 30
0.0
 40
0.0628889
 41
0.0628889
  0
VERTEX
  8
0
 10
-29.4757
 20
8.71192
 30
0.0
 40
0.0628889
 41
0.0628889
  0
VERTEX
  8
0
 10
-29.4757
 20
8.70481
 30
0.0
 40
0.0628889
 41
0.0628889
  0
VERTEX
  8
0
 10
-29.4757
 20
8.69532
 30
0.0
 40
0.0628889
 41
0.0628889
  0
VERTEX
  8
0
 10
-29.4818
 20
8.66667
 30
0.0
 40
0.0628889
 41
0.0628889
  0
VERTEX
  8
0
 10
-29.4986
 20
8.63542
 30
0.0
 40
0.0628889
 41
0.0628889
  0
VERTEX
  8
0
 10
-29.5236
 20
8.61431
 30
0.0
 40
0.0628889
 41
0.0628889
  0
VERTEX
  8
0
 10
-29.5465
 20
8.60656
 30
0.0
 40
0.0628889
 41
0.0628889
  0
VERTEX
  8
0
 10
-29.554
 20
8.60656
 30
0.0
 40
0.0628889
 41
0.0628889
  0
VERTEX
  8
0
 10
-29.5618
 20
8.60656
 30
0.0
 40
0.0628889
 41
0.0628889
  0
VERTEX
  8
0
 10
-29.5846
 20
8.58513
 30
0.0
 40
0.0628889
 41
0.0628889
  0
VERTEX
  8
0
 10
-29.6096
 20
8.52675
 30
0.0
 40
0.0628889
 41
0.0628889
  0
VERTEX
  8
0
 10
-29.6265
 20
8.44032
 30
0.0
 40
0.0628889
 41
0.0628889
  0
VERTEX
  8
0
 10
-29.6326
 20
8.36117
 30
0.0
 40
0.0628889
 41
0.0628889
  0
VERTEX
  8
0
 10
-29.6326
 20
8.33475
 30
0.0
 40
0.0628889
 41
0.0628889
  0
VERTEX
  8
0
 10
-29.6326
 20
8.31446
 30
0.0
 40
0.0628889
 41
0.0628889
  0
VERTEX
  8
0
 10
-29.6304
 20
8.25353
 30
0.0
 40
0.0628889
 41
0.0628889
  0
VERTEX
  8
0
 10
-29.6215
 20
8.18571
 30
0.0
 40
0.0628889
 41
0.0628889
  0
VERTEX
  8
0
 10
-29.6039
 20
8.12799
 30
0.0
 40
0.0628889
 41
0.0628889
  0
VERTEX
  8
0
 10
-29.5751
 20
8.07687
 30
0.0
 40
0.0628889
 41
0.0628889
  0
VERTEX
  8
0
 10
-29.5326
 20
8.02908
 30
0.0
 40
0.0628889
 41
0.0628889
  0
VERTEX
  8
0
 10
-29.474
 20
7.98128
 30
0.0
 40
0.0628889
 41
0.0628889
  0
VERTEX
  8
0
 10
-29.3968
 20
7.93001
 30
0.0
 40
0.0628889
 41
0.0628889
  0
VERTEX
  8
0
 10
-29.3233
 20
7.88613
 30
0.0
 40
0.0628889
 41
0.0628889
  0
VERTEX
  8
0
 10
-29.2986
 20
7.87196
 30
0.0
 40
0.0628889
 41
0.0628889
  0
VERTEX
  8
0
 10
-29.2572
 20
7.84831
 30
0.0
 40
0.0628889
 41
0.0628889
  0
VERTEX
  8
0
 10
-29.1256
 20
7.7901
 30
0.0
 40
0.0628889
 41
0.0628889
  0
VERTEX
  8
0
 10
-28.9011
 20
7.70833
 30
0.0
 40
0.0628889
 41
0.0628889
  0
VERTEX
  8
0
 10
-28.6543
 20
7.63618
 30
0.0
 40
0.0628889
 41
0.0628889
  0
VERTEX
  8
0
 10
-28.4747
 20
7.59386
 30
0.0
 40
0.0628889
 41
0.0628889
  0
VERTEX
  8
0
 10
-28.4142
 20
7.58306
 30
0.0
 40
0.0628889
 41
0.0628889
  0
VERTEX
  8
0
 10
-28.3592
 20
7.57329
 30
0.0
 40
0.0628889
 41
0.0628889
  0
VERTEX
  8
0
 10
-28.1944
 20
7.5415
 30
0.0
 40
0.0628889
 41
0.0628889
  0
VERTEX
  8
0
 10
-28.0029
 20
7.50076
 30
0.0
 40
0.0628889
 41
0.0628889
  0
VERTEX
  8
0
 10
-27.8601
 20
7.4655
 30
0.0
 40
0.0628889
 41
0.0628889
  0
VERTEX
  8
0
 10
-27.7974
 20
7.4465
 30
0.0
 40
0.0628889
 41
0.0628889
  0
VERTEX
  8
0
 10
-27.7867
 20
7.44032
 30
0.0
 40
0.0628889
 41
0.0628889
  0
VERTEX
  8
0
 10
-27.7774
 20
7.4349
 30
0.0
 40
0.0628889
 41
0.0628889
  0
VERTEX
  8
0
 10
-27.7474
 20
7.42165
 30
0.0
 40
0.0628889
 41
0.0628889
  0
VERTEX
  8
0
 10
-27.6972
 20
7.40392
 30
0.0
 40
0.0628889
 41
0.0628889
  0
VERTEX
  8
0
 10
-27.6426
 20
7.38911
 30
0.0
 40
0.0628889
 41
0.0628889
  0
VERTEX
  8
0
 10
-27.6035
 20
7.38103
 30
0.0
 40
0.0628889
 41
0.0628889
  0
VERTEX
  8
0
 10
-27.5903
 20
7.37918
 30
0.0
 40
0.0628889
 41
0.0628889
  0
VERTEX
  8
0
 10
-27.5747
 20
7.37711
 30
0.0
 40
0.0628889
 41
0.0628889
  0
VERTEX
  8
0
 10
-27.5285
 20
7.36876
 30
0.0
 40
0.0628889
 41
0.0628889
  0
VERTEX
  8
0
 10
-27.4482
 20
7.35243
 30
0.0
 40
0.0628889
 41
0.0628889
  0
VERTEX
  8
0
 10
-27.3601
 20
7.33236
 30
0.0
 40
0.0628889
 41
0.0628889
  0
VERTEX
  8
0
 10
-27.2957
 20
7.31651
 30
0.0
 40
0.0628889
 41
0.0628889
  0
VERTEX
  8
0
 10
-27.2743
 20
7.31087
 30
0.0
 40
0.0628889
 41
0.0628889
  0
VERTEX
  8
0
 10
-27.2474
 20
7.30376
 30
0.0
 40
0.0628889
 41
0.0628889
  0
VERTEX
  8
0
 10
-27.1508
 20
7.28549
 30
0.0
 40
0.0628889
 41
0.0628889
  0
VERTEX
  8
0
 10
-26.9599
 20
7.25461
 30
0.0
 40
0.0628889
 41
0.0628889
  0
VERTEX
  8
0
 10
-26.7274
 20
7.22228
 30
0.0
 40
0.0628889
 41
0.0628889
  0
VERTEX
  8
0
 10
-26.5415
 20
7.19922
 30
0.0
 40
0.0628889
 41
0.0628889
  0
VERTEX
  8
0
 10
-26.4796
 20
7.19233
 30
0.0
 40
0.0628889
 41
0.0628889
  0
VERTEX
  8
0
 10
-26.4281
 20
7.18664
 30
0.0
 40
0.0628889
 41
0.0628889
  0
VERTEX
  8
0
 10
-26.2739
 20
7.16829
 30
0.0
 40
0.0628889
 41
0.0628889
  0
VERTEX
  8
0
 10
-26.0893
 20
7.14367
 30
0.0
 40
0.0628889
 41
0.0628889
  0
VERTEX
  8
0
 10
-25.9244
 20
7.11778
 30
0.0
 40
0.0628889
 41
0.0628889
  0
VERTEX
  8
0
 10
-25.7781
 20
7.08974
 30
0.0
 40
0.0628889
 41
0.0628889
  0
VERTEX
  8
0
 10
-25.6486
 20
7.05875
 30
0.0
 40
0.0628889
 41
0.0628889
  0
VERTEX
  8
0
 10
-25.5347
 20
7.02408
 30
0.0
 40
0.0628889
 41
0.0628889
  0
VERTEX
  8
0
 10
-25.4353
 20
6.98481
 30
0.0
 40
0.0628889
 41
0.0628889
  0
VERTEX
  8
0
 10
-25.3486
 20
6.94026
 30
0.0
 40
0.0628889
 41
0.0628889
  0
VERTEX
  8
0
 10
-25.2736
 20
6.88954
 30
0.0
 40
0.0628889
 41
0.0628889
  0
VERTEX
  8
0
 10
-25.2086
 20
6.83187
 30
0.0
 40
0.0628889
 41
0.0628889
  0
VERTEX
  8
0
 10
-25.1525
 20
6.76644
 30
0.0
 40
0.0628889
 41
0.0628889
  0
VERTEX
  8
0
 10
-25.1039
 20
6.69249
 30
0.0
 40
0.0628889
 41
0.0628889
  0
VERTEX
  8
0
 10
-25.0615
 20
6.6091
 30
0.0
 40
0.0628889
 41
0.0628889
  0
VERTEX
  8
0
 10
-25.0236
 20
6.51563
 30
0.0
 40
0.0628889
 41
0.0628889
  0
VERTEX
  8
0
 10
-24.9892
 20
6.41114
 30
0.0
 40
0.0628889
 41
0.0628889
  0
VERTEX
  8
0
 10
-24.9643
 20
6.32406
 30
0.0
 40
0.0628889
 41
0.0628889
  0
VERTEX
  8
0
 10
-24.9568
 20
6.29486
 30
0.0
 40
0.0628889
 41
0.0628889
  0
VERTEX
  8
0
 10
-24.9478
 20
6.26047
 30
0.0
 40
0.0628889
 41
0.0628889
  0
VERTEX
  8
0
 10
-24.9118
 20
6.15956
 30
0.0
 40
0.0628889
 41
0.0628889
  0
VERTEX
  8
0
 10
-24.8507
 20
6.04139
 30
0.0
 40
0.0628889
 41
0.0628889
  0
VERTEX
  8
0
 10
-24.7721
 20
5.93901
 30
0.0
 40
0.0628889
 41
0.0628889
  0
VERTEX
  8
0
 10
-24.6739
 20
5.85118
 30
0.0
 40
0.0628889
 41
0.0628889
  0
VERTEX
  8
0
 10
-24.5543
 20
5.77664
 30
0.0
 40
0.0628889
 41
0.0628889
  0
VERTEX
  8
0
 10
-24.4119
 20
5.71397
 30
0.0
 40
0.0628889
 41
0.0628889
  0
VERTEX
  8
0
 10
-24.2449
 20
5.66194
 30
0.0
 40
0.0628889
 41
0.0628889
  0
VERTEX
  8
0
 10
-24.1
 20
5.62825
 30
0.0
 40
0.0628889
 41
0.0628889
  0
VERTEX
  8
0
 10
-24.0514
 20
5.61919
 30
0.0
 40
0.0628889
 41
0.0628889
  0
VERTEX
  8
0
 10
-24.0103
 20
5.6116
 30
0.0
 40
0.0628889
 41
0.0628889
  0
VERTEX
  8
0
 10
-23.8882
 20
5.58356
 30
0.0
 40
0.0628889
 41
0.0628889
  0
VERTEX
  8
0
 10
-23.7531
 20
5.54124
 30
0.0
 40
0.0628889
 41
0.0628889
  0
VERTEX
  8
0
 10
-23.644
 20
5.49061
 30
0.0
 40
0.0628889
 41
0.0628889
  0
VERTEX
  8
0
 10
-23.559
 20
5.4299
 30
0.0
 40
0.0628889
 41
0.0628889
  0
VERTEX
  8
0
 10
-23.4964
 20
5.35736
 30
0.0
 40
0.0628889
 41
0.0628889
  0
VERTEX
  8
0
 10
-23.454
 20
5.27132
 30
0.0
 40
0.0628889
 41
0.0628889
  0
VERTEX
  8
0
 10
-23.43
 20
5.16992
 30
0.0
 40
0.0628889
 41
0.0628889
  0
VERTEX
  8
0
 10
-23.4224
 20
5.08111
 30
0.0
 40
0.0628889
 41
0.0628889
  0
VERTEX
  8
0
 10
-23.4224
 20
5.05149
 30
0.0
 40
0.0628889
 41
0.0628889
  0
VERTEX
  8
0
 10
-23.4224
 20
5.01406
 30
0.0
 40
0.0628889
 41
0.0628889
  0
VERTEX
  8
0
 10
-23.4135
 20
4.90175
 30
0.0
 40
0.0628889
 41
0.0628889
  0
VERTEX
  8
0
 10
-23.3875
 20
4.76118
 30
0.0
 40
0.0628889
 41
0.0628889
  0
VERTEX
  8
0
 10
-23.3461
 20
4.63222
 30
0.0
 40
0.0628889
 41
0.0628889
  0
VERTEX
  8
0
 10
-23.2907
 20
4.51753
 30
0.0
 40
0.0628889
 41
0.0628889
  0
VERTEX
  8
0
 10
-23.2226
 20
4.41954
 30
0.0
 40
0.0628889
 41
0.0628889
  0
VERTEX
  8
0
 10
-23.1436
 20
4.34088
 30
0.0
 40
0.0628889
 41
0.0628889
  0
VERTEX
  8
0
 10
-23.0549
 20
4.28396
 30
0.0
 40
0.0628889
 41
0.0628889
  0
VERTEX
  8
0
 10
-22.9829
 20
4.25629
 30
0.0
 40
0.0628889
 41
0.0628889
  0
VERTEX
  8
0
 10
-22.9581
 20
4.25146
 30
0.0
 40
0.0628889
 41
0.0628889
  0
VERTEX
  8
0
 10
-22.9299
 20
4.24604
 30
0.0
 40
0.0628889
 41
0.0628889
  0
VERTEX
  8
0
 10
-22.8451
 20
4.2296
 30
0.0
 40
0.0628889
 41
0.0628889
  0
VERTEX
  8
0
 10
-22.7175
 20
4.20492
 30
0.0
 40
0.0628889
 41
0.0628889
  0
VERTEX
  8
0
 10
-22.5907
 20
4.18039
 30
0.0
 40
0.0628889
 41
0.0628889
  0
VERTEX
  8
0
 10
-22.5081
 20
4.16439
 30
0.0
 40
0.0628889
 41
0.0628889
  0
VERTEX
  8
0
 10
-22.4804
 20
4.15907
 30
0.0
 40
0.0628889
 41
0.0628889
  0
VERTEX
  8
0
 10
-22.4636
 20
4.15587
 30
0.0
 40
0.0628889
 41
0.0628889
  0
VERTEX
  8
0
 10
-22.4135
 20
4.14344
 30
0.0
 40
0.0628889
 41
0.0628889
  0
VERTEX
  8
0
 10
-22.3579
 20
4.12332
 30
0.0
 40
0.0628889
 41
0.0628889
  0
VERTEX
  8
0
 10
-22.3119
 20
4.09651
 30
0.0
 40
0.0628889
 41
0.0628889
  0
VERTEX
  8
0
 10
-22.2735
 20
4.06087
 30
0.0
 40
0.0628889
 41
0.0628889
  0
VERTEX
  8
0
 10
-22.2408
 20
4.01411
 30
0.0
 40
0.0628889
 41
0.0628889
  0
VERTEX
  8
0
 10
-22.2119
 20
3.95415
 30
0.0
 40
0.0628889
 41
0.0628889
  0
VERTEX
  8
0
 10
-22.185
 20
3.87875
 30
0.0
 40
0.0628889
 41
0.0628889
  0
VERTEX
  8
0
 10
-22.1644
 20
3.80908
 30
0.0
 40
0.0628889
 41
0.0628889
  0
VERTEX
  8
0
 10
-22.1582
 20
3.78569
 30
0.0
 40
0.0628889
 41
0.0628889
  0
VERTEX
  8
0
 10
-22.1451
 20
3.73671
 30
0.0
 40
0.0628889
 41
0.0628889
  0
VERTEX
  8
0
 10
-22.1039
 20
3.59011
 30
0.0
 40
0.0628889
 41
0.0628889
  0
VERTEX
  8
0
 10
-22.0557
 20
3.4356
 30
0.0
 40
0.0628889
 41
0.0628889
  0
VERTEX
  8
0
 10
-22.0099
 20
3.31679
 30
0.0
 40
0.0628889
 41
0.0628889
  0
VERTEX
  8
0
 10
-21.9629
 20
3.22808
 30
0.0
 40
0.0628889
 41
0.0628889
  0
VERTEX
  8
0
 10
-21.9112
 20
3.16401
 30
0.0
 40
0.0628889
 41
0.0628889
  0
VERTEX
  8
0
 10
-21.8514
 20
3.11903
 30
0.0
 40
0.0628889
 41
0.0628889
  0
VERTEX
  8
0
 10
-21.7797
 20
3.08768
 30
0.0
 40
0.0628889
 41
0.0628889
  0
VERTEX
  8
0
 10
-21.7147
 20
3.06922
 30
0.0
 40
0.0628889
 41
0.0628889
  0
VERTEX
  8
0
 10
-21.6928
 20
3.0644
 30
0.0
 40
0.0628889
 41
0.0628889
  0
VERTEX
  8
0
 10
-21.6676
 20
3.05892
 30
0.0
 40
0.0628889
 41
0.0628889
  0
VERTEX
  8
0
 10
-21.5938
 20
3.03472
 30
0.0
 40
0.0628889
 41
0.0628889
  0
VERTEX
  8
0
 10
-21.5064
 20
2.99376
 30
0.0
 40
0.0628889
 41
0.0628889
  0
VERTEX
  8
0
 10
-21.44
 20
2.94706
 30
0.0
 40
0.0628889
 41
0.0628889
  0
VERTEX
  8
0
 10
-21.4092
 20
2.91314
 30
0.0
 40
0.0628889
 41
0.0628889
  0
VERTEX
  8
0
 10
-21.4042
 20
2.89985
 30
0.0
 40
0.0628889
 41
0.0628889
  0
VERTEX
  8
0
 10
-21.3997
 20
2.88818
 30
0.0
 40
0.0628889
 41
0.0628889
  0
VERTEX
  8
0
 10
-21.3764
 20
2.85693
 30
0.0
 40
0.0628889
 41
0.0628889
  0
VERTEX
  8
0
 10
-21.3324
 20
2.82183
 30
0.0
 40
0.0628889
 41
0.0628889
  0
VERTEX
  8
0
 10
-21.2778
 20
2.79807
 30
0.0
 40
0.0628889
 41
0.0628889
  0
VERTEX
  8
0
 10
-21.2337
 20
2.78933
 30
0.0
 40
0.0628889
 41
0.0628889
  0
VERTEX
  8
0
 10
-21.219
 20
2.78933
 30
0.0
 40
0.0628889
 41
0.0628889
  0
VERTEX
  8
0
 10
-21.2039
 20
2.78933
 30
0.0
 40
0.0628889
 41
0.0628889
  0
VERTEX
  8
0
 10
-21.1582
 20
2.76975
 30
0.0
 40
0.0628889
 41
0.0628889
  0
VERTEX
  8
0
 10
-21.0985
 20
2.71636
 30
0.0
 40
0.0628889
 41
0.0628889
  0
VERTEX
  8
0
 10
-21.0429
 20
2.63732
 30
0.0
 40
0.0628889
 41
0.0628889
  0
VERTEX
  8
0
 10
-20.9951
 20
2.54081
 30
0.0
 40
0.0628889
 41
0.0628889
  0
VERTEX
  8
0
 10
-20.9585
 20
2.43485
 30
0.0
 40
0.0628889
 41
0.0628889
  0
VERTEX
  8
0
 10
-20.9363
 20
2.32764
 30
0.0
 40
0.0628889
 41
0.0628889
  0
VERTEX
  8
0
 10
-20.9321
 20
2.22738
 30
0.0
 40
0.0628889
 41
0.0628889
  0
VERTEX
  8
0
 10
-20.9414
 20
2.16206
 30
0.0
 40
0.0628889
 41
0.0628889
  0
VERTEX
  8
0
 10
-20.949
 20
2.14204
 30
0.0
 40
0.0628889
 41
0.0628889
  0
VERTEX
  8
0
 10
-20.9535
 20
2.13053
 30
0.0
 40
0.0628889
 41
0.0628889
  0
VERTEX
  8
0
 10
-20.9533
 20
2.09082
 30
0.0
 40
0.0628889
 41
0.0628889
  0
VERTEX
  8
0
 10
-20.931
 20
2.03288
 30
0.0
 40
0.0628889
 41
0.0628889
  0
VERTEX
  8
0
 10
-20.8838
 20
1.96972
 30
0.0
 40
0.0628889
 41
0.0628889
  0
VERTEX
  8
0
 10
-20.8135
 20
1.90283
 30
0.0
 40
0.0628889
 41
0.0628889
  0
VERTEX
  8
0
 10
-20.7219
 20
1.83371
 30
0.0
 40
0.0628889
 41
0.0628889
  0
VERTEX
  8
0
 10
-20.6108
 20
1.76378
 30
0.0
 40
0.0628889
 41
0.0628889
  0
VERTEX
  8
0
 10
-20.4819
 20
1.69467
 30
0.0
 40
0.0628889
 41
0.0628889
  0
VERTEX
  8
0
 10
-20.3736
 20
1.64339
 30
0.0
 40
0.0628889
 41
0.0628889
  0
VERTEX
  8
0
 10
-20.3369
 20
1.62765
 30
0.0
 40
0.0628889
 41
0.0628889
  0
VERTEX
  8
0
 10
-20.3018
 20
1.61257
 30
0.0
 40
0.0628889
 41
0.0628889
  0
VERTEX
  8
0
 10
-20.204
 20
1.54883
 30
0.0
 40
0.0628889
 41
0.0628889
  0
VERTEX
  8
0
 10
-20.1339
 20
1.45643
 30
0.0
 40
0.0628889
 41
0.0628889
  0
VERTEX
  8
0
 10
-20.1288
 20
1.35585
 30
0.0
 40
0.0628889
 41
0.0628889
  0
VERTEX
  8
0
 10
-20.1704
 20
1.27403
 30
0.0
 40
0.0628889
 41
0.0628889
  0
VERTEX
  8
0
 10
-20.1906
 20
1.2525
 30
0.0
 40
0.0628889
 41
0.0628889
  0
VERTEX
  8
0
 10
-20.1996
 20
1.24289
 30
0.0
 40
0.0628889
 41
0.0628889
  0
VERTEX
  8
0
 10
-20.2218
 20
1.20958
 30
0.0
 40
0.0628889
 41
0.0628889
  0
VERTEX
  8
0
 10
-20.2556
 20
1.14779
 30
0.0
 40
0.0628889
 41
0.0628889
  0
VERTEX
  8
0
 10
-20.2875
 20
1.07552
 30
0.0
 40
0.0628889
 41
0.0628889
  0
VERTEX
  8
0
 10
-20.3081
 20
1.01986
 30
0.0
 40
0.0628889
 41
0.0628889
  0
VERTEX
  8
0
 10
-20.3137
 20
1.00092
 30
0.0
 40
0.0628889
 41
0.0628889
  0
VERTEX
  8
0
 10
-20.3174
 20
0.98904
 30
0.0
 40
0.0628889
 41
0.0628889
  0
VERTEX
  8
0
 10
-20.3268
 20
0.9528
 30
0.0
 40
0.0628889
 41
0.0628889
  0
VERTEX
  8
0
 10
-20.3333
 20
0.913738
 30
0.0
 40
0.0628889
 41
0.0628889
  0
VERTEX
  8
0
 10
-20.3332
 20
0.882921
 30
0.0
 40
0.0628889
 41
0.0628889
  0
VERTEX
  8
0
 10
-20.3257
 20
0.859538
 30
0.0
 40
0.0628889
 41
0.0628889
  0
VERTEX
  8
0
 10
-20.3106
 20
0.842828
 30
0.0
 40
0.0628889
 41
0.0628889
  0
VERTEX
  8
0
 10
-20.2872
 20
0.831868
 30
0.0
 40
0.0628889
 41
0.0628889
  0
VERTEX
  8
0
 10
-20.2551
 20
0.8259
 30
0.0
 40
0.0628889
 41
0.0628889
  0
VERTEX
  8
0
 10
-20.2242
 20
0.824056
 30
0.0
 40
0.0628889
 41
0.0628889
  0
VERTEX
  8
0
 10
-20.2139
 20
0.824056
 30
0.0
 40
0.0628889
 41
0.0628889
  0
VERTEX
  8
0
 10
-20.1964
 20
0.824056
 30
0.0
 40
0.0628889
 41
0.0628889
  0
VERTEX
  8
0
 10
-20.1437
 20
0.81071
 30
0.0
 40
0.0628889
 41
0.0628889
  0
VERTEX
  8
0
 10
-20.0868
 20
0.7736
 30
0.0
 40
0.0628889
 41
0.0628889
  0
VERTEX
  8
0
 10
-20.0443
 20
0.717068
 30
0.0
 40
0.0628889
 41
0.0628889
  0
VERTEX
  8
0
 10
-20.0172
 20
0.645562
 30
0.0
 40
0.0628889
 41
0.0628889
  0
VERTEX
  8
0
 10
-20.0067
 20
0.563422
 30
0.0
 40
0.0628889
 41
0.0628889
  0
VERTEX
  8
0
 10
-20.0136
 20
0.475097
 30
0.0
 40
0.0628889
 41
0.0628889
  0
VERTEX
  8
0
 10
-20.0392
 20
0.384928
 30
0.0
 40
0.0628889
 41
0.0628889
  0
VERTEX
  8
0
 10
-20.0713
 20
0.317871
 30
0.0
 40
0.0628889
 41
0.0628889
  0
VERTEX
  8
0
 10
-20.0846
 20
0.29731
 30
0.0
 40
0.0628889
 41
0.0628889
  0
VERTEX
  8
0
 10
-20.0935
 20
0.283692
 30
0.0
 40
0.0628889
 41
0.0628889
  0
VERTEX
  8
0
 10
-20.1193
 20
0.242133
 30
0.0
 40
0.0628889
 41
0.0628889
  0
VERTEX
  8
0
 10
-20.1426
 20
0.197319
 30
0.0
 40
0.0628889
 41
0.0628889
  0
VERTEX
  8
0
 10
-20.1537
 20
0.160101
 30
0.0
 40
0.0628889
 41
0.0628889
  0
VERTEX
  8
0
 10
-20.1519
 20
0.127604
 30
0.0
 40
0.0628889
 41
0.0628889
  0
VERTEX
  8
0
 10
-20.1364
 20
0.0971137
 30
0.0
 40
0.0628889
 41
0.0628889
  0
VERTEX
  8
0
 10
-20.1063
 20
0.065701
 30
0.0
 40
0.0628889
 41
0.0628889
  0
VERTEX
  8
0
 10
-20.0608
 20
0.0306532
 30
0.0
 40
0.0628889
 41
0.0628889
  0
VERTEX
  8
0
 10
-20.0149
 20
-0.000759549
 30
0.0
 40
0.0628889
 41
0.0628889
  0
VERTEX
  8
0
 10
-19.9993
 20
-0.0109592
 30
0.0
 40
0.0628889
 41
0.0628889
  0
VERTEX
  8
0
 10
-19.9735
 20
-0.0279406
 30
0.0
 40
0.0628889
 41
0.0628889
  0
VERTEX
  8
0
 10
-19.9011
 20
-0.0874024
 30
0.0
 40
0.0628889
 41
0.0628889
  0
VERTEX
  8
0
 10
-19.8137
 20
-0.179958
 30
0.0
 40
0.0628889
 41
0.0628889
  0
VERTEX
  8
0
 10
-19.7372
 20
-0.286513
 30
0.0
 40
0.0628889
 41
0.0628889
  0
VERTEX
  8
0
 10
-19.6719
 20
-0.405111
 30
0.0
 40
0.0628889
 41
0.0628889
  0
VERTEX
  8
0
 10
-19.6178
 20
-0.5338
 30
0.0
 40
0.0628889
 41
0.0628889
  0
VERTEX
  8
0
 10
-19.5753
 20
-0.670574
 30
0.0
 40
0.0628889
 41
0.0628889
  0
VERTEX
  8
0
 10
-19.5443
 20
-0.813422
 30
0.0
 40
0.0628889
 41
0.0628889
  0
VERTEX
  8
0
 10
-19.5251
 20
-0.960449
 30
0.0
 40
0.0628889
 41
0.0628889
  0
VERTEX
  8
0
 10
-19.5181
 20
-1.10959
 30
0.0
 40
0.0628889
 41
0.0628889
  0
VERTEX
  8
0
 10
-19.5231
 20
-1.25884
 30
0.0
 40
0.0628889
 41
0.0628889
  0
VERTEX
  8
0
 10
-19.5404
 20
-1.40625
 30
0.0
 40
0.0628889
 41
0.0628889
  0
VERTEX
  8
0
 10
-19.5703
 20
-1.54986
 30
0.0
 40
0.0628889
 41
0.0628889
  0
VERTEX
  8
0
 10
-19.6129
 20
-1.68767
 30
0.0
 40
0.0628889
 41
0.0628889
  0
VERTEX
  8
0
 10
-19.6685
 20
-1.81765
 30
0.0
 40
0.0628889
 41
0.0628889
  0
VERTEX
  8
0
 10
-19.7369
 20
-1.93787
 30
0.0
 40
0.0628889
 41
0.0628889
  0
VERTEX
  8
0
 10
-19.7965
 20
-2.02072
 30
0.0
 40
0.0628889
 41
0.0628889
  0
VERTEX
  8
0
 10
-19.8187
 20
-2.04633
 30
0.0
 40
0.0628889
 41
0.0628889
  0
VERTEX
  8
0
 10
-19.8353
 20
-2.06538
 30
0.0
 40
0.0628889
 41
0.0628889
  0
VERTEX
  8
0
 10
-19.8794
 20
-2.12717
 30
0.0
 40
0.0628889
 41
0.0628889
  0
VERTEX
  8
0
 10
-19.9435
 20
-2.2309
 30
0.0
 40
0.0628889
 41
0.0628889
  0
VERTEX
  8
0
 10
-20.0072
 20
-2.34972
 30
0.0
 40
0.0628889
 41
0.0628889
  0
VERTEX
  8
0
 10
-20.0671
 20
-2.47581
 30
0.0
 40
0.0628889
 41
0.0628889
  0
VERTEX
  8
0
 10
-20.1197
 20
-2.6014
 30
0.0
 40
0.0628889
 41
0.0628889
  0
VERTEX
  8
0
 10
-20.1617
 20
-2.71869
 30
0.0
 40
0.0628889
 41
0.0628889
  0
VERTEX
  8
0
 10
-20.1894
 20
-2.81993
 30
0.0
 40
0.0628889
 41
0.0628889
  0
VERTEX
  8
0
 10
-20.1994
 20
-2.87793
 30
0.0
 40
0.0628889
 41
0.0628889
  0
VERTEX
  8
0
 10
-20.1994
 20
-2.89729
 30
0.0
 40
0.0628889
 41
0.0628889
  0
VERTEX
  8
0
 10
-20.1994
 20
-2.91168
 30
0.0
 40
0.0628889
 41
0.0628889
  0
VERTEX
  8
0
 10
-20.1778
 20
-2.95486
 30
0.0
 40
0.0628889
 41
0.0628889
  0
VERTEX
  8
0
 10
-20.1188
 20
-3.03017
 30
0.0
 40
0.0628889
 41
0.0628889
  0
VERTEX
  8
0
 10
-20.0314
 20
-3.11333
 30
0.0
 40
0.0628889
 41
0.0628889
  0
VERTEX
  8
0
 10
-19.9524
 20
-3.17578
 30
0.0
 40
0.0628889
 41
0.0628889
  0
VERTEX
  8
0
 10
-19.9247
 20
-3.19467
 30
0.0
 40
0.0628889
 41
0.0628889
  0
VERTEX
  8
0
 10
-19.8974
 20
-3.21326
 30
0.0
 40
0.0628889
 41
0.0628889
  0
VERTEX
  8
0
 10
-19.8182
 20
-3.27328
 30
0.0
 40
0.0628889
 41
0.0628889
  0
VERTEX
  8
0
 10
-19.7307
 20
-3.34928
 30
0.0
 40
0.0628889
 41
0.0628889
  0
VERTEX
  8
0
 10
-19.6715
 20
-3.4139
 30
0.0
 40
0.0628889
 41
0.0628889
  0
VERTEX
  8
0
 10
-19.6497
 20
-3.44792
 30
0.0
 40
0.0628889
 41
0.0628889
  0
VERTEX
  8
0
 10
-19.6496
 20
-3.4585
 30
0.0
 40
0.0628889
 41
0.0628889
  0
VERTEX
  8
0
 10
-19.6496
 20
-3.46533
 30
0.0
 40
0.0628889
 41
0.0628889
  0
VERTEX
  8
0
 10
-19.6614
 20
-3.486
 30
0.0
 40
0.0628889
 41
0.0628889
  0
VERTEX
  8
0
 10
-19.6951
 20
-3.535
 30
0.0
 40
0.0628889
 41
0.0628889
  0
VERTEX
  8
0
 10
-19.7488
 20
-3.60275
 30
0.0
 40
0.0628889
 41
0.0628889
  0
VERTEX
  8
0
 10
-19.8197
 20
-3.68647
 30
0.0
 40
0.0628889
 41
0.0628889
  0
VERTEX
  8
0
 10
-19.9056
 20
-3.78347
 30
0.0
 40
0.0628889
 41
0.0628889
  0
VERTEX
  8
0
 10
-20.004
 20
-3.89106
 30
0.0
 40
0.0628889
 41
0.0628889
  0
VERTEX
  8
0
 10
-20.1126
 20
-4.00635
 30
0.0
 40
0.0628889
 41
0.0628889
  0
VERTEX
  8
0
 10
-20.1997
 20
-4.09685
 30
0.0
 40
0.0628889
 41
0.0628889
  0
VERTEX
  8
0
 10
-20.229
 20
-4.12674
 30
0.0
 40
0.0628889
 41
0.0628889
  0
VERTEX
  8
0
 10
-20.2647
 20
-4.16308
 30
0.0
 40
0.0628889
 41
0.0628889
  0
VERTEX
  8
0
 10
-20.3703
 20
-4.27365
 30
0.0
 40
0.0628889
 41
0.0628889
  0
VERTEX
  8
0
 10
-20.4922
 20
-4.40722
 30
0.0
 40
0.0628889
 41
0.0628889
  0
VERTEX
  8
0
 10
-20.5957
 20
-4.52832
 30
0.0
 40
0.0628889
 41
0.0628889
  0
VERTEX
  8
0
 10
-20.6813
 20
-4.63769
 30
0.0
 40
0.0628889
 41
0.0628889
  0
VERTEX
  8
0
 10
-20.7494
 20
-4.73622
 30
0.0
 40
0.0628889
 41
0.0628889
  0
VERTEX
  8
0
 10
-20.801
 20
-4.82465
 30
0.0
 40
0.0628889
 41
0.0628889
  0
VERTEX
  8
0
 10
-20.8364
 20
-4.90381
 30
0.0
 40
0.0628889
 41
0.0628889
  0
VERTEX
  8
0
 10
-20.8529
 20
-4.95654
 30
0.0
 40
0.0628889
 41
0.0628889
  0
VERTEX
  8
0
 10
-20.8561
 20
-4.97456
 30
0.0
 40
0.0628889
 41
0.0628889
  0
VERTEX
  8
0
 10
-20.8599
 20
-4.9949
 30
0.0
 40
0.0628889
 41
0.0628889
  0
VERTEX
  8
0
 10
-20.8706
 20
-5.05621
 30
0.0
 40
0.0628889
 41
0.0628889
  0
VERTEX
  8
0
 10
-20.8782
 20
-5.11762
 30
0.0
 40
0.0628889
 41
0.0628889
  0
VERTEX
  8
0
 10
-20.8776
 20
-5.16097
 30
0.0
 40
0.0628889
 41
0.0628889
  0
VERTEX
  8
0
 10
-20.8669
 20
-5.18832
 30
0.0
 40
0.0628889
 41
0.0628889
  0
VERTEX
  8
0
 10
-20.8444
 20
-5.20182
 30
0.0
 40
0.0628889
 41
0.0628889
  0
VERTEX
  8
0
 10
-20.8085
 20
-5.20367
 30
0.0
 40
0.0628889
 41
0.0628889
  0
VERTEX
  8
0
 10
-20.7572
 20
-5.1959
 30
0.0
 40
0.0628889
 41
0.0628889
  0
VERTEX
  8
0
 10
-20.706
 20
-5.18479
 30
0.0
 40
0.0628889
 41
0.0628889
  0
VERTEX
  8
0
 10
-20.689
 20
-5.18083
 30
0.0
 40
0.0628889
 41
0.0628889
  0
VERTEX
  8
0
 10
-20.6354
 20
-5.16824
 30
0.0
 40
0.0628889
 41
0.0628889
  0
VERTEX
  8
0
 10
-20.4797
 20
-5.11014
 30
0.0
 40
0.0628889
 41
0.0628889
  0
VERTEX
  8
0
 10
-20.2364
 20
-4.98975
 30
0.0
 40
0.0628889
 41
0.0628889
  0
VERTEX
  8
0
 10
-19.9631
 20
-4.82232
 30
0.0
 40
0.0628889
 41
0.0628889
  0
VERTEX
  8
0
 10
-19.6632
 20
-4.61068
 30
0.0
 40
0.0628889
 41
0.0628889
  0
VERTEX
  8
0
 10
-19.3407
 20
-4.35758
 30
0.0
 40
0.0628889
 41
0.0628889
  0
VERTEX
  8
0
 10
-18.999
 20
-4.06575
 30
0.0
 40
0.0628889
 41
0.0628889
  0
VERTEX
  8
0
 10
-18.6421
 20
-3.73796
 30
0.0
 40
0.0628889
 41
0.0628889
  0
VERTEX
  8
0
 10
-18.3642
 20
-3.46858
 30
0.0
 40
0.0628889
 41
0.0628889
  0
VERTEX
  8
0
 10
-18.2733
 20
-3.37701
 30
0.0
 40
0.0628889
 41
0.0628889
  0
VERTEX
  8
0
 10
-18.2424
 20
-3.3456
 30
0.0
 40
0.0628889
 41
0.0628889
  0
VERTEX
  8
0
 10
-18.1468
 20
-3.25358
 30
0.0
 40
0.0628889
 41
0.0628889
  0
VERTEX
  8
0
 10
-17.9978
 20
-3.1155
 30
0.0
 40
0.0628889
 41
0.0628889
  0
VERTEX
  8
0
 10
-17.8317
 20
-2.96739
 30
0.0
 40
0.0628889
 41
0.0628889
  0
VERTEX
  8
0
 10
-17.6539
 20
-2.81396
 30
0.0
 40
0.0628889
 41
0.0628889
  0
VERTEX
  8
0
 10
-17.47
 20
-2.65989
 30
0.0
 40
0.0628889
 41
0.0628889
  0
VERTEX
  8
0
 10
-17.2857
 20
-2.50976
 30
0.0
 40
0.0628889
 41
0.0628889
  0
VERTEX
  8
0
 10
-17.1061
 20
-2.36833
 30
0.0
 40
0.0628889
 41
0.0628889
  0
VERTEX
  8
0
 10
-16.9797
 20
-2.27171
 30
0.0
 40
0.0628889
 41
0.0628889
  0
VERTEX
  8
0
 10
-16.9369
 20
-2.24018
 30
0.0
 40
0.0628889
 41
0.0628889
  0
VERTEX
  8
0
 10
-16.8974
 20
-2.21078
 30
0.0
 40
0.0628889
 41
0.0628889
  0
VERTEX
  8
0
 10
-16.7783
 20
-2.12244
 30
0.0
 40
0.0628889
 41
0.0628889
  0
VERTEX
  8
0
 10
-16.6288
 20
-2.01096
 30
0.0
 40
0.0628889
 41
0.0628889
  0
VERTEX
  8
0
 10
-16.4915
 20
-1.90826
 30
0.0
 40
0.0628889
 41
0.0628889
  0
VERTEX
  8
0
 10
-16.3703
 20
-1.81685
 30
0.0
 40
0.0628889
 41
0.0628889
  0
VERTEX
  8
0
 10
-16.2683
 20
-1.73931
 30
0.0
 40
0.0628889
 41
0.0628889
  0
VERTEX
  8
0
 10
-16.1889
 20
-1.67822
 30
0.0
 40
0.0628889
 41
0.0628889
  0
VERTEX
  8
0
 10
-16.1356
 20
-1.63618
 30
0.0
 40
0.0628889
 41
0.0628889
  0
VERTEX
  8
0
 10
-16.1169
 20
-1.62142
 30
0.0
 40
0.0628889
 41
0.0628889
  0
VERTEX
  8
0
 10
-16.1117
 20
-1.61567
 30
0.0
 40
0.0628889
 41
0.0628889
  0
VERTEX
  8
0
 10
-16.1078
 20
-1.61143
 30
0.0
 40
0.0628889
 41
0.0628889
  0
VERTEX
  8
0
 10
-16.0946
 20
-1.60021
 30
0.0
 40
0.0628889
 41
0.0628889
  0
VERTEX
  8
0
 10
-16.061
 20
-1.57269
 30
0.0
 40
0.0628889
 41
0.0628889
  0
VERTEX
  8
0
 10
-16.0129
 20
-1.53461
 30
0.0
 40
0.0628889
 41
0.0628889
  0
VERTEX
  8
0
 10
-15.9524
 20
-1.48753
 30
0.0
 40
0.0628889
 41
0.0628889
  0
VERTEX
  8
0
 10
-15.8812
 20
-1.43294
 30
0.0
 40
0.0628889
 41
0.0628889
  0
VERTEX
  8
0
 10
-15.8015
 20
-1.37245
 30
0.0
 40
0.0628889
 41
0.0628889
  0
VERTEX
  8
0
 10
-15.7154
 20
-1.30751
 30
0.0
 40
0.0628889
 41
0.0628889
  0
VERTEX
  8
0
 10
-15.6474
 20
-1.25667
 30
0.0
 40
0.0628889
 41
0.0628889
  0
VERTEX
  8
0
 10
-15.6247
 20
-1.2398
 30
0.0
 40
0.0628889
 41
0.0628889
  0
VERTEX
  8
0
 10
-15.5744
 20
-1.20242
 30
0.0
 40
0.0628889
 41
0.0628889
  0
VERTEX
  8
0
 10
-15.4193
 20
-1.09646
 30
0.0
 40
0.0628889
 41
0.0628889
  0
VERTEX
  8
0
 10
-15.2542
 20
-1.00223
 30
0.0
 40
0.0628889
 41
0.0628889
  0
VERTEX
  8
0
 10
-15.1286
 20
-0.956651
 30
0.0
 40
0.0628889
 41
0.0628889
  0
VERTEX
  8
0
 10
-15.0604
 20
-0.951714
 30
0.0
 40
0.0628889
 41
0.0628889
  0
VERTEX
  8
0
 10
-15.0411
 20
-0.959147
 30
0.0
 40
0.0628889
 41
0.0628889
  0
VERTEX
  8
0
 10
-15.0322
 20
-0.962565
 30
0.0
 40
0.0628889
 41
0.0628889
  0
VERTEX
  8
0
 10
-15.0047
 20
-0.971789
 30
0.0
 40
0.0628889
 41
0.0628889
  0
VERTEX
  8
0
 10
-14.9767
 20
-0.978353
 30
0.0
 40
0.0628889
 41
0.0628889
  0
VERTEX
  8
0
 10
-14.9564
 20
-0.978244
 30
0.0
 40
0.0628889
 41
0.0628889
  0
VERTEX
  8
0
 10
-14.9437
 20
-0.971192
 30
0.0
 40
0.0628889
 41
0.0628889
  0
VERTEX
  8
0
 10
-14.9385
 20
-0.956597
 30
0.0
 40
0.0628889
 41
0.0628889
  0
VERTEX
  8
0
 10
-14.9399
 20
-0.934136
 30
0.0
 40
0.0628889
 41
0.0628889
  0
VERTEX
  8
0
 10
-14.9478
 20
-0.903267
 30
0.0
 40
0.0628889
 41
0.0628889
  0
VERTEX
  8
0
 10
-14.9581
 20
-0.873426
 30
0.0
 40
0.0628889
 41
0.0628889
  0
VERTEX
  8
0
 10
-14.9618
 20
-0.863661
 30
0.0
 40
0.0628889
 41
0.0628889
  0
VERTEX
  8
0
 10
-14.964
 20
-0.858018
 30
0.0
 40
0.0628889
 41
0.0628889
  0
VERTEX
  8
0
 10
-14.9675
 20
-0.840061
 30
0.0
 40
0.0628889
 41
0.0628889
  0
VERTEX
  8
0
 10
-14.9668
 20
-0.813206
 30
0.0
 40
0.0628889
 41
0.0628889
  0
VERTEX
  8
0
 10
-14.9596
 20
-0.782389
 30
0.0
 40
0.0628889
 41
0.0628889
  0
VERTEX
  8
0
 10
-14.9449
 20
-0.746962
 30
0.0
 40
0.0628889
 41
0.0628889
  0
VERTEX
  8
0
 10
-14.9224
 20
-0.706272
 30
0.0
 40
0.0628889
 41
0.0628889
  0
VERTEX
  8
0
 10
-14.8914
 20
-0.65956
 30
0.0
 40
0.0628889
 41
0.0628889
  0
VERTEX
  8
0
 10
-14.8513
 20
-0.606174
 30
0.0
 40
0.0628889
 41
0.0628889
  0
VERTEX
  8
0
 10
-14.8017
 20
-0.545518
 30
0.0
 40
0.0628889
 41
0.0628889
  0
VERTEX
  8
0
 10
-14.7418
 20
-0.476833
 30
0.0
 40
0.0628889
 41
0.0628889
  0
VERTEX
  8
0
 10
-14.6712
 20
-0.399468
 30
0.0
 40
0.0628889
 41
0.0628889
  0
VERTEX
  8
0
 10
-14.5893
 20
-0.312717
 30
0.0
 40
0.0628889
 41
0.0628889
  0
VERTEX
  8
0
 10
-14.4956
 20
-0.215983
 30
0.0
 40
0.0628889
 41
0.0628889
  0
VERTEX
  8
0
 10
-14.3892
 20
-0.108507
 30
0.0
 40
0.0628889
 41
0.0628889
  0
VERTEX
  8
0
 10
-14.2699
 20
0.0103082
 30
0.0
 40
0.0628889
 41
0.0628889
  0
VERTEX
  8
0
 10
-14.1369
 20
0.141222
 30
0.0
 40
0.0628889
 41
0.0628889
  0
VERTEX
  8
0
 10
-14.0265
 20
0.249024
 30
0.0
 40
0.0628889
 41
0.0628889
  0
VERTEX
  8
0
 10
-13.9897
 20
0.284831
 30
0.0
 40
0.0628889
 41
0.0628889
  0
VERTEX
  8
0
 10
-13.9467
 20
0.326714
 30
0.0
 40
0.0628889
 41
0.0628889
  0
VERTEX
  8
0
 10
-13.8167
 20
0.451389
 30
0.0
 40
0.0628889
 41
0.0628889
  0
VERTEX
  8
0
 10
-13.6488
 20
0.609375
 30
0.0
 40
0.0628889
 41
0.0628889
  0
VERTEX
  8
0
 10
-13.4867
 20
0.758356
 30
0.0
 40
0.0628889
 41
0.0628889
  0
VERTEX
  8
0
 10
-13.3311
 20
0.897678
 30
0.0
 40
0.0628889
 41
0.0628889
  0
VERTEX
  8
0
 10
-13.1828
 20
1.02686
 30
0.0
 40
0.0628889
 41
0.0628889
  0
VERTEX
  8
0
 10
-13.0425
 20
1.14529
 30
0.0
 40
0.0628889
 41
0.0628889
  0
VERTEX
  8
0
 10
-12.9111
 20
1.25239
 30
0.0
 40
0.0628889
 41
0.0628889
  0
VERTEX
  8
0
 10
-12.7891
 20
1.3476
 30
0.0
 40
0.0628889
 41
0.0628889
  0
VERTEX
  8
0
 10
-12.6774
 20
1.43039
 30
0.0
 40
0.0628889
 41
0.0628889
  0
VERTEX
  8
0
 10
-12.5766
 20
1.50022
 30
0.0
 40
0.0628889
 41
0.0628889
  0
VERTEX
  8
0
 10
-12.4876
 20
1.55647
 30
0.0
 40
0.0628889
 41
0.0628889
  0
VERTEX
  8
0
 10
-12.411
 20
1.59864
 30
0.0
 40
0.0628889
 41
0.0628889
  0
VERTEX
  8
0
 10
-12.3476
 20
1.62608
 30
0.0
 40
0.0628889
 41
0.0628889
  0
VERTEX
  8
0
 10
-12.2982
 20
1.63829
 30
0.0
 40
0.0628889
 41
0.0628889
  0
VERTEX
  8
0
 10
-12.2634
 20
1.63471
 30
0.0
 40
0.0628889
 41
0.0628889
  0
VERTEX
  8
0
 10
-12.2464
 20
1.62071
 30
0.0
 40
0.0628889
 41
0.0628889
  0
VERTEX
  8
0
 10
-12.244
 20
1.61475
 30
0.0
 40
0.0628889
 41
0.0628889
  0
VERTEX
  8
0
 10
-12.2412
 20
1.60769
 30
0.0
 40
0.0628889
 41
0.0628889
  0
VERTEX
  8
0
 10
-12.2262
 20
1.58903
 30
0.0
 40
0.0628889
 41
0.0628889
  0
VERTEX
  8
0
 10
-12.1899
 20
1.55219
 30
0.0
 40
0.0628889
 41
0.0628889
  0
VERTEX
  8
0
 10
-12.1374
 20
1.50564
 30
0.0
 40
0.0628889
 41
0.0628889
  0
VERTEX
  8
0
 10
-12.0706
 20
1.45085
 30
0.0
 40
0.0628889
 41
0.0628889
  0
VERTEX
  8
0
 10
-11.9915
 20
1.38926
 30
0.0
 40
0.0628889
 41
0.0628889
  0
VERTEX
  8
0
 10
-11.9024
 20
1.32232
 30
0.0
 40
0.0628889
 41
0.0628889
  0
VERTEX
  8
0
 10
-11.8051
 20
1.25152
 30
0.0
 40
0.0628889
 41
0.0628889
  0
VERTEX
  8
0
 10
-11.7019
 20
1.17822
 30
0.0
 40
0.0628889
 41
0.0628889
  0
VERTEX
  8
0
 10
-11.5947
 20
1.10395
 30
0.0
 40
0.0628889
 41
0.0628889
  0
VERTEX
  8
0
 10
-11.4856
 20
1.03011
 30
0.0
 40
0.0628889
 41
0.0628889
  0
VERTEX
  8
0
 10
-11.3767
 20
0.958171
 30
0.0
 40
0.0628889
 41
0.0628889
  0
VERTEX
  8
0
 10
-11.2701
 20
0.889594
 30
0.0
 40
0.0628889
 41
0.0628889
  0
VERTEX
  8
0
 10
-11.1678
 20
0.825792
 30
0.0
 40
0.0628889
 41
0.0628889
  0
VERTEX
  8
0
 10
-11.0718
 20
0.768229
 30
0.0
 40
0.0628889
 41
0.0628889
  0
VERTEX
  8
0
 10
-10.9843
 20
0.718317
 30
0.0
 40
0.0628889
 41
0.0628889
  0
VERTEX
  8
0
 10
-10.9268
 20
0.687338
 30
0.0
 40
0.0628889
 41
0.0628889
  0
VERTEX
  8
0
 10
-10.9073
 20
0.677518
 30
0.0
 40
0.0628889
 41
0.0628889
  0
VERTEX
  8
0
 10
-10.8647
 20
0.656142
 30
0.0
 40
0.0628889
 41
0.0628889
  0
VERTEX
  8
0
 10
-10.7402
 20
0.585286
 30
0.0
 40
0.0628889
 41
0.0628889
  0
VERTEX
  8
0
 10
-10.5585
 20
0.471625
 30
0.0
 40
0.0628889
 41
0.0628889
  0
VERTEX
  8
0
 10
-10.3842
 20
0.350857
 30
0.0
 40
0.0628889
 41
0.0628889
  0
VERTEX
  8
0
 10
-10.2741
 20
0.267361
 30
0.0
 40
0.0628889
 41
0.0628889
  0
VERTEX
  8
0
 10
-10.2391
 20
0.237522
 30
0.0
 40
0.0628889
 41
0.0628889
  0
VERTEX
  8
0
 10
-10.2211
 20
0.222168
 30
0.0
 40
0.0628889
 41
0.0628889
  0
VERTEX
  8
0
 10
-10.1655
 20
0.177735
 30
0.0
 40
0.0628889
 41
0.0628889
  0
VERTEX
  8
0
 10
-10.0705
 20
0.104872
 30
0.0
 40
0.0628889
 41
0.0628889
  0
VERTEX
  8
0
 10
-9.95801
 20
0.0218642
 30
0.0
 40
0.0628889
 41
0.0628889
  0
VERTEX
  8
0
 10
-9.83203
 20
-0.0685221
 30
0.0
 40
0.0628889
 41
0.0628889
  0
VERTEX
  8
0
 10
-9.6965
 20
-0.163411
 30
0.0
 40
0.0628889
 41
0.0628889
  0
VERTEX
  8
0
 10
-9.55544
 20
-0.260092
 30
0.0
 40
0.0628889
 41
0.0628889
  0
VERTEX
  8
0
 10
-9.41276
 20
-0.35574
 30
0.0
 40
0.0628889
 41
0.0628889
  0
VERTEX
  8
0
 10
-9.30767
 20
-0.42475
 30
0.0
 40
0.0628889
 41
0.0628889
  0
VERTEX
  8
0
 10
-9.2724
 20
-0.447483
 30
0.0
 40
0.0628889
 41
0.0628889
  0
VERTEX
  8
0
 10
-9.23643
 20
-0.470649
 30
0.0
 40
0.0628889
 41
0.0628889
  0
VERTEX
  8
0
 10
-9.12956
 20
-0.541883
 30
0.0
 40
0.0628889
 41
0.0628889
  0
VERTEX
  8
0
 10
-8.9796
 20
-0.64529
 30
0.0
 40
0.0628889
 41
0.0628889
  0
VERTEX
  8
0
 10
-8.82693
 20
-0.754232
 30
0.0
 40
0.0628889
 41
0.0628889
  0
VERTEX
  8
0
 10
-8.67611
 20
-0.865397
 30
0.0
 40
0.0628889
 41
0.0628889
  0
VERTEX
  8
0
 10
-8.53162
 20
-0.975424
 30
0.0
 40
0.0628889
 41
0.0628889
  0
VERTEX
  8
0
 10
-8.39789
 20
-1.081
 30
0.0
 40
0.0628889
 41
0.0628889
  0
VERTEX
  8
0
 10
-8.2794
 20
-1.17871
 30
0.0
 40
0.0628889
 41
0.0628889
  0
VERTEX
  8
0
 10
-8.20492
 20
-1.24311
 30
0.0
 40
0.0628889
 41
0.0628889
  0
VERTEX
  8
0
 10
-8.18067
 20
-1.26525
 30
0.0
 40
0.0628889
 41
0.0628889
  0
VERTEX
  8
0
 10
-8.1581
 20
-1.28586
 30
0.0
 40
0.0628889
 41
0.0628889
  0
VERTEX
  8
0
 10
-8.08903
 20
-1.3463
 30
0.0
 40
0.0628889
 41
0.0628889
  0
VERTEX
  8
0
 10
-7.99072
 20
-1.4285
 30
0.0
 40
0.0628889
 41
0.0628889
  0
VERTEX
  8
0
 10
-7.88894
 20
-1.50944
 30
0.0
 40
0.0628889
 41
0.0628889
  0
VERTEX
  8
0
 10
-7.78663
 20
-1.58697
 30
0.0
 40
0.0628889
 41
0.0628889
  0
VERTEX
  8
0
 10
-7.6869
 20
-1.65881
 30
0.0
 40
0.0628889
 41
0.0628889
  0
VERTEX
  8
0
 10
-7.59283
 20
-1.7226
 30
0.0
 40
0.0628889
 41
0.0628889
  0
VERTEX
  8
0
 10
-7.50749
 20
-1.77615
 30
0.0
 40
0.0628889
 41
0.0628889
  0
VERTEX
  8
0
 10
-7.45264
 20
-1.80761
 30
0.0
 40
0.0628889
 41
0.0628889
  0
VERTEX
  8
0
 10
-7.43386
 20
-1.81722
 30
0.0
 40
0.0628889
 41
0.0628889
  0
VERTEX
  8
0
 10
-7.39903
 20
-1.83496
 30
0.0
 40
0.0628889
 41
0.0628889
  0
VERTEX
  8
0
 10
-7.29596
 20
-1.89117
 30
0.0
 40
0.0628889
 41
0.0628889
  0
VERTEX
  8
0
 10
-7.12283
 20
-1.98964
 30
0.0
 40
0.0628889
 41
0.0628889
  0
VERTEX
  8
0
 10
-6.92361
 20
-2.10699
 30
0.0
 40
0.0628889
 41
0.0628889
  0
VERTEX
  8
0
 10
-6.70731
 20
-2.23779
 30
0.0
 40
0.0628889
 41
0.0628889
  0
VERTEX
  8
0
 10
-6.48301
 20
-2.37642
 30
0.0
 40
0.0628889
 41
0.0628889
  0
VERTEX
  8
0
 10
-6.25982
 20
-2.51736
 30
0.0
 40
0.0628889
 41
0.0628889
  0
VERTEX
  8
0
 10
-6.04676
 20
-2.65506
 30
0.0
 40
0.0628889
 41
0.0628889
  0
VERTEX
  8
0
 10
-5.9011
 20
-2.75136
 30
0.0
 40
0.0628889
 41
0.0628889
  0
VERTEX
  8
0
 10
-5.85286
 20
-2.78401
 30
0.0
 40
0.0628889
 41
0.0628889
  0
VERTEX
  8
0
 10
-5.82135
 20
-2.80533
 30
0.0
 40
0.0628889
 41
0.0628889
  0
VERTEX
  8
0
 10
-5.72412
 20
-2.86556
 30
0.0
 40
0.0628889
 41
0.0628889
  0
VERTEX
  8
0
 10
-5.54779
 20
-2.96963
 30
0.0
 40
0.0628889
 41
0.0628889
  0
VERTEX
  8
0
 10
-5.34711
 20
-3.08279
 30
0.0
 40
0.0628889
 41
0.0628889
  0
VERTEX
  8
0
 10
-5.19607
 20
-3.16504
 30
0.0
 40
0.0628889
 41
0.0628889
  0
VERTEX
  8
0
 10
-5.14535
 20
-3.19174
 30
0.0
 40
0.0628889
 41
0.0628889
  0
VERTEX
  8
0
 10
-5.11106
 20
-3.20975
 30
0.0
 40
0.0628889
 41
0.0628889
  0
VERTEX
  8
0
 10
-5.00911
 20
-3.2659
 30
0.0
 40
0.0628889
 41
0.0628889
  0
VERTEX
  8
0
 10
-4.89626
 20
-3.33399
 30
0.0
 40
0.0628889
 41
0.0628889
  0
VERTEX
  8
0
 10
-4.80268
 20
-3.40007
 30
0.0
 40
0.0628889
 41
0.0628889
  0
VERTEX
  8
0
 10
-4.72418
 20
-3.46826
 30
0.0
 40
0.0628889
 41
0.0628889
  0
VERTEX
  8
0
 10
-4.65653
 20
-3.54258
 30
0.0
 40
0.0628889
 41
0.0628889
  0
VERTEX
  8
0
 10
-4.5956
 20
-3.62711
 30
0.0
 40
0.0628889
 41
0.0628889
  0
VERTEX
  8
0
 10
-4.53722
 20
-3.72592
 30
0.0
 40
0.0628889
 41
0.0628889
  0
VERTEX
  8
0
 10
-4.4916
 20
-3.81347
 30
0.0
 40
0.0628889
 41
0.0628889
  0
VERTEX
  8
0
 10
-4.47715
 20
-3.8431
 30
0.0
 40
0.0628889
 41
0.0628889
  0
VERTEX
  8
0
 10
-4.46153
 20
-3.87522
 30
0.0
 40
0.0628889
 41
0.0628889
  0
VERTEX
  8
0
 10
-4.41336
 20
-3.97103
 30
0.0
 40
0.0628889
 41
0.0628889
  0
VERTEX
  8
0
 10
-4.35835
 20
-4.06993
 30
0.0
 40
0.0628889
 41
0.0628889
  0
VERTEX
  8
0
 10
-4.30599
 20
-4.14464
 30
0.0
 40
0.0628889
 41
0.0628889
  0
VERTEX
  8
0
 10
-4.25017
 20
-4.20003
 30
0.0
 40
0.0628889
 41
0.0628889
  0
VERTEX
  8
0
 10
-4.18479
 20
-4.24089
 30
0.0
 40
0.0628889
 41
0.0628889
  0
VERTEX
  8
0
 10
-4.10379
 20
-4.27214
 30
0.0
 40
0.0628889
 41
0.0628889
  0
VERTEX
  8
0
 10
-4.00097
 20
-4.29856
 30
0.0
 40
0.0628889
 41
0.0628889
  0
VERTEX
  8
0
 10
-3.90306
 20
-4.31879
 30
0.0
 40
0.0628889
 41
0.0628889
  0
VERTEX
  8
0
 10
-3.87033
 20
-4.32508
 30
0.0
 40
0.0628889
 41
0.0628889
  0
VERTEX
  8
0
 10
-3.81853
 20
-4.33501
 30
0.0
 40
0.0628889
 41
0.0628889
  0
VERTEX
  8
0
 10
-3.66417
 20
-4.37061
 30
0.0
 40
0.0628889
 41
0.0628889
  0
VERTEX
  8
0
 10
-3.49951
 20
-4.42307
 30
0.0
 40
0.0628889
 41
0.0628889
  0
VERTEX
  8
0
 10
-3.37181
 20
-4.48747
 30
0.0
 40
0.0628889
 41
0.0628889
  0
VERTEX
  8
0
 10
-3.27669
 20
-4.56907
 30
0.0
 40
0.0628889
 41
0.0628889
  0
VERTEX
  8
0
 10
-3.20958
 20
-4.67285
 30
0.0
 40
0.0628889
 41
0.0628889
  0
VERTEX
  8
0
 10
-3.16596
 20
-4.8041
 30
0.0
 40
0.0628889
 41
0.0628889
  0
VERTEX
  8
0
 10
-3.14144
 20
-4.96783
 30
0.0
 40
0.0628889
 41
0.0628889
  0
VERTEX
  8
0
 10
-3.13243
 20
-5.11887
 30
0.0
 40
0.0628889
 41
0.0628889
  0
VERTEX
  8
0
 10
-3.13146
 20
-5.16928
 30
0.0
 40
0.0628889
 41
0.0628889
  0
VERTEX
  8
0
 10
-3.13081
 20
-5.20432
 30
0.0
 40
0.0628889
 41
0.0628889
  0
VERTEX
  8
0
 10
-3.12825
 20
-5.30951
 30
0.0
 40
0.0628889
 41
0.0628889
  0
VERTEX
  8
0
 10
-3.12358
 20
-5.43485
 30
0.0
 40
0.0628889
 41
0.0628889
  0
VERTEX
  8
0
 10
-3.11675
 20
-5.54682
 30
0.0
 40
0.0628889
 41
0.0628889
  0
VERTEX
  8
0
 10
-3.10693
 20
-5.64703
 30
0.0
 40
0.0628889
 41
0.0628889
  0
VERTEX
  8
0
 10
-3.09347
 20
-5.73703
 30
0.0
 40
0.0628889
 41
0.0628889
  0
VERTEX
  8
0
 10
-3.07553
 20
-5.81836
 30
0.0
 40
0.0628889
 41
0.0628889
  0
VERTEX
  8
0
 10
-3.05231
 20
-5.89268
 30
0.0
 40
0.0628889
 41
0.0628889
  0
VERTEX
  8
0
 10
-3.02306
 20
-5.96149
 30
0.0
 40
0.0628889
 41
0.0628889
  0
VERTEX
  8
0
 10
-2.98703
 20
-6.02636
 30
0.0
 40
0.0628889
 41
0.0628889
  0
VERTEX
  8
0
 10
-2.94353
 20
-6.08886
 30
0.0
 40
0.0628889
 41
0.0628889
  0
VERTEX
  8
0
 10
-2.89165
 20
-6.15061
 30
0.0
 40
0.0628889
 41
0.0628889
  0
VERTEX
  8
0
 10
-2.83068
 20
-6.21317
 30
0.0
 40
0.0628889
 41
0.0628889
  0
VERTEX
  8
0
 10
-2.75993
 20
-6.27806
 30
0.0
 40
0.0628889
 41
0.0628889
  0
VERTEX
  8
0
 10
-2.6785
 20
-6.3469
 30
0.0
 40
0.0628889
 41
0.0628889
  0
VERTEX
  8
0
 10
-2.58572
 20
-6.42122
 30
0.0
 40
0.0628889
 41
0.0628889
  0
VERTEX
  8
0
 10
-2.50717
 20
-6.48242
 30
0.0
 40
0.0628889
 41
0.0628889
  0
VERTEX
  8
0
 10
-2.48079
 20
-6.50265
 30
0.0
 40
0.0628889
 41
0.0628889
  0
VERTEX
  8
0
 10
-2.43918
 20
-6.53461
 30
0.0
 40
0.0628889
 41
0.0628889
  0
VERTEX
  8
0
 10
-2.31515
 20
-6.63183
 30
0.0
 40
0.0628889
 41
0.0628889
  0
VERTEX
  8
0
 10
-2.18479
 20
-6.73969
 30
0.0
 40
0.0628889
 41
0.0628889
  0
VERTEX
  8
0
 10
-2.0841
 20
-6.83344
 30
0.0
 40
0.0628889
 41
0.0628889
  0
VERTEX
  8
0
 10
-2.0076
 20
-6.92031
 30
0.0
 40
0.0628889
 41
0.0628889
  0
VERTEX
  8
0
 10
-1.9496
 20
-7.00743
 30
0.0
 40
0.0628889
 41
0.0628889
  0
VERTEX
  8
0
 10
-1.90457
 20
-7.10211
 30
0.0
 40
0.0628889
 41
0.0628889
  0
VERTEX
  8
0
 10
-1.86692
 20
-7.21153
 30
0.0
 40
0.0628889
 41
0.0628889
  0
VERTEX
  8
0
 10
-1.83946
 20
-7.30994
 30
0.0
 40
0.0628889
 41
0.0628889
  0
VERTEX
  8
0
 10
-1.83106
 20
-7.34293
 30
0.0
 40
0.0628889
 41
0.0628889
  0
VERTEX
  8
0
 10
-1.81381
 20
-7.41086
 30
0.0
 40
0.0628889
 41
0.0628889
  0
VERTEX
  8
0
 10
-1.75722
 20
-7.61361
 30
0.0
 40
0.0628889
 41
0.0628889
  0
VERTEX
  8
0
 10
-1.68207
 20
-7.84494
 30
0.0
 40
0.0628889
 41
0.0628889
  0
VERTEX
  8
0
 10
-1.60286
 20
-8.04178
 30
0.0
 40
0.0628889
 41
0.0628889
  0
VERTEX
  8
0
 10
-1.5166
 20
-8.20904
 30
0.0
 40
0.0628889
 41
0.0628889
  0
VERTEX
  8
0
 10
-1.42046
 20
-8.35167
 30
0.0
 40
0.0628889
 41
0.0628889
  0
VERTEX
  8
0
 10
-1.31152
 20
-8.47461
 30
0.0
 40
0.0628889
 41
0.0628889
  0
VERTEX
  8
0
 10
-1.18685
 20
-8.58274
 30
0.0
 40
0.0628889
 41
0.0628889
  0
VERTEX
  8
0
 10
-1.08046
 20
-8.65815
 30
0.0
 40
0.0628889
 41
0.0628889
  0
VERTEX
  8
0
 10
-1.04357
 20
-8.68099
 30
0.0
 40
0.0628889
 41
0.0628889
  0
VERTEX
  8
0
 10
-1.0051
 20
-8.70475
 30
0.0
 40
0.0628889
 41
0.0628889
  0
VERTEX
  8
0
 10
-0.891439
 20
-8.77924
 30
0.0
 40
0.0628889
 41
0.0628889
  0
VERTEX
  8
0
 10
-0.767686
 20
-8.87153
 30
0.0
 40
0.0628889
 41
0.0628889
  0
VERTEX
  8
0
 10
-0.666558
 20
-8.96631
 30
0.0
 40
0.0628889
 41
0.0628889
  0
VERTEX
  8
0
 10
-0.582303
 20
-9.0721
 30
0.0
 40
0.0628889
 41
0.0628889
  0
VERTEX
  8
0
 10
-0.509169
 20
-9.19738
 30
0.0
 40
0.0628889
 41
0.0628889
  0
VERTEX
  8
0
 10
-0.441351
 20
-9.35058
 30
0.0
 40
0.0628889
 41
0.0628889
  0
VERTEX
  8
0
 10
-0.373101
 20
-9.54025
 30
0.0
 40
0.0628889
 41
0.0628889
  0
VERTEX
  8
0
 10
-0.316624
 20
-9.71593
 30
0.0
 40
0.0628889
 41
0.0628889
  0
VERTEX
  8
0
 10
-0.298611
 20
-9.77479
 30
0.0
 40
0.0628889
 41
0.0628889
  0
VERTEX
  8
0
 10
-0.280057
 20
-9.83539
 30
0.0
 40
0.0628889
 41
0.0628889
  0
VERTEX
  8
0
 10
-0.218317
 20
-10.0154
 30
0.0
 40
0.0628889
 41
0.0628889
  0
VERTEX
  8
0
 10
-0.134332
 20
-10.2213
 30
0.0
 40
0.0628889
 41
0.0628889
  0
VERTEX
  8
0
 10
-0.0446506
 20
-10.3952
 30
0.0
 40
0.0628889
 41
0.0628889
  0
VERTEX
  8
0
 10
0.0530057
 20
-10.54
 30
0.0
 40
0.0628889
 41
0.0628889
  0
VERTEX
  8
0
 10
0.160807
 20
-10.6584
 30
0.0
 40
0.0628889
 41
0.0628889
  0
VERTEX
  8
0
 10
0.280817
 20
-10.7532
 30
0.0
 40
0.0628889
 41
0.0628889
  0
VERTEX
  8
0
 10
0.415365
 20
-10.8272
 30
0.0
 40
0.0628889
 41
0.0628889
  0
VERTEX
  8
0
 10
0.527994
 20
-10.8716
 30
0.0
 40
0.0628889
 41
0.0628889
  0
VERTEX
  8
0
 10
0.566515
 20
-10.8831
 30
0.0
 40
0.0628889
 41
0.0628889
  0
VERTEX
  8
0
 10
0.620443
 20
-10.8991
 30
0.0
 40
0.0628889
 41
0.0628889
  0
VERTEX
  8
0
 10
0.781304
 20
-10.951
 30
0.0
 40
0.0628889
 41
0.0628889
  0
VERTEX
  8
0
 10
0.955567
 20
-11.0173
 30
0.0
 40
0.0628889
 41
0.0628889
  0
VERTEX
  8
0
 10
1.09711
 20
-11.0889
 30
0.0
 40
0.0628889
 41
0.0628889
  0
VERTEX
  8
0
 10
1.21392
 20
-11.1725
 30
0.0
 40
0.0628889
 41
0.0628889
  0
VERTEX
  8
0
 10
1.31375
 20
-11.2747
 30
0.0
 40
0.0628889
 41
0.0628889
  0
VERTEX
  8
0
 10
1.40451
 20
-11.4025
 30
0.0
 40
0.0628889
 41
0.0628889
  0
VERTEX
  8
0
 10
1.49414
 20
-11.5625
 30
0.0
 40
0.0628889
 41
0.0628889
  0
VERTEX
  8
0
 10
1.56722
 20
-11.7114
 30
0.0
 40
0.0628889
 41
0.0628889
  0
VERTEX
  8
0
 10
1.5905
 20
-11.7616
 30
0.0
 40
0.0628889
 41
0.0628889
  0
VERTEX
  8
0
 10
1.61692
 20
-11.8186
 30
0.0
 40
0.0628889
 41
0.0628889
  0
VERTEX
  8
0
 10
1.70432
 20
-11.9863
 30
0.0
 40
0.0628889
 41
0.0628889
  0
VERTEX
  8
0
 10
1.82129
 20
-12.1716
 30
0.0
 40
0.0628889
 41
0.0628889
  0
VERTEX
  8
0
 10
1.94558
 20
-12.3203
 30
0.0
 40
0.0628889
 41
0.0628889
  0
VERTEX
  8
0
 10
2.08143
 20
-12.4354
 30
0.0
 40
0.0628889
 41
0.0628889
  0
VERTEX
  8
0
 10
2.23296
 20
-12.5199
 30
0.0
 40
0.0628889
 41
0.0628889
  0
VERTEX
  8
0
 10
2.40451
 20
-12.5766
 30
0.0
 40
0.0628889
 41
0.0628889
  0
VERTEX
  8
0
 10
2.60032
 20
-12.6085
 30
0.0
 40
0.0628889
 41
0.0628889
  0
VERTEX
  8
0
 10
2.76844
 20
-12.6184
 30
0.0
 40
0.0628889
 41
0.0628889
  0
VERTEX
  8
0
 10
2.82449
 20
-12.6184
 30
0.0
 40
0.0628889
 41
0.0628889
  0
VERTEX
  8
0
 10
2.86985
 20
-12.6184
 30
0.0
 40
0.0628889
 41
0.0628889
  0
VERTEX
  8
0
 10
3.00592
 20
-12.63
 30
0.0
 40
0.0628889
 41
0.0628889
  0
VERTEX
  8
0
 10
3.169
 20
-12.6656
 30
0.0
 40
0.0628889
 41
0.0628889
  0
VERTEX
  8
0
 10
3.31538
 20
-12.7266
 30
0.0
 40
0.0628889
 41
0.0628889
  0
VERTEX
  8
0
 10
3.44672
 20
-12.8143
 30
0.0
 40
0.0628889
 41
0.0628889
  0
VERTEX
  8
0
 10
3.56467
 20
-12.9301
 30
0.0
 40
0.0628889
 41
0.0628889
  0
VERTEX
  8
0
 10
3.6709
 20
-13.0754
 30
0.0
 40
0.0628889
 41
0.0628889
  0
VERTEX
  8
0
 10
3.76704
 20
-13.2515
 30
0.0
 40
0.0628889
 41
0.0628889
  0
VERTEX
  8
0
 10
3.83501
 20
-13.4068
 30
0.0
 40
0.0628889
 41
0.0628889
  0
VERTEX
  8
0
 10
3.85482
 20
-13.4597
 30
0.0
 40
0.0628889
 41
0.0628889
  0
VERTEX
  8
0
 10
3.87587
 20
-13.516
 30
0.0
 40
0.0628889
 41
0.0628889
  0
VERTEX
  8
0
 10
3.94379
 20
-13.6834
 30
0.0
 40
0.0628889
 41
0.0628889
  0
VERTEX
  8
0
 10
4.03185
 20
-13.8712
 30
0.0
 40
0.0628889
 41
0.0628889
  0
VERTEX
  8
0
 10
4.12418
 20
-14.0289
 30
0.0
 40
0.0628889
 41
0.0628889
  0
VERTEX
  8
0
 10
4.22607
 20
-14.1625
 30
0.0
 40
0.0628889
 41
0.0628889
  0
VERTEX
  8
0
 10
4.34272
 20
-14.2781
 30
0.0
 40
0.0628889
 41
0.0628889
  0
VERTEX
  8
0
 10
4.47933
 20
-14.3814
 30
0.0
 40
0.0628889
 41
0.0628889
  0
VERTEX
  8
0
 10
4.64117
 20
-14.4786
 30
0.0
 40
0.0628889
 41
0.0628889
  0
VERTEX
  8
0
 10
4.78478
 20
-14.5526
 30
0.0
 40
0.0628889
 41
0.0628889
  0
VERTEX
  8
0
 10
4.83344
 20
-14.5757
 30
0.0
 40
0.0628889
 41
0.0628889
  0
VERTEX
  8
0
 10
4.88103
 20
-14.5982
 30
0.0
 40
0.0628889
 41
0.0628889
  0
VERTEX
  8
0
 10
5.02192
 20
-14.6699
 30
0.0
 40
0.0628889
 41
0.0628889
  0
VERTEX
  8
0
 10
5.17833
 20
-14.7607
 30
0.0
 40
0.0628889
 41
0.0628889
  0
VERTEX
  8
0
 10
5.30669
 20
-14.8526
 30
0.0
 40
0.0628889
 41
0.0628889
  0
VERTEX
  8
0
 10
5.41129
 20
-14.9501
 30
0.0
 40
0.0628889
 41
0.0628889
  0
VERTEX
  8
0
 10
5.4961
 20
-15.0579
 30
0.0
 40
0.0628889
 41
0.0628889
  0
VERTEX
  8
0
 10
5.56538
 20
-15.1801
 30
0.0
 40
0.0628889
 41
0.0628889
  0
VERTEX
  8
0
 10
5.62315
 20
-15.3215
 30
0.0
 40
0.0628889
 41
0.0628889
  0
VERTEX
  8
0
 10
5.66233
 20
-15.4447
 30
0.0
 40
0.0628889
 41
0.0628889
  0
VERTEX
  8
0
 10
5.67361
 20
-15.4864
 30
0.0
 40
0.0628889
 41
0.0628889
  0
VERTEX
  8
0
 10
5.6856
 20
-15.531
 30
0.0
 40
0.0628889
 41
0.0628889
  0
VERTEX
  8
0
 10
5.73796
 20
-15.6603
 30
0.0
 40
0.0628889
 41
0.0628889
  0
VERTEX
  8
0
 10
5.83421
 20
-15.8308
 30
0.0
 40
0.0628889
 41
0.0628889
  0
VERTEX
  8
0
 10
5.95839
 20
-15.9943
 30
0.0
 40
0.0628889
 41
0.0628889
  0
VERTEX
  8
0
 10
6.10656
 20
-16.1471
 30
0.0
 40
0.0628889
 41
0.0628889
  0
VERTEX
  8
0
 10
6.27468
 20
-16.2857
 30
0.0
 40
0.0628889
 41
0.0628889
  0
VERTEX
  8
0
 10
6.45888
 20
-16.4063
 30
0.0
 40
0.0628889
 41
0.0628889
  0
VERTEX
  8
0
 10
6.65511
 20
-16.5053
 30
0.0
 40
0.0628889
 41
0.0628889
  0
VERTEX
  8
0
 10
6.8074
 20
-16.564
 30
0.0
 40
0.0628889
 41
0.0628889
  0
VERTEX
  8
0
 10
6.85949
 20
-16.579
 30
0.0
 40
0.0628889
 41
0.0628889
  0
VERTEX
  8
0
 10
6.90153
 20
-16.5912
 30
0.0
 40
0.0628889
 41
0.0628889
  0
VERTEX
  8
0
 10
7.02604
 20
-16.6339
 30
0.0
 40
0.0628889
 41
0.0628889
  0
VERTEX
  8
0
 10
7.17106
 20
-16.6983
 30
0.0
 40
0.0628889
 41
0.0628889
  0
VERTEX
  8
0
 10
7.29915
 20
-16.7765
 30
0.0
 40
0.0628889
 41
0.0628889
  0
VERTEX
  8
0
 10
7.41499
 20
-16.8732
 30
0.0
 40
0.0628889
 41
0.0628889
  0
VERTEX
  8
0
 10
7.52311
 20
-16.9925
 30
0.0
 40
0.0628889
 41
0.0628889
  0
VERTEX
  8
0
 10
7.62815
 20
-17.1393
 30
0.0
 40
0.0628889
 41
0.0628889
  0
VERTEX
  8
0
 10
7.73481
 20
-17.3176
 30
0.0
 40
0.0628889
 41
0.0628889
  0
VERTEX
  8
0
 10
7.82053
 20
-17.4781
 30
0.0
 40
0.0628889
 41
0.0628889
  0
VERTEX
  8
0
 10
7.84771
 20
-17.5322
 30
0.0
 40
0.0628889
 41
0.0628889
  0
VERTEX
  8
0
 10
7.86382
 20
-17.5644
 30
0.0
 40
0.0628889
 41
0.0628889
  0
VERTEX
  8
0
 10
7.92156
 20
-17.6565
 30
0.0
 40
0.0628889
 41
0.0628889
  0
VERTEX
  8
0
 10
8.01411
 20
-17.7721
 30
0.0
 40
0.0628889
 41
0.0628889
  0
VERTEX
  8
0
 10
8.125
 20
-17.8788
 30
0.0
 40
0.0628889
 41
0.0628889
  0
VERTEX
  8
0
 10
8.25407
 20
-17.9765
 30
0.0
 40
0.0628889
 41
0.0628889
  0
VERTEX
  8
0
 10
8.40099
 20
-18.0653
 30
0.0
 40
0.0628889
 41
0.0628889
  0
VERTEX
  8
0
 10
8.5656
 20
-18.1444
 30
0.0
 40
0.0628889
 41
0.0628889
  0
VERTEX
  8
0
 10
8.74761
 20
-18.2143
 30
0.0
 40
0.0628889
 41
0.0628889
  0
VERTEX
  8
0
 10
8.89654
 20
-18.2611
 30
0.0
 40
0.0628889
 41
0.0628889
  0
VERTEX
  8
0
 10
8.94678
 20
-18.2744
 30
0.0
 40
0.0628889
 41
0.0628889
  0
VERTEX
  8
0
 10
8.98953
 20
-18.2858
 30
0.0
 40
0.0628889
 41
0.0628889
  0
VERTEX
  8
0
 10
9.11475
 20
-18.3314
 30
0.0
 40
0.0628889
 41
0.0628889
  0
VERTEX
  8
0
 10
9.24918
 20
-18.4078
 30
0.0
 40
0.0628889
 41
0.0628889
  0
VERTEX
  8
0
 10
9.36253
 20
-18.5126
 30
0.0
 40
0.0628889
 41
0.0628889
  0
VERTEX
  8
0
 10
9.44353
 20
-18.6179
 30
0.0
 40
0.0628889
 41
0.0628889
  0
VERTEX
  8
0
 10
9.46718
 20
-18.6551
 30
0.0
 40
0.0628889
 41
0.0628889
  0
VERTEX
  8
0
 10
9.51671
 20
-18.7332
 30
0.0
 40
0.0628889
 41
0.0628889
  0
VERTEX
  8
0
 10
9.66581
 20
-18.9671
 30
0.0
 40
0.0628889
 41
0.0628889
  0
VERTEX
  8
0
 10
9.84218
 20
-19.2417
 30
0.0
 40
0.0628889
 41
0.0628889
  0
VERTEX
  8
0
 10
9.99794
 20
-19.4808
 30
0.0
 40
0.0628889
 41
0.0628889
  0
VERTEX
  8
0
 10
10.1348
 20
-19.6863
 30
0.0
 40
0.0628889
 41
0.0628889
  0
VERTEX
  8
0
 10
10.2545
 20
-19.8599
 30
0.0
 40
0.0628889
 41
0.0628889
  0
VERTEX
  8
0
 10
10.3586
 20
-20.0031
 30
0.0
 40
0.0628889
 41
0.0628889
  0
VERTEX
  8
0
 10
10.4489
 20
-20.1178
 30
0.0
 40
0.0628889
 41
0.0628889
  0
VERTEX
  8
0
 10
10.527
 20
-20.2058
 30
0.0
 40
0.0628889
 41
0.0628889
  0
VERTEX
  8
0
 10
10.5947
 20
-20.2689
 30
0.0
 40
0.0628889
 41
0.0628889
  0
VERTEX
  8
0
 10
10.6535
 20
-20.3087
 30
0.0
 40
0.0628889
 41
0.0628889
  0
VERTEX
  8
0
 10
10.7053
 20
-20.3271
 30
0.0
 40
0.0628889
 41
0.0628889
  0
VERTEX
  8
0
 10
10.7517
 20
-20.3257
 30
0.0
 40
0.0628889
 41
0.0628889
  0
VERTEX
  8
0
 10
10.7944
 20
-20.3064
 30
0.0
 40
0.0628889
 41
0.0628889
  0
VERTEX
  8
0
 10
10.835
 20
-20.2708
 30
0.0
 40
0.0628889
 41
0.0628889
  0
VERTEX
  8
0
 10
10.8752
 20
-20.2207
 30
0.0
 40
0.0628889
 41
0.0628889
  0
VERTEX
  8
0
 10
10.9069
 20
-20.1739
 30
0.0
 40
0.0628889
 41
0.0628889
  0
VERTEX
  8
0
 10
10.9169
 20
-20.1579
 30
0.0
 40
0.0628889
 41
0.0628889
  0
SEQEND
 8
0
  0
ENDSEC
  0
EOF
